<svg width="21" height="21" viewBox="0 0 21 21" fill="none" xmlns="http://www.w3.org/2000/svg">
<path d="M9.72578 13.6297L7.87578 15.4797C7.48578 15.8697 6.86578 15.8697 6.46578 15.4897C6.35578 15.3797 6.24578 15.2797 6.13578 15.1697C5.12455 14.1517 4.19188 13.0586 3.34578 11.8997C2.52578 10.7597 1.86578 9.61969 1.38578 8.48969C0.915781 7.34969 0.675781 6.25969 0.675781 5.21969C0.675781 4.53969 0.795781 3.88969 1.03578 3.28969C1.27578 2.67969 1.65578 2.11969 2.18578 1.61969C2.82578 0.989688 3.52578 0.679688 4.26578 0.679688C4.54578 0.679688 4.82578 0.739688 5.07578 0.859688C5.33578 0.979688 5.56578 1.15969 5.74578 1.41969L8.06578 4.68969C8.24578 4.93969 8.37578 5.16969 8.46578 5.38969C8.55578 5.59969 8.60578 5.80969 8.60578 5.99969C8.60578 6.23969 8.53578 6.47969 8.39578 6.70969C8.26578 6.93969 8.07578 7.17969 7.83578 7.41969L7.07578 8.20969C6.96578 8.31969 6.91578 8.44969 6.91578 8.60969C6.91578 8.68969 6.92578 8.75969 6.94578 8.83969C6.97578 8.91969 7.00578 8.97969 7.02578 9.03969C7.20578 9.36969 7.51578 9.79969 7.95578 10.3197C8.40578 10.8397 8.88578 11.3697 9.40578 11.8997C9.50578 11.9997 9.61578 12.0997 9.71578 12.1997C10.1158 12.5897 10.1258 13.2297 9.72578 13.6297ZM20.6458 17.0097C20.6445 17.3871 20.5591 17.7594 20.3958 18.0997C20.2258 18.4597 20.0058 18.7997 19.7158 19.1197C19.2258 19.6597 18.6858 20.0497 18.0758 20.2997C18.0658 20.2997 18.0558 20.3097 18.0458 20.3097C17.4558 20.5497 16.8158 20.6797 16.1258 20.6797C15.1058 20.6797 14.0158 20.4397 12.8658 19.9497C11.7158 19.4597 10.5658 18.7997 9.42578 17.9697C9.03578 17.6797 8.64578 17.3897 8.27578 17.0797L11.5458 13.8097C11.8258 14.0197 12.0758 14.1797 12.2858 14.2897C12.3358 14.3097 12.3958 14.3397 12.4658 14.3697C12.5458 14.3997 12.6258 14.4097 12.7158 14.4097C12.8858 14.4097 13.0158 14.3497 13.1258 14.2397L13.8858 13.4897C14.1358 13.2397 14.3758 13.0497 14.6058 12.9297C14.8358 12.7897 15.0658 12.7197 15.3158 12.7197C15.5058 12.7197 15.7058 12.7597 15.9258 12.8497C16.1458 12.9397 16.3758 13.0697 16.6258 13.2397L19.9358 15.5897C20.1958 15.7697 20.3758 15.9797 20.4858 16.2297C20.5858 16.4797 20.6458 16.7297 20.6458 17.0097Z" fill="white"/>
</svg>
