<svg width="26" height="11" viewBox="0 0 26 11" fill="none" xmlns="http://www.w3.org/2000/svg">
<path d="M11.5517 4.2151L11.5468 1.59881C11.5457 1.04727 11.9833 0.608034 12.5348 0.592848C12.6904 0.592553 12.8389 0.585201 12.9944 0.584906C14.4293 0.586968 15.862 0.697717 17.2801 0.916203C18.6665 1.13985 19.9399 1.47685 21.0792 1.93432C22.2186 2.40592 23.1602 3.00518 23.8969 3.73918C24.3787 4.2191 24.7545 4.76286 25.0102 5.35635C25.2729 5.95689 25.4015 6.62133 25.3816 7.34969C25.3763 8.24773 25.1018 8.96243 24.5796 9.48667C24.382 9.68504 24.1418 9.84106 23.8804 9.93348C23.6119 10.033 23.322 10.0689 23.0108 10.0129L19.0568 9.34864C18.7527 9.29972 18.498 9.22949 18.2786 9.13798C18.0663 9.05353 17.8822 8.94074 17.7476 8.80664C17.5776 8.63726 17.457 8.41829 17.3928 8.15678C17.3217 7.90235 17.2857 7.59836 17.2851 7.25895L17.2618 6.16298C17.2615 6.00742 17.2047 5.88024 17.0913 5.76732C17.0347 5.71086 16.978 5.66854 16.9072 5.62625C16.8294 5.59104 16.7657 5.56995 16.7091 5.54177C16.3482 5.43639 15.8248 5.35253 15.1459 5.29724C14.4599 5.24904 13.7457 5.21504 13.0032 5.20938C12.8618 5.20964 12.7133 5.217 12.5719 5.21726C12.0133 5.22539 11.5528 4.78079 11.5517 4.2151ZM1.45023 9.56582C1.1838 9.29853 0.980276 8.97523 0.854463 8.61942C0.719403 8.24491 0.633799 7.8491 0.61177 7.4178C0.575035 6.68955 0.679857 6.03174 0.933264 5.42315C0.940321 5.41606 0.940295 5.40192 0.947353 5.39484C1.19373 4.80747 1.55332 4.26232 2.0403 3.77349C2.76018 3.05088 3.69949 2.44806 4.85826 1.97917C6.01703 1.51029 7.29624 1.16138 8.68882 0.93954C9.16952 0.86792 9.65022 0.7963 10.131 0.752963L10.1397 5.37743C9.79334 5.42759 9.50354 5.49177 9.2774 5.56291C9.22795 5.58422 9.16435 5.60555 9.09369 5.63397C9.01598 5.66947 8.95243 5.71909 8.88891 5.78285C8.76893 5.90329 8.71969 6.03773 8.71998 6.19329L8.71493 7.26104C8.7156 7.61459 8.68082 7.91871 8.60351 8.16635C8.54037 8.4281 8.42763 8.64044 8.25119 8.81755C8.11709 8.95216 7.9476 9.06562 7.72857 9.15795C7.50954 9.25029 7.25512 9.32149 6.95824 9.37862L2.95731 10.065C2.64629 10.1222 2.37048 10.1015 2.11574 10.003C1.86805 9.89737 1.64859 9.76344 1.45023 9.56582Z" fill="white"/>
</svg>
