<svg width="21" height="24" viewBox="0 0 21 24" fill="none" xmlns="http://www.w3.org/2000/svg">
    <path fill-rule="evenodd" clip-rule="evenodd"
        d="M14.0925 0.830018C13.9974 0.639571 13.8629 0.471541 13.6979 0.337093C13.5329 0.202645 13.3411 0.104859 13.1354 0.0502335C12.9297 -0.00439163 12.7147 -0.0146048 12.5047 0.0202725C12.2947 0.0551498 12.0945 0.134319 11.9175 0.252518C11.4 0.597518 10.9965 1.08952 10.6845 1.57252C10.3635 2.06752 10.08 2.64202 9.82951 3.24652C9.32851 4.45252 8.90851 5.89852 8.56951 7.34752C8.15954 9.11825 7.85252 10.9113 7.65001 12.7175C7.03971 12.3241 6.54933 11.7704 6.23251 11.117C5.74051 10.097 5.63551 8.81602 5.63551 7.13602C5.63544 6.83939 5.54744 6.54945 5.38261 6.30283C5.21778 6.05622 4.98354 5.86401 4.70949 5.7505C4.43544 5.637 4.13389 5.60729 3.84296 5.66514C3.55203 5.723 3.28479 5.86581 3.07501 6.07552C2.09875 7.04967 1.32455 8.20708 0.796849 9.48128C0.26915 10.7555 -0.00164717 12.1214 7.53769e-06 13.5005C0.000132129 15.2272 0.426077 16.9272 1.24012 18.45C2.05415 19.9727 3.23116 21.2712 4.66688 22.2304C6.1026 23.1897 7.75273 23.78 9.4711 23.9492C11.1895 24.1184 12.923 23.8612 14.5183 23.2005C16.1135 22.5397 17.5212 21.4957 18.6166 20.1609C19.712 18.8262 20.4613 17.2419 20.7982 15.5484C21.1351 13.8549 21.0492 12.1045 20.548 10.4521C20.0468 8.79978 19.1459 7.29653 17.925 6.07552C17.037 5.18902 16.455 4.59802 15.903 3.87502C15.3585 3.16102 14.817 2.28052 14.0925 0.830018ZM13.68 19.6805C13.0507 20.3091 12.2492 20.737 11.3768 20.9103C10.5044 21.0836 9.60025 20.9945 8.77847 20.6542C7.95669 20.314 7.25417 19.7378 6.75965 18.9985C6.26513 18.2592 6.00079 17.39 6.00001 16.5005C6.00001 16.5005 7.31851 17.2505 9.75001 17.2505C9.75001 15.7505 10.5 11.2505 11.625 10.5005C12.375 12.0005 12.804 12.44 13.6815 13.319C14.1001 13.7363 14.432 14.2322 14.6583 14.7782C14.8846 15.3242 15.0007 15.9095 15 16.5005C15.0007 17.0915 14.8846 17.6769 14.6583 18.2229C14.432 18.7689 14.1001 19.2647 13.6815 19.682L13.68 19.6805Z"
        fill="#FE06C7" />
</svg>