<svg width="24" height="24" viewBox="0 0 24 24" fill="none" xmlns="http://www.w3.org/2000/svg">
    <path
        d="M13.0421 0.439179C12.7608 0.157973 12.3793 0 11.9816 0C11.5838 0 11.2024 0.157973 10.9211 0.439179L0.421068 10.9392C0.147831 11.2221 -0.00336092 11.601 5.6704e-05 11.9943C0.00347433 12.3876 0.161228 12.7638 0.43934 13.0419C0.717452 13.32 1.09367 13.4778 1.48697 13.4812C1.88026 13.4846 2.25916 13.3334 2.54207 13.0602L2.98157 12.6207V22.4997C2.98157 22.8975 3.1396 23.279 3.42091 23.5603C3.70221 23.8416 4.08374 23.9997 4.48157 23.9997H7.48157C7.87939 23.9997 8.26092 23.8416 8.54223 23.5603C8.82353 23.279 8.98157 22.8975 8.98157 22.4997V19.4997C8.98157 19.1019 9.1396 18.7203 9.42091 18.439C9.70221 18.1577 10.0837 17.9997 10.4816 17.9997H13.4816C13.8794 17.9997 14.2609 18.1577 14.5422 18.439C14.8235 18.7203 14.9816 19.1019 14.9816 19.4997V22.4997C14.9816 22.8975 15.1396 23.279 15.4209 23.5603C15.7022 23.8416 16.0837 23.9997 16.4816 23.9997H19.4816C19.8794 23.9997 20.2609 23.8416 20.5422 23.5603C20.8235 23.279 20.9816 22.8975 20.9816 22.4997V12.6207L21.4211 13.0602C21.704 13.3334 22.0829 13.4846 22.4762 13.4812C22.8695 13.4778 23.2457 13.32 23.5238 13.0419C23.8019 12.7638 23.9597 12.3876 23.9631 11.9943C23.9665 11.601 23.8153 11.2221 23.5421 10.9392L13.0421 0.439179Z"
        fill="#FE06C7" />
</svg>