<svg width="30" height="30" viewBox="0 0 30 30" fill="none" xmlns="http://www.w3.org/2000/svg">
<path d="M21.25 2.5H8.75C5.3 2.5 2.5 5.2875 2.5 8.725V17.45C2.5 20.8875 5.3 23.675 8.75 23.675H10.625C10.9625 23.675 11.4125 23.9 11.625 24.175L13.5 26.6625C14.325 27.7625 15.675 27.7625 16.5 26.6625L18.375 24.175C18.6125 23.8625 18.9875 23.675 19.375 23.675H21.25C24.7 23.675 27.5 20.8875 27.5 17.45V8.725C27.5 5.2875 24.7 2.5 21.25 2.5ZM16.25 17.1875H8.75C8.2375 17.1875 7.8125 16.7625 7.8125 16.25C7.8125 15.7375 8.2375 15.3125 8.75 15.3125H16.25C16.7625 15.3125 17.1875 15.7375 17.1875 16.25C17.1875 16.7625 16.7625 17.1875 16.25 17.1875ZM21.25 10.9375H8.75C8.2375 10.9375 7.8125 10.5125 7.8125 10C7.8125 9.4875 8.2375 9.0625 8.75 9.0625H21.25C21.7625 9.0625 22.1875 9.4875 22.1875 10C22.1875 10.5125 21.7625 10.9375 21.25 10.9375Z" fill="#FE06C7"/>
</svg>
