<svg width="22" height="21" viewBox="0 0 22 21" fill="none" xmlns="http://www.w3.org/2000/svg">
<path d="M11.525 10.4176L9.055 12.8876C8.72936 13.2123 8.47099 13.598 8.2947 14.0227C8.11842 14.4474 8.02767 14.9028 8.02767 15.3626C8.02767 15.8225 8.11842 16.2778 8.2947 16.7025C8.47099 17.1272 8.72936 17.5129 9.055 17.8376C9.37967 18.1632 9.76542 18.4216 10.1901 18.5979C10.6148 18.7742 11.0702 18.8649 11.53 18.8649C11.9898 18.8649 12.4452 18.7742 12.8699 18.5979C13.2946 18.4216 13.6803 18.1632 14.005 17.8376L17.895 13.9476C19.2062 12.6339 19.9426 10.8537 19.9426 8.99761C19.9426 7.14154 19.2062 5.36129 17.895 4.04761C16.5813 2.73641 14.8011 2 12.945 2C11.0889 2 9.30868 2.73641 7.995 4.04761L3.755 8.28761C1.415 10.6276 1.415 14.4276 3.755 16.7776" stroke="#436475" stroke-width="2.5" stroke-linecap="round" stroke-linejoin="round"/>
</svg>
