<svg width="15" height="13" viewBox="0 0 15 13" fill="none" xmlns="http://www.w3.org/2000/svg">
<path d="M10.4688 1.9285V1.0835C10.4688 0.861413 10.2563 0.677246 10 0.677246C9.74375 0.677246 9.53125 0.861413 9.53125 1.0835V1.896H5.46875V1.0835C5.46875 0.861413 5.25625 0.677246 5 0.677246C4.74375 0.677246 4.53125 0.861413 4.53125 1.0835V1.9285C2.84375 2.06391 2.025 2.936 1.9 4.23058C1.8875 4.38766 2.0375 4.51766 2.2125 4.51766H12.7875C12.9687 4.51766 13.1187 4.38225 13.1 4.23058C12.975 2.936 12.1562 2.06391 10.4688 1.9285ZM12.5 5.33016H2.5C2.15625 5.33016 1.875 5.57391 1.875 5.87183V9.2085C1.875 10.8335 2.8125 11.9168 5 11.9168H10C12.1875 11.9168 13.125 10.8335 13.125 9.2085V5.87183C13.125 5.57391 12.8438 5.33016 12.5 5.33016ZM9.275 8.11975L8.9625 8.396H8.95625L7.0625 10.0372C6.98125 10.1077 6.8125 10.1835 6.69375 10.1943L5.85 10.3027C5.54375 10.3406 5.33125 10.151 5.375 9.891L5.49375 9.15433C5.5125 9.05141 5.59375 8.91058 5.675 8.83475L7.575 7.1935L7.8875 6.91725C8.09375 6.7385 8.325 6.6085 8.575 6.6085C8.7875 6.6085 9.01875 6.69516 9.275 6.91725C9.8375 7.40475 9.65625 7.78933 9.275 8.11975Z" fill="#F94284"/>
</svg>
