<svg width="20" height="20" viewBox="0 0 20 20" fill="none" xmlns="http://www.w3.org/2000/svg">
<g clip-path="url(#clip0_766_165)">
<path d="M2.79255 1.6665H10.2092C10.8259 1.6665 11.3342 2.17484 11.3342 2.7915V4.02484C11.3342 4.47484 11.0509 5.03317 10.7759 5.3165L8.35921 7.44984C8.02588 7.73317 7.80088 8.2915 7.80088 8.7415V11.1582C7.80088 11.4915 7.57588 11.9415 7.29255 12.1165L6.50922 12.6248C5.77588 13.0748 4.76755 12.5665 4.76755 11.6665V8.6915C4.76755 8.29984 4.54255 7.7915 4.31755 7.50817L2.18422 5.25817C1.90088 4.97484 1.67588 4.47484 1.67588 4.13317V2.8415C1.66755 2.17484 2.17588 1.6665 2.79255 1.6665Z" stroke="#436475" stroke-width="1.5" stroke-miterlimit="10" stroke-linecap="round" stroke-linejoin="round"/>
<path d="M18.3327 7.49857C18.3327 4.89857 17.6827 3.26523 16.1743 2.41523C15.7493 2.17357 14.8993 1.99023 14.1243 1.86523M1.66602 10.0002V12.5002C1.66602 16.6669 3.33268 18.3336 7.49935 18.3336H12.4993C16.666 18.3336 18.3327 16.6669 18.3327 12.5002V10.8336M10.8327 10.8336H14.9993M9.16602 14.1669H14.9993" stroke="#436475" stroke-width="1.5" stroke-linecap="round" stroke-linejoin="round"/>
</g>
<defs>
<clipPath id="clip0_766_165">
<rect width="20" height="20" fill="white"/>
</clipPath>
</defs>
</svg>
