<svg width="13" height="13" viewBox="0 0 13 13" fill="none" xmlns="http://www.w3.org/2000/svg">
<path d="M1.39841 10.2978L1.38758 10.3087C1.24133 9.98909 1.14924 9.62617 1.11133 9.22534C1.14924 9.62075 1.25216 9.97825 1.39841 10.2978ZM4.87645 5.62325C5.21836 5.62325 5.54627 5.48743 5.78803 5.24567C6.0298 5.0039 6.16562 4.676 6.16562 4.33409C6.16562 3.99218 6.0298 3.66428 5.78803 3.42251C5.54627 3.18074 5.21836 3.04492 4.87645 3.04492C4.53455 3.04492 4.20664 3.18074 3.96487 3.42251C3.72311 3.66428 3.58729 3.99218 3.58729 4.33409C3.58729 4.676 3.72311 5.0039 3.96487 5.24567C4.20664 5.48743 4.53455 5.62325 4.87645 5.62325Z" fill="#34CA00"/>
<path d="M8.77023 1.0835H4.23107C2.2594 1.0835 1.08398 2.25891 1.08398 4.23058V8.76975C1.08398 9.36016 1.1869 9.87475 1.38732 10.3081C1.85315 11.3372 2.84982 11.9168 4.23107 11.9168H8.77023C10.7419 11.9168 11.9173 10.7414 11.9173 8.76975V4.23058C11.9173 2.25891 10.7419 1.0835 8.77023 1.0835ZM11.0344 6.771C10.6119 6.40808 9.9294 6.40808 9.5069 6.771L7.25357 8.70475C6.83107 9.06766 6.14857 9.06766 5.72607 8.70475L5.5419 8.55308C5.15732 8.21725 4.54523 8.18475 4.1119 8.47725L2.08607 9.83683C1.9669 9.5335 1.89648 9.18141 1.89648 8.76975V4.23058C1.89648 2.70308 2.70357 1.896 4.23107 1.896H8.77023C10.2977 1.896 11.1048 2.70308 11.1048 4.23058V6.83058L11.0344 6.771Z" fill="#34CA00"/>
</svg>
