<svg width="14" height="13" viewBox="0 0 14 13" fill="none" xmlns="http://www.w3.org/2000/svg">
<path d="M11.6673 6.50016V9.75016C11.6673 10.9472 10.6232 11.9168 9.33398 11.9168H4.66732C3.37815 11.9168 2.33398 10.9472 2.33398 9.75016V6.50016C2.33398 6.20225 2.59648 5.9585 2.91732 5.9585H4.06648C4.38732 5.9585 4.64982 6.20225 4.64982 6.50016V8.201C4.65043 8.48864 4.77335 8.76442 4.99185 8.96832C5.21034 9.17223 5.50672 9.28775 5.81648 9.28975C6.03815 9.28975 6.25982 9.23016 6.45232 9.111L7.00648 8.77516L7.51982 9.09475C7.87565 9.31683 8.33065 9.34391 8.70982 9.15433C9.09482 8.96475 9.33398 8.60183 9.33398 8.19558V6.50016C9.33398 6.20225 9.59649 5.9585 9.91732 5.9585H11.084C11.4048 5.9585 11.6673 6.20225 11.6673 6.50016ZM12.5423 3.79183V4.3335C12.5423 4.92933 12.2332 5.41683 11.3757 5.41683H2.62565C1.73315 5.41683 1.45898 4.92933 1.45898 4.3335V3.79183C1.45898 3.196 1.73315 2.7085 2.62565 2.7085H11.3757C12.2332 2.7085 12.5423 3.196 12.5423 3.79183Z" fill="#F5C61F"/>
<path d="M6.79036 2.70903H3.57036C3.47444 2.61243 3.42266 2.48502 3.42593 2.35366C3.42919 2.2223 3.48725 2.09725 3.58786 2.00486L4.41619 1.23569C4.52103 1.13944 4.66251 1.08545 4.80994 1.08545C4.95738 1.08545 5.09886 1.13944 5.20369 1.23569L6.79036 2.70903ZM10.4263 2.70903H7.20628L8.79294 1.23569C8.89778 1.13944 9.03926 1.08545 9.18669 1.08545C9.33413 1.08545 9.47561 1.13944 9.58044 1.23569L10.4088 2.00486C10.6188 2.19986 10.6246 2.50861 10.4263 2.70903ZM8.15069 5.95849C8.47153 5.95849 8.73403 6.20224 8.73403 6.50015V8.19557C8.73403 8.6289 8.21486 8.8889 7.82986 8.64515L7.30486 8.32015C7.20961 8.26191 7.09807 8.23087 6.98403 8.23087C6.86998 8.23087 6.75844 8.26191 6.66319 8.32015L6.11486 8.65599C5.72986 8.89432 5.21653 8.63432 5.21653 8.2064V6.50015C5.21653 6.20224 5.47903 5.95849 5.79986 5.95849H8.15069Z" fill="#F5C61F"/>
</svg>
