<svg width="24" height="24" viewBox="0 0 24 24" fill="none" xmlns="http://www.w3.org/2000/svg">
<path d="M7.649 20.91C7.619 20.91 7.579 20.93 7.549 20.93C5.609 19.97 4.029 18.38 3.059 16.44C3.059 16.41 3.079 16.37 3.079 16.34C4.299 16.7 5.559 16.97 6.809 17.18C7.029 18.44 7.289 19.69 7.649 20.91ZM20.94 16.45C19.95 18.44 18.3 20.05 16.29 21.02C16.67 19.75 16.99 18.47 17.2 17.18C18.46 16.97 19.7 16.7 20.92 16.34C20.91 16.38 20.94 16.42 20.94 16.45ZM21.02 7.71C19.76 7.33 18.49 7.02 17.2 6.8C16.99 5.51 16.68 4.23 16.29 2.98C18.36 3.97 20.03 5.64 21.02 7.71ZM7.65 3.089C7.29 4.309 7.03 5.549 6.82 6.809C5.53 7.009 4.25 7.329 2.98 7.709C3.95 5.699 5.56 4.049 7.55 3.059C7.58 3.059 7.62 3.089 7.65 3.089ZM15.492 6.59C13.172 6.33 10.832 6.33 8.512 6.59C8.762 5.22 9.082 3.85 9.532 2.53C9.552 2.45 9.542 2.39 9.552 2.31C10.342 2.12 11.152 2 12.002 2C12.842 2 13.662 2.12 14.442 2.31C14.452 2.39 14.452 2.45 14.472 2.53C14.922 3.86 15.242 5.22 15.492 6.59ZM6.59 15.492C5.21 15.242 3.85 14.922 2.53 14.472C2.45 14.452 2.39 14.462 2.31 14.452C2.12 13.662 2 12.852 2 12.002C2 11.162 2.12 10.342 2.31 9.562C2.39 9.552 2.45 9.552 2.53 9.532C3.86 9.092 5.21 8.762 6.59 8.512C6.34 10.832 6.34 13.172 6.59 15.492ZM22 12.002C22 12.852 21.88 13.662 21.69 14.452C21.61 14.462 21.55 14.452 21.47 14.472C20.14 14.912 18.78 15.242 17.41 15.492C17.67 13.172 17.67 10.832 17.41 8.512C18.78 8.762 20.15 9.082 21.47 9.532C21.55 9.552 21.61 9.562 21.69 9.562C21.88 10.352 22 11.162 22 12.002ZM15.492 17.41C15.242 18.79 14.922 20.15 14.472 21.47C14.452 21.55 14.452 21.61 14.442 21.69C13.662 21.88 12.842 22 12.002 22C11.152 22 10.342 21.88 9.552 21.69C9.542 21.61 9.552 21.55 9.532 21.47C9.09715 20.1423 8.75631 18.7856 8.512 17.41C9.672 17.54 10.832 17.63 12.002 17.63C13.172 17.63 14.342 17.54 15.492 17.41ZM15.763 15.763C13.2643 16.0785 10.7357 16.0785 8.237 15.763C7.9215 13.2643 7.9215 10.7357 8.237 8.237C10.7357 7.9215 13.2643 7.9215 15.763 8.237C16.0785 10.7357 16.0785 13.2643 15.763 15.763Z" fill="#436475"/>
</svg>
