<svg width="24" height="24" viewBox="0 0 24 24" fill="none" xmlns="http://www.w3.org/2000/svg">
<path d="M19.4995 7.49902L18.0095 8.98902L15.0095 5.98902L16.4995 4.49902C16.9195 4.07902 17.4595 3.87902 17.9995 3.87902C18.5395 3.87902 19.0795 4.07902 19.4995 4.49902C20.3295 5.32902 20.3295 6.66902 19.4995 7.49902ZM17.3095 9.70002L6.49953 20.5C5.66953 21.33 4.32953 21.33 3.49953 20.5C2.66953 19.67 2.66953 18.33 3.49953 17.5L14.3095 6.70002L17.3095 9.70002ZM9.94953 3.50002L10.3595 2.11002C10.3995 1.98002 10.3595 1.84002 10.2695 1.74002C10.1795 1.64002 10.0195 1.60002 9.88953 1.64002L8.49953 2.05002L7.10953 1.64002C6.97953 1.60002 6.83953 1.64002 6.73953 1.73002C6.63953 1.83002 6.60953 1.97002 6.64953 2.10002L7.04953 3.50002L6.63953 4.89002C6.59953 5.02002 6.63953 5.16002 6.72953 5.26002C6.82953 5.36002 6.96953 5.39002 7.09953 5.35002L8.49953 4.95002L9.88953 5.36002C9.92953 5.37002 9.95953 5.38002 9.99953 5.38002C10.0995 5.38002 10.1895 5.34002 10.2695 5.27002C10.3695 5.17002 10.3995 5.03002 10.3595 4.90002L9.94953 3.50002ZM5.94953 9.50002L6.35953 8.11002C6.39953 7.98002 6.35953 7.84002 6.26953 7.74002C6.16953 7.64002 6.02953 7.61002 5.89953 7.65002L4.49953 8.05002L3.10953 7.64002C2.97953 7.60002 2.83953 7.64002 2.73953 7.73002C2.63953 7.83002 2.60953 7.97002 2.64953 8.10002L3.04953 9.50002L2.63953 10.89C2.59953 11.02 2.63953 11.16 2.72953 11.26C2.82953 11.36 2.96953 11.39 3.09953 11.35L4.48953 10.94L5.87953 11.35C5.90953 11.36 5.94953 11.36 5.98953 11.36C6.08953 11.36 6.17953 11.32 6.25953 11.25C6.35953 11.15 6.38953 11.01 6.34953 10.88L5.94953 9.50002ZM20.9495 14.5L21.3595 13.11C21.3995 12.98 21.3595 12.84 21.2695 12.74C21.1695 12.64 21.0295 12.61 20.8995 12.65L19.5095 13.06L18.1195 12.65C17.9895 12.61 17.8495 12.65 17.7495 12.74C17.6495 12.84 17.6195 12.98 17.6595 13.11L18.0695 14.5L17.6595 15.89C17.6195 16.02 17.6595 16.16 17.7495 16.26C17.8495 16.36 17.9895 16.39 18.1195 16.35L19.5095 15.94L20.8995 16.35C20.9295 16.36 20.9695 16.36 21.0095 16.36C21.1095 16.36 21.1995 16.32 21.2795 16.25C21.3795 16.15 21.4095 16.01 21.3695 15.88L20.9495 14.5Z" fill="white"/>
</svg>
