<svg width="21" height="24" viewBox="0 0 21 24" fill="none" xmlns="http://www.w3.org/2000/svg">
    <path
        d="M10.4997 0C8.11273 0 5.82355 0.948211 4.13572 2.63604C2.44789 4.32387 1.49968 6.61305 1.49968 9V14.379L0.43918 15.4395C0.229466 15.6493 0.0866566 15.9165 0.0288052 16.2075C-0.0290461 16.4984 0.000658426 16.7999 0.114163 17.074C0.227669 17.348 0.419878 17.5823 0.666493 17.7471C0.913107 17.9119 1.20305 17.9999 1.49968 18H19.4997C19.7963 17.9999 20.0863 17.9119 20.3329 17.7471C20.5795 17.5823 20.7717 17.348 20.8852 17.074C20.9987 16.7999 21.0284 16.4984 20.9706 16.2075C20.9127 15.9165 20.7699 15.6493 20.5602 15.4395L19.4997 14.379V9C19.4997 6.61305 18.5515 4.32387 16.8636 2.63604C15.1758 0.948211 12.8866 0 10.4997 0ZM10.4997 24C9.30621 24 8.16161 23.5259 7.3177 22.682C6.47379 21.8381 5.99968 20.6935 5.99968 19.5H14.9997C14.9997 20.6935 14.5256 21.8381 13.6817 22.682C12.8377 23.5259 11.6932 24 10.4997 24Z"
        fill="#436475" />
</svg>