<svg width="24" height="24" viewBox="0 0 24 24" fill="none" xmlns="http://www.w3.org/2000/svg">
<path d="M18.0703 8.50916L9.51026 4.22916C3.76026 1.34916 1.40026 3.70916 4.28026 9.45916L5.15026 11.1992C5.40026 11.7092 5.40026 12.2992 5.15026 12.8092L4.28026 14.5392C1.40026 20.2892 3.75026 22.6492 9.51026 19.7692L18.0703 15.4892C21.9103 13.5692 21.9103 10.4292 18.0703 8.50916ZM14.8403 12.7492H9.44026C9.03026 12.7492 8.69026 12.4092 8.69026 11.9992C8.69026 11.5892 9.03026 11.2492 9.44026 11.2492H14.8403C15.2503 11.2492 15.5903 11.5892 15.5903 11.9992C15.5903 12.4092 15.2503 12.7492 14.8403 12.7492Z" fill="#436475"/>
</svg>
