<svg width="30" height="30" viewBox="0 0 30 30" fill="none" xmlns="http://www.w3.org/2000/svg">
    <path fill-rule="evenodd" clip-rule="evenodd"
        d="M27 15C27 18.1826 25.7357 21.2348 23.4853 23.4853C21.2348 25.7357 18.1826 27 15 27C11.8174 27 8.76515 25.7357 6.51472 23.4853C4.26428 21.2348 3 18.1826 3 15C3 11.8174 4.26428 8.76515 6.51472 6.51472C8.76515 4.26428 11.8174 3 15 3C18.1826 3 21.2348 4.26428 23.4853 6.51472C25.7357 8.76515 27 11.8174 27 15ZM18 10.5C18 11.2956 17.6839 12.0587 17.1213 12.6213C16.5587 13.1839 15.7956 13.5 15 13.5C14.2043 13.5 13.4413 13.1839 12.8787 12.6213C12.3161 12.0587 12 11.2956 12 10.5C12 9.70435 12.3161 8.94129 12.8787 8.37868C13.4413 7.81607 14.2043 7.5 15 7.5C15.7956 7.5 16.5587 7.81607 17.1213 8.37868C17.6839 8.94129 18 9.70435 18 10.5ZM15 16.5C13.5639 16.4997 12.1579 16.9117 10.9491 17.6871C9.74033 18.4625 8.77956 19.5686 8.181 20.874C9.02501 21.8559 10.0714 22.6436 11.2484 23.1832C12.4254 23.7228 13.7052 24.0014 15 24C16.2948 24.0014 17.5746 23.7228 18.7516 23.1832C19.9286 22.6436 20.975 21.8559 21.819 20.874C21.2204 19.5686 20.2597 18.4625 19.0509 17.6871C17.8421 16.9117 16.4361 16.4997 15 16.5Z"
        fill="#436475" />
</svg>