<svg width="20" height="20" viewBox="0 0 20 20" fill="none" xmlns="http://www.w3.org/2000/svg">
<path d="M11.458 10.625H7.08301V13.95C7.08301 14.1833 7.27467 14.375 7.50801 14.375H11.458C12.4913 14.375 13.333 13.5333 13.333 12.5C13.333 11.4667 12.4913 10.625 11.458 10.625ZM12.083 7.5C12.083 6.46667 11.2413 5.625 10.208 5.625H7.50801C7.27467 5.625 7.08301 5.81667 7.08301 6.05V9.375H10.208C11.2413 9.375 12.083 8.53333 12.083 7.5Z" fill="black"/>
<path d="M17.4587 3.4415C17.217 3.0915 16.9087 2.78317 16.5587 2.5415C15.767 1.9665 14.7337 1.6665 13.492 1.6665H6.50866C6.34199 1.6665 6.17533 1.67484 6.01699 1.6915C3.28366 1.8665 1.66699 3.6415 1.66699 6.50817V13.4915C1.66699 14.7332 1.96699 15.7665 2.54199 16.5582C2.78366 16.9082 3.09199 17.2165 3.44199 17.4582C4.12533 17.9582 4.99199 18.2498 6.01699 18.3165C6.17533 18.3248 6.34199 18.3332 6.50866 18.3332H13.492C16.5253 18.3332 18.3337 16.5248 18.3337 13.4915V6.50817C18.3337 5.2665 18.0337 4.23317 17.4587 3.4415ZM11.4587 15.6248H7.50866C6.58366 15.6248 5.83366 14.8748 5.83366 13.9498V6.04984C5.83366 5.12484 6.58366 4.37484 7.50866 4.37484H10.2087C11.9337 4.37484 13.3337 5.77484 13.3337 7.49984C13.3337 8.29984 13.0253 9.02484 12.5253 9.57484C13.717 10.0165 14.5837 11.1498 14.5837 12.4998C14.5837 14.2248 13.1837 15.6248 11.4587 15.6248Z" fill="black"/>
</svg>
