<svg width="31" height="23" viewBox="0 0 31 23" fill="none" xmlns="http://www.w3.org/2000/svg">
<path d="M29.3684 19.1667V20.4444C29.3684 21.85 27.9 23 26.1053 23H3.26316C1.45211 23 0 21.85 0 20.4444V2.55556C0 1.15 1.45211 0 3.26316 0H26.1053C27.9 0 29.3684 1.15 29.3684 2.55556V3.83333H14.6842C12.8732 3.83333 11.4211 4.98333 11.4211 6.38889V16.6111C11.4211 18.0167 12.8732 19.1667 14.6842 19.1667H29.3684ZM14.6842 16.6111H31V6.38889H14.6842V16.6111ZM21.2105 13.4167C19.8563 13.4167 18.7632 12.5606 18.7632 11.5C18.7632 10.4394 19.8563 9.58333 21.2105 9.58333C22.5647 9.58333 23.6579 10.4394 23.6579 11.5C23.6579 12.5606 22.5647 13.4167 21.2105 13.4167Z" fill="white"/>
</svg>
