<svg width="297" height="294" viewBox="0 0 297 294" fill="none" xmlns="http://www.w3.org/2000/svg">
<path d="M106.715 16.1373C90.4122 22.4163 20.8672 49.2043 3.77884 113.803C-15.7055 187.466 42.5693 274.187 123.126 290.168C206.687 306.742 301.077 267.781 293.663 207.413C290.555 182.097 250.421 167.334 254.407 139.099C257.157 119.62 277.493 117.025 286.481 90.6172C292.596 72.6488 296.701 51.8235 287.228 37.7157C256.141 -8.59356 168.841 -7.79383 106.715 16.1373Z" fill="#E0EDE4"/>
<path d="M250.149 293.985H140.901C136.253 293.985 132.484 290.155 132.484 285.431L143.136 60.2694C143.136 55.5432 146.904 51.7131 151.551 51.7131H260.796C265.443 51.7131 269.211 55.5432 269.211 60.2694L258.565 285.431C258.565 290.155 254.796 293.985 250.149 293.985Z" fill="#181A1E"/>
<path d="M245.649 293.453H136.401C131.753 293.453 127.984 289.639 127.984 284.942L138.636 60.76C138.636 56.0547 142.404 52.2407 147.051 52.2407H256.302C260.95 52.2407 264.717 56.0547 264.717 60.76L254.065 284.935C254.065 289.639 250.296 293.453 245.649 293.453Z" fill="white"/>
<path d="M245.651 293.984H136.403C131.468 293.984 127.455 289.923 127.455 284.933L138.11 60.7323C138.11 55.7669 142.125 51.7072 147.057 51.7072H256.304C261.238 51.7072 265.252 55.7669 265.252 60.758L254.6 284.957C254.599 289.923 250.586 293.984 245.651 293.984ZM147.049 52.7783C142.701 52.7783 139.165 56.361 139.165 60.7644L128.513 284.964C128.513 289.343 132.046 292.926 136.398 292.926H245.646C249.993 292.926 253.529 289.343 253.529 284.94L264.181 60.7387C264.181 56.361 260.648 52.7783 256.298 52.7783H147.049Z" fill="#181A1E"/>
<path d="M178.529 51.7634L181.165 55.6947C181.951 56.87 183.015 57.8334 184.263 58.4997C185.51 59.1661 186.903 59.5148 188.317 59.5151H214.921C216.305 59.5144 217.669 59.18 218.897 58.5401C220.125 57.9002 221.18 56.9737 221.974 55.8392L224.829 51.7634H178.529Z" fill="#181A1E"/>
<path d="M168.858 97.318H154.108C152.673 97.318 151.51 98.4813 151.51 99.9163V99.9276C151.51 101.363 152.673 102.526 154.108 102.526H168.858C170.293 102.526 171.457 101.363 171.457 99.9276V99.9163C171.457 98.4813 170.293 97.318 168.858 97.318Z" fill="#E0EDE4"/>
<path d="M246.843 112.126H153.487C152.052 112.126 150.889 113.289 150.889 114.724V114.735C150.889 116.17 152.052 117.334 153.487 117.334H246.843C248.278 117.334 249.441 116.17 249.441 114.735V114.724C249.441 113.289 248.278 112.126 246.843 112.126Z" fill="#E0EDE4"/>
<path d="M241.995 238.454H148.639C147.204 238.454 146.041 239.617 146.041 241.052V241.063C146.041 242.498 147.204 243.662 148.639 243.662H241.995C243.43 243.662 244.593 242.498 244.593 241.063V241.052C244.593 239.617 243.43 238.454 241.995 238.454Z" fill="#E0EDE4"/>
<path d="M240.765 252.797H147.409C145.974 252.797 144.811 253.96 144.811 255.395V255.407C144.811 256.842 145.974 258.005 147.409 258.005H240.765C242.2 258.005 243.363 256.842 243.363 255.407V255.395C243.363 253.96 242.2 252.797 240.765 252.797Z" fill="#E0EDE4"/>
<path d="M197.754 268.413H147.057C145.622 268.413 144.459 269.577 144.459 271.012V271.023C144.459 272.458 145.622 273.621 147.057 273.621H197.754C199.189 273.621 200.352 272.458 200.352 271.023V271.012C200.352 269.577 199.189 268.413 197.754 268.413Z" fill="#E0EDE4"/>
<path d="M195.175 97.318H180.425C178.989 97.318 177.826 98.4813 177.826 99.9163V99.9276C177.826 101.363 178.989 102.526 180.425 102.526H195.175C196.61 102.526 197.773 101.363 197.773 99.9276V99.9163C197.773 98.4813 196.61 97.318 195.175 97.318Z" fill="#E0EDE4"/>
<path d="M221.503 97.318H206.753C205.318 97.318 204.154 98.4813 204.154 99.9163V99.9276C204.154 101.363 205.318 102.526 206.753 102.526H221.503C222.938 102.526 224.101 101.363 224.101 99.9276V99.9163C224.101 98.4813 222.938 97.318 221.503 97.318Z" fill="#E0EDE4"/>
<path d="M247.827 97.318H233.077C231.642 97.318 230.479 98.4813 230.479 99.9163V99.9276C230.479 101.363 231.642 102.526 233.077 102.526H247.827C249.262 102.526 250.425 101.363 250.425 99.9276V99.9163C250.425 98.4813 249.262 97.318 247.827 97.318Z" fill="#E0EDE4"/>
<path d="M39.6206 90.0383C58.7939 90.0383 74.3369 74.4651 74.3369 55.2546C74.3369 36.044 58.7939 20.4708 39.6206 20.4708C20.4473 20.4708 4.9043 36.044 4.9043 55.2546C4.9043 74.4651 20.4473 90.0383 39.6206 90.0383Z" fill="white"/>
<path d="M39.667 90.5882C33.1323 90.5817 26.7274 88.7631 21.1644 85.3344C15.6015 81.9056 11.0985 77.0012 8.15606 71.1664C-0.600905 53.781 6.38957 32.4996 23.7413 23.7266C27.8747 21.6377 32.3796 20.3846 36.998 20.0391C41.6164 19.6935 46.2576 20.2624 50.6559 21.7131C55.0541 23.1638 59.123 25.4677 62.6296 28.4931C66.1362 31.5185 69.0116 35.2058 71.0912 39.344C79.8482 56.7278 72.8577 78.0092 55.5044 86.7838C50.5971 89.2777 45.1716 90.5809 39.667 90.5882ZM39.5979 20.9853C34.2565 20.9911 28.9917 22.2565 24.2311 24.6789C7.38844 33.1853 0.613155 53.8259 9.10675 70.6879C11.1234 74.7008 13.9119 78.2766 17.3124 81.2104C20.7129 84.1442 24.6587 86.3785 28.9238 87.7853C33.189 89.1921 37.6898 89.7438 42.1685 89.4088C46.6471 89.0738 51.0158 87.8587 55.0242 85.8331C71.8524 77.3218 78.6309 56.6828 70.1405 39.8225C67.2876 34.1652 62.9219 29.4096 57.5287 26.0842C52.1355 22.7588 45.9259 20.9938 39.5899 20.9853H39.5979Z" fill="#181A1E"/>
<path d="M39.6232 86.6874C56.949 86.6874 70.9944 72.6147 70.9944 55.2551C70.9944 37.8956 56.949 23.8229 39.6232 23.8229C22.2973 23.8229 8.25195 37.8956 8.25195 55.2551C8.25195 72.6147 22.2973 86.6874 39.6232 86.6874Z" fill="#B8D9BE"/>
<path d="M39.6209 83.9378C55.431 83.9378 68.2476 71.096 68.2476 55.2548C68.2476 39.4137 55.431 26.5719 39.6209 26.5719C23.8108 26.5719 10.9941 39.4137 10.9941 55.2548C10.9941 71.096 23.8108 83.9378 39.6209 83.9378Z" fill="white"/>
<path d="M39.6497 84.4844C34.2443 84.4771 28.9469 82.971 24.3462 80.1334C19.7455 77.2958 16.0219 73.238 13.5892 68.411C6.34498 54.0302 12.1294 36.4247 26.4829 29.1661C29.9023 27.4382 33.6289 26.4017 37.4494 26.1159C41.2699 25.8302 45.1092 26.3008 48.7476 27.5009C52.3859 28.7009 55.7518 30.6068 58.6526 33.1095C61.5534 35.6121 63.932 38.6624 65.6524 42.0855C72.8966 56.4663 67.1122 74.0718 52.7586 81.3305C48.6977 83.3976 44.2065 84.4781 39.6497 84.4844ZM39.5935 27.0896C35.2034 27.0938 30.8762 28.1331 26.9631 30.1232C13.1315 37.1169 7.55904 54.0816 14.5399 67.9389C16.1972 71.2372 18.4889 74.1761 21.2837 76.5875C24.0784 78.9989 27.3215 80.8352 30.827 81.9915C34.3325 83.1477 38.0316 83.601 41.7126 83.3256C45.3936 83.0501 48.9841 82.0513 52.2785 80.3862C66.1085 73.3893 71.6825 56.4294 64.7017 42.5705C62.357 37.921 58.7691 34.0126 54.3366 31.2797C49.9042 28.5468 44.8008 27.0964 39.5935 27.0896Z" fill="#181A1E"/>
<path d="M74.6606 294C74.1705 293.998 73.6992 293.811 73.3417 293.476C72.9841 293.14 72.7668 292.682 72.7335 292.193C72.5729 289.889 72.642 285.795 74.5675 282.413C74.8171 281.963 75.2011 281.602 75.6657 281.381C76.1304 281.16 76.6526 281.089 77.1594 281.178L85.4812 282.696C85.9097 282.762 86.3482 282.717 86.7539 282.564C87.1597 282.411 87.519 282.155 87.7969 281.822L88.5677 280.796C88.831 280.444 89.207 280.192 89.6332 280.083C90.0595 279.973 90.5103 280.013 90.9107 280.196C94.3971 281.779 103.291 286.189 106.069 291.103C106.234 291.398 106.319 291.731 106.316 292.069C106.313 292.407 106.222 292.739 106.052 293.031C105.881 293.323 105.637 293.565 105.344 293.734C105.051 293.903 104.719 293.992 104.381 293.994L74.6606 294Z" fill="#83B08C"/>
<path d="M101.792 292.098H74.7051C74.5689 292.091 74.4408 292.032 74.3471 291.933C74.2534 291.834 74.2012 291.702 74.2012 291.566C74.2012 291.43 74.2534 291.299 74.3471 291.2C74.4408 291.101 74.5689 291.041 74.7051 291.034H101.792C101.864 291.03 101.937 291.041 102.005 291.066C102.073 291.091 102.135 291.129 102.188 291.179C102.24 291.229 102.282 291.289 102.311 291.355C102.339 291.422 102.354 291.494 102.354 291.566C102.354 291.639 102.339 291.71 102.311 291.777C102.282 291.843 102.24 291.903 102.188 291.953C102.135 292.003 102.073 292.042 102.005 292.067C101.937 292.092 101.864 292.102 101.792 292.098Z" fill="#181A1E"/>
<path d="M89.9175 288.193C89.8189 288.192 89.7223 288.165 89.6386 288.113C89.5548 288.061 89.4871 287.986 89.443 287.898C89.3989 287.81 89.3801 287.711 89.3888 287.613C89.3974 287.515 89.4331 287.421 89.4919 287.342L92.2219 283.671C92.2641 283.615 92.3169 283.567 92.3773 283.532C92.4377 283.496 92.5045 283.473 92.5739 283.463C92.6433 283.453 92.714 283.457 92.7819 283.475C92.8497 283.493 92.9135 283.523 92.9695 283.565C93.0255 283.608 93.0726 283.66 93.1082 283.721C93.1438 283.781 93.1671 283.848 93.1769 283.917C93.1867 283.987 93.1827 284.058 93.1651 284.125C93.1476 284.193 93.1169 284.257 93.0747 284.313L90.3447 287.982C90.2948 288.048 90.2302 288.102 90.156 288.138C90.0818 288.175 90.0002 288.194 89.9175 288.193Z" fill="#181A1E"/>
<path d="M95.5501 289.196C95.4626 289.196 95.3765 289.175 95.2995 289.133C95.1753 289.066 95.0828 288.953 95.0421 288.817C95.0015 288.682 95.0161 288.537 95.0827 288.412L96.3466 286.06C96.4132 285.935 96.5266 285.842 96.6616 285.802C96.7285 285.781 96.7987 285.775 96.8683 285.781C96.9378 285.788 97.0053 285.809 97.0668 285.842C97.1284 285.875 97.1829 285.92 97.2271 285.974C97.2714 286.028 97.3046 286.09 97.3248 286.157C97.345 286.224 97.3518 286.294 97.3449 286.364C97.338 286.433 97.3174 286.501 97.2844 286.562L96.0206 288.916C95.9746 289.001 95.9066 289.072 95.8238 289.121C95.7409 289.17 95.6464 289.196 95.5501 289.196Z" fill="#181A1E"/>
<path d="M8.8151 263.109C9.06562 267.606 10.0725 280.074 13.7452 288.181C13.924 288.569 14.1974 288.906 14.5404 289.162C14.8834 289.417 15.285 289.583 15.7084 289.643C16.1318 289.703 16.5635 289.656 16.964 289.506C17.3645 289.356 17.721 289.108 18.0008 288.784C18.9339 287.686 19.7826 286.518 20.5398 285.292C23.8608 280.055 25.7124 264.378 26.0528 261.246C26.0718 261.077 26.0505 260.905 25.9905 260.745C25.9304 260.585 25.8335 260.442 25.7075 260.326L23.9973 258.748C23.822 258.586 23.6148 258.463 23.3891 258.387C23.1634 258.31 22.9242 258.282 22.6869 258.304C22.4496 258.326 22.2195 258.397 22.0115 258.513C21.8034 258.63 21.6221 258.788 21.4792 258.979L21.1837 259.372C21.1305 259.444 21.0595 259.5 20.9776 259.536C20.8958 259.571 20.8061 259.585 20.7174 259.575C20.6288 259.565 20.5444 259.531 20.4726 259.478C20.4008 259.425 20.3442 259.355 20.3085 259.273L18.8873 256.061C18.7924 255.844 18.6543 255.649 18.4813 255.487C18.3084 255.326 18.1042 255.201 17.8814 255.121C17.6586 255.041 17.4218 255.007 17.1855 255.022C16.9493 255.037 16.7185 255.1 16.5073 255.207C14.0611 256.481 11.8375 258.144 9.92317 260.13C9.5425 260.523 9.24748 260.991 9.05675 261.504C8.86602 262.016 8.78374 262.563 8.8151 263.109Z" fill="#83B08C"/>
<path d="M16.6057 288.051C16.4967 288.051 16.3903 288.017 16.301 287.955C16.2117 287.892 16.1437 287.804 16.1063 287.701C11.9711 276.375 11.1103 261.258 11.1023 261.106C11.0986 261.036 11.1087 260.966 11.132 260.9C11.1553 260.834 11.1914 260.774 11.2381 260.722C11.2849 260.67 11.3414 260.628 11.4045 260.597C11.4676 260.567 11.5359 260.55 11.6058 260.546C11.7467 260.539 11.8849 260.588 11.9898 260.682C12.0948 260.777 12.158 260.909 12.1654 261.05C12.1654 261.199 13.0262 276.164 17.1068 287.337C17.1305 287.403 17.141 287.473 17.1378 287.542C17.1345 287.612 17.1174 287.681 17.0876 287.744C17.0578 287.808 17.0157 287.865 16.9639 287.912C16.9121 287.959 16.8515 287.995 16.7856 288.019C16.7278 288.04 16.667 288.05 16.6057 288.051Z" fill="#181A1E"/>
<path d="M22.8504 276.441C22.8296 276.442 22.8086 276.442 22.7878 276.441L18.1564 275.907C18.0163 275.891 17.8883 275.82 17.8007 275.709C17.713 275.599 17.6729 275.458 17.6891 275.318C17.7052 275.178 17.7764 275.05 17.887 274.962C17.9975 274.875 18.1383 274.834 18.2784 274.851L22.9098 275.384C23.045 275.399 23.1694 275.465 23.2572 275.569C23.3451 275.673 23.3898 275.806 23.3822 275.942C23.3746 276.078 23.3152 276.205 23.2163 276.299C23.1174 276.392 22.9864 276.444 22.8504 276.444V276.441Z" fill="#181A1E"/>
<path d="M23.3838 271.049C23.3629 271.05 23.342 271.05 23.3212 271.049L17.5078 270.376C17.4358 270.371 17.3655 270.352 17.3012 270.319C17.2369 270.286 17.1799 270.241 17.1337 270.186C17.0875 270.13 17.0529 270.066 17.0322 269.997C17.0115 269.928 17.005 269.855 17.0132 269.784C17.0213 269.712 17.044 269.643 17.0797 269.58C17.1154 269.517 17.1635 269.462 17.221 269.419C17.2785 269.375 17.3442 269.344 17.4142 269.326C17.4842 269.309 17.557 269.306 17.6282 269.318L23.4496 269.987C23.5827 270.005 23.7043 270.072 23.7898 270.176C23.8754 270.279 23.9188 270.411 23.9113 270.545C23.9038 270.68 23.846 270.806 23.7494 270.899C23.6527 270.992 23.5245 271.046 23.3902 271.049H23.3838Z" fill="#181A1E"/>
<path d="M98.5588 172.402C98.5588 172.402 100.075 183.845 96.6141 216.259C95.9986 221.973 94.8008 227.609 93.0393 233.079C90.8312 239.96 89.129 251.934 89.0101 277.366C88.9957 280.418 87.6435 283.03 85.5799 284.032C82.4966 285.534 77.3899 285.919 77.2839 278.947C77.1233 267.68 73.3253 242.171 74.1283 231.72C74.9312 221.269 69.8887 179.063 78.3502 174.611C86.8117 170.16 98.5588 172.402 98.5588 172.402Z" fill="#181A1E"/>
<path d="M61.8683 170.106C61.8683 170.106 50.8085 204.199 48.231 219.651C48.231 219.651 48.4254 223.864 42.8176 227.941C37.2098 232.018 34.5135 226.126 18.5075 253.272C18.5075 253.272 15.5414 261.067 20.8649 263.675C21.8734 264.168 23.0698 263.846 23.8985 262.856C27.7526 258.256 36.1964 249.142 46.4324 243.872C58.6838 237.562 59.922 234.148 66.5897 221.053C73.2574 207.959 87.1114 187.985 87.7972 182.528C88.4829 177.071 61.8683 170.106 61.8683 170.106Z" fill="#181A1E"/>
<path d="M73.026 211.116C72.9332 211.115 72.842 211.091 72.7615 211.045C72.681 210.998 72.614 210.932 72.5671 210.852C72.5202 210.772 72.4951 210.681 72.4942 210.588C72.4933 210.495 72.5166 210.403 72.5619 210.322C76.6714 202.99 78.7751 199.741 83.0918 197.096C83.1514 197.06 83.2175 197.035 83.2865 197.024C83.3556 197.013 83.426 197.016 83.494 197.033C83.5619 197.049 83.6259 197.078 83.6824 197.12C83.7389 197.161 83.7868 197.212 83.8233 197.272C83.8598 197.332 83.8842 197.398 83.8951 197.467C83.906 197.536 83.9032 197.606 83.8869 197.674C83.8705 197.742 83.841 197.806 83.7999 197.863C83.7588 197.919 83.707 197.967 83.6474 198.003C79.546 200.517 77.5049 203.684 73.4917 210.851C73.4444 210.932 73.3764 210.999 73.2946 211.046C73.2128 211.092 73.1201 211.116 73.026 211.116Z" fill="#E0EDE4"/>
<path d="M59.6063 186.084C59.4675 186.088 59.3328 186.037 59.2309 185.943C59.129 185.849 59.0681 185.718 59.0612 185.58C59.0543 185.441 59.1019 185.305 59.1939 185.201C59.2858 185.097 59.4149 185.033 59.5533 185.023C67.6021 184.22 69.4232 179.64 69.4408 179.593C69.496 179.469 69.5969 179.37 69.7228 179.317C69.8486 179.264 69.9899 179.262 70.1175 179.31C70.2451 179.359 70.3493 179.454 70.4086 179.577C70.468 179.7 70.4779 179.841 70.4365 179.971C70.3562 180.184 68.3569 185.211 59.6593 186.073C59.642 186.078 59.6243 186.082 59.6063 186.084Z" fill="#E0EDE4"/>
<path d="M96.8843 192.215C96.7791 192.214 96.6763 192.183 96.5888 192.125C92.7491 189.555 92.8583 184.148 92.8648 183.92C92.875 183.783 92.9374 183.656 93.0391 183.564C93.1408 183.472 93.2739 183.423 93.4109 183.427C93.5478 183.431 93.6781 183.487 93.7747 183.584C93.8712 183.681 93.9266 183.812 93.9295 183.949C93.9295 183.999 93.8347 189.006 97.1798 191.24C97.2752 191.303 97.3477 191.395 97.3865 191.503C97.4252 191.61 97.4283 191.728 97.3951 191.837C97.3619 191.947 97.2943 192.043 97.2022 192.111C97.1102 192.178 96.9987 192.215 96.8843 192.215Z" fill="#E0EDE4"/>
<path d="M43.5106 92.3236L45.3542 88.357C45.9727 87.0256 46.0493 85.5059 45.5678 84.119L43.9619 79.5085C43.9619 79.5085 42.6466 78.9529 42.1392 81.6444C41.6317 84.3358 42.6306 86.9213 40.6296 88.4807C38.6287 90.04 34.1562 89.926 34.1562 89.926L35.4683 91.6828C36.2134 92.6801 36.5346 95.1484 36.5346 95.1484L36.7755 99.8392C36.7755 99.8392 40.7003 98.752 43.0224 97.9217L42.9646 96.0059C42.9646 96.0059 42.9919 93.4381 43.5106 92.3236Z" fill="white"/>
<path d="M36.2746 100.529L36.0096 95.199C35.9197 94.5326 35.5824 92.7211 35.046 92.0033L33.082 89.3712L34.1773 89.3985C34.2206 89.3985 38.4859 89.4852 40.3102 88.0624C41.4343 87.1824 41.4343 85.8993 41.4423 84.2741C41.4161 83.3604 41.4769 82.4463 41.6238 81.5441C41.8631 80.2802 42.3159 79.4564 42.9728 79.1079C43.1552 79.0071 43.3571 78.9467 43.5649 78.9306C43.7726 78.9145 43.9814 78.9432 44.1772 79.0148L44.3956 79.1079L46.0737 83.9417C46.6038 85.4583 46.5203 87.122 45.8409 88.5779L43.9957 92.5461C43.6103 93.3747 43.5059 95.3275 43.4995 96.0084L43.5669 98.2904L43.2024 98.4205C40.8899 99.2475 36.9587 100.348 36.9185 100.348L36.2746 100.529ZM35.2098 90.444L35.8988 91.3674C36.7017 92.4433 37.0325 94.8152 37.0679 95.0818V95.1252L37.2686 99.1399C38.3927 98.8187 40.7646 98.133 42.4733 97.5436L42.4284 96.0148C42.4284 95.7193 42.4733 93.2848 43.0241 92.0948L44.8693 88.1267C45.4313 86.9213 45.5005 85.5441 45.062 84.2886L43.5734 80.0008C43.5303 80.0137 43.4888 80.0315 43.4497 80.0538C43.2538 80.1694 42.8893 80.5356 42.6628 81.7384C42.5303 82.5751 42.4765 83.4225 42.5022 84.2693C42.5022 85.9539 42.5022 87.6963 40.9606 88.8943C39.4189 90.0923 36.7146 90.3765 35.2098 90.4456V90.444Z" fill="#181A1E"/>
<path d="M84.1642 106.055L83.1091 110.084L78.5291 108.939C78.1437 108.843 77.7647 108.724 77.3841 108.609C72.3014 107.065 67.678 108.805 63.5268 111.633L47.5352 124.094L45.5423 101.233L45.0814 97.9937C44.9096 95.8787 40.6026 96.8085 38.3752 97.5296C36.9476 97.9905 34.7041 99.1001 34.4584 100.581L34.2737 104.005C34.2737 104.005 33.262 135.713 37.4968 139.249C42.361 143.309 52.764 139.879 57.662 137.908C58.0554 137.752 58.4771 137.681 58.8999 137.699C59.3226 137.717 59.7368 137.823 60.1156 138.012C60.4943 138.201 60.8291 138.467 61.0981 138.794C61.3671 139.12 61.5643 139.5 61.6768 139.908C62.7848 143.908 63.6344 152.329 60.0163 168.493C60.0163 168.493 58.9355 170.503 60.9413 173.288C60.9413 173.288 75.7621 180.404 87.1849 181.33C98.6076 182.257 100.617 177.927 100.617 176.537C100.617 175.146 99.099 161.02 100.18 154.989C100.655 152.317 101.625 149.757 103.04 147.441C103.785 146.228 109.274 156.906 117.356 163.153C131.087 173.766 141.525 173.484 144.175 173.196C144.373 173.174 144.563 173.101 144.725 172.985C144.887 172.868 145.017 172.712 145.102 172.531L148.721 164.847C148.797 164.688 148.835 164.513 148.834 164.336C148.833 164.16 148.791 163.986 148.713 163.828C148.635 163.669 148.522 163.531 148.383 163.422C148.243 163.314 148.081 163.238 147.909 163.201C143.932 162.348 132.717 158.982 124.973 147.189C119.2 138.396 115.59 129.863 111.58 123.937C109.748 121.228 105.95 118.376 103.801 116.885C103.374 116.592 103.072 116.148 102.955 115.643C102.838 115.138 102.915 114.607 103.17 114.155L103.584 113.417C103.801 113.03 103.889 112.584 103.834 112.144C103.779 111.704 103.585 111.293 103.279 110.971C101.192 108.761 96.0526 104.066 89.1473 102.8C86.9825 102.42 84.7278 103.9 84.1642 106.055Z" fill="white"/>
<path d="M90.1974 182.003C89.2627 182.003 88.2494 181.962 87.1462 181.872C75.7571 180.947 60.8656 173.843 60.7163 173.779L60.5942 173.719L60.5139 173.61C58.5339 170.861 59.3192 168.755 59.5135 168.328C63.0143 152.661 62.3463 144.306 61.1691 140.055C61.0769 139.718 60.9146 139.405 60.693 139.135C60.4713 138.866 60.1953 138.646 59.8828 138.491C59.5704 138.335 59.2287 138.247 58.88 138.233C58.5313 138.219 58.1836 138.278 57.8594 138.407C52.2612 140.655 42.1216 143.814 37.1546 139.661C32.8443 136.063 33.636 107.264 33.7404 103.993L33.9315 100.498C34.28 98.3946 37.5576 97.2352 38.2096 97.0232C39.3514 96.6555 43.1975 95.5377 44.8388 96.6314C45.0622 96.7769 45.2483 96.9729 45.3819 97.2036C45.5155 97.4343 45.593 97.6932 45.608 97.9594L46.0657 101.171L47.9735 123.087L63.2022 111.227C68.3122 107.744 72.9982 106.731 77.5413 108.114L77.6698 108.154C78.0102 108.256 78.333 108.354 78.6622 108.436L82.7235 109.454L83.6469 105.934C84.2893 103.487 86.8041 101.86 89.2547 102.31C96.3897 103.614 101.715 108.573 103.672 110.638C104.056 111.039 104.3 111.553 104.371 112.103C104.441 112.654 104.333 113.212 104.063 113.697L103.648 114.436C103.459 114.771 103.402 115.165 103.489 115.54C103.576 115.916 103.8 116.245 104.117 116.463C106.266 117.951 110.149 120.864 112.036 123.652C113.923 126.44 115.771 129.896 117.716 133.533C119.905 137.628 122.384 142.269 125.424 146.91C132.972 158.401 143.744 161.776 148.027 162.693C148.278 162.747 148.514 162.858 148.716 163.016C148.918 163.173 149.082 163.375 149.196 163.605C149.31 163.835 149.37 164.088 149.372 164.345C149.374 164.602 149.319 164.855 149.209 165.088L145.59 172.772C145.467 173.035 145.277 173.262 145.041 173.431C144.804 173.6 144.528 173.705 144.239 173.735C141.348 174.049 130.823 174.244 117.034 163.584C112.184 159.836 108.305 154.579 105.739 151.099C104.787 149.814 103.812 148.479 103.318 148.025C102.037 150.208 101.153 152.6 100.706 155.091C99.8649 159.793 100.623 169.486 100.987 174.145C101.085 175.402 101.148 176.233 101.148 176.546C101.148 177.254 100.756 178.373 99.6593 179.385C98.3088 180.639 95.59 182.003 90.1974 182.003ZM61.3024 172.876C62.7477 173.559 76.589 179.942 87.2345 180.811C94.3117 181.386 97.5122 179.928 98.9447 178.604C99.7894 177.824 100.09 177.008 100.09 176.547C100.09 176.276 100.019 175.373 99.9291 174.23C99.5614 169.526 98.7953 159.742 99.6625 154.905C100.152 152.169 101.145 149.548 102.592 147.175C102.652 147.074 102.737 146.989 102.838 146.928C102.94 146.868 103.055 146.834 103.173 146.829C103.849 146.803 104.541 147.681 106.6 150.471C109.131 153.903 112.956 159.088 117.689 162.746C131.162 173.162 141.331 172.984 144.128 172.68C144.236 172.668 144.339 172.628 144.426 172.564C144.514 172.501 144.584 172.416 144.629 172.317L148.249 164.635C148.291 164.547 148.313 164.452 148.313 164.354C148.313 164.257 148.291 164.162 148.249 164.074C148.207 163.988 148.145 163.913 148.07 163.854C147.994 163.796 147.906 163.755 147.812 163.735C143.401 162.79 132.302 159.314 124.543 147.495C121.469 142.814 118.977 138.15 116.777 134.036C114.849 130.423 113.022 127.01 111.156 124.25C109.365 121.605 105.6 118.79 103.513 117.344C102.977 116.976 102.599 116.421 102.452 115.787C102.306 115.154 102.402 114.488 102.722 113.922L103.136 113.183C103.298 112.895 103.364 112.563 103.323 112.235C103.282 111.907 103.136 111.601 102.908 111.362C101.011 109.361 95.8919 104.592 89.0668 103.344C87.1815 102.997 85.1741 104.308 84.6795 106.191L83.4911 110.73L78.4069 109.456C78.0503 109.368 77.7019 109.262 77.363 109.159L77.2362 109.12C72.9564 107.82 68.6976 108.758 63.8333 112.074L47.087 125.117L45.0122 101.279L44.5529 98.067C44.5524 97.9569 44.5244 97.8487 44.4714 97.7522C44.4184 97.6558 44.3421 97.5741 44.2494 97.5146C43.3244 96.8979 40.7164 97.3315 38.5404 98.0349C36.9651 98.544 35.1905 99.575 34.9882 100.645L34.8051 104.036C34.5273 112.774 34.5273 136.08 37.8387 138.844C42.5552 142.783 53.1348 139.165 57.4627 137.42C57.926 137.235 58.4231 137.15 58.9215 137.17C59.4199 137.19 59.9084 137.315 60.3552 137.537C60.8019 137.759 61.1969 138.073 61.5142 138.457C61.8316 138.842 62.0642 139.29 62.1969 139.771C63.4078 144.143 64.1047 152.7 60.5412 168.621L60.5252 168.691L60.4899 168.755C60.4561 168.821 59.6371 170.483 61.3024 172.876Z" fill="#181A1E"/>
<path d="M90.589 121.038C90.515 121.038 90.4417 121.023 90.3739 120.993C90.3061 120.963 90.2454 120.92 90.1956 120.865C84.0932 114.187 85.3779 107.266 85.4309 106.975C85.4444 106.907 85.4713 106.842 85.51 106.783C85.5487 106.725 85.5984 106.675 85.6564 106.636C85.7145 106.597 85.7796 106.57 85.848 106.557C85.9165 106.543 85.9871 106.543 86.0556 106.556C86.1241 106.57 86.1893 106.597 86.2475 106.635C86.3057 106.674 86.3556 106.724 86.3945 106.782C86.4335 106.84 86.4606 106.905 86.4743 106.973C86.4881 107.042 86.4882 107.112 86.4747 107.181C86.4603 107.261 85.2591 113.889 90.9809 120.147C91.05 120.223 91.0956 120.318 91.1122 120.419C91.1287 120.521 91.1154 120.625 91.074 120.72C91.0325 120.814 90.9647 120.894 90.8786 120.951C90.7926 121.007 90.692 121.038 90.589 121.038Z" fill="#181A1E"/>
<path d="M88.3352 129.916C88.2112 129.917 88.0908 129.874 87.995 129.796C87.8991 129.717 87.8338 129.607 87.8104 129.485C87.7869 129.364 87.8068 129.237 87.8666 129.129C87.9264 129.02 88.0223 128.936 88.1377 128.89C88.1521 128.89 89.7436 128.235 92.1026 126.595C96.5012 123.832 100.463 118.291 100.503 118.235C100.585 118.12 100.709 118.042 100.848 118.019C100.987 117.995 101.13 118.028 101.245 118.11C101.36 118.192 101.438 118.316 101.461 118.455C101.485 118.594 101.452 118.737 101.37 118.852C101.21 119.086 97.2447 124.622 92.6888 127.483C90.2398 129.186 88.6018 129.851 88.5327 129.878C88.4699 129.903 88.4029 129.916 88.3352 129.916Z" fill="#181A1E"/>
<path d="M82.612 165.779C82.5105 165.778 82.4113 165.749 82.326 165.694C82.2407 165.639 82.1729 165.56 82.1306 165.468C82.0883 165.376 82.0732 165.273 82.087 165.173C82.1009 165.072 82.1432 164.978 82.2089 164.9C86.6412 159.723 88.1331 157.979 90.3653 152.437C90.4179 152.306 90.5204 152.201 90.6502 152.146C90.78 152.091 90.9265 152.089 91.0574 152.142C91.1884 152.194 91.2931 152.297 91.3485 152.426C91.4039 152.556 91.4055 152.703 91.3529 152.834C89.0565 158.538 87.5341 160.316 83.0167 165.593C82.967 165.651 82.9049 165.698 82.835 165.731C82.7651 165.763 82.689 165.779 82.612 165.779Z" fill="#181A1E"/>
<path d="M72.3822 168.565C72.2728 168.565 72.1663 168.531 72.077 168.467C71.9877 168.404 71.92 168.315 71.883 168.212C71.846 168.11 71.8416 167.998 71.8702 167.892C71.8989 167.787 71.9593 167.693 72.0433 167.623C82.6214 158.867 92.2985 138.235 92.3949 138.024C92.4208 137.956 92.4606 137.893 92.5119 137.84C92.5631 137.788 92.6247 137.747 92.6927 137.719C92.7606 137.691 92.8336 137.678 92.907 137.68C92.9803 137.682 93.0525 137.699 93.1191 137.73C93.1856 137.761 93.245 137.805 93.2935 137.86C93.342 137.915 93.3787 137.98 93.4012 138.05C93.4236 138.119 93.4314 138.193 93.4241 138.266C93.4167 138.339 93.3944 138.41 93.3584 138.474C93.2604 138.683 83.4837 159.534 72.7194 168.442C72.6253 168.522 72.5057 168.565 72.3822 168.565Z" fill="#181A1E"/>
<path d="M148.36 165.765C148.36 165.765 153.708 164.651 155.54 163.734C157.372 162.817 157.995 163.756 158.082 164.285C158.157 164.742 156.354 166.298 154.533 166.88C154.49 166.883 154.451 166.904 154.424 166.937C154.396 166.97 154.383 167.012 154.387 167.055C154.391 167.097 154.411 167.137 154.444 167.164C154.477 167.191 154.519 167.205 154.562 167.201C156.243 167.426 158.307 168.307 161.612 167.201C163.876 166.438 165.927 168.259 165.689 170.053C165.394 172.283 158.662 179.264 145.725 171.583L148.36 165.765Z" fill="white"/>
<path d="M156.688 175.609C153.797 175.609 150.049 174.764 145.447 172.034L145.037 171.792L147.981 165.301L148.246 165.246C148.299 165.235 153.545 164.135 155.296 163.258C156.275 162.776 157.094 162.683 157.732 163.009C157.959 163.126 158.156 163.295 158.307 163.501C158.458 163.708 158.558 163.947 158.601 164.199C158.727 164.98 157.266 166.166 155.846 166.897C157.319 167.197 158.996 167.51 161.435 166.69C162.035 166.481 162.679 166.429 163.306 166.54C163.932 166.651 164.519 166.92 165.011 167.323C165.896 168.052 166.344 169.089 166.211 170.117C166.05 171.323 164.55 173.248 162.087 174.443C160.908 175.015 159.106 175.609 156.688 175.609ZM146.41 171.36C154.202 175.842 159.28 174.626 161.632 173.486C163.868 172.4 165.061 170.756 165.165 169.976C165.251 169.333 164.937 168.631 164.346 168.145C163.994 167.853 163.572 167.658 163.121 167.58C162.67 167.501 162.207 167.542 161.777 167.698C159.013 168.63 157.086 168.236 155.538 167.92C155.166 167.844 154.814 167.772 154.488 167.729C154.331 167.708 154.185 167.635 154.075 167.52C153.966 167.406 153.898 167.257 153.884 167.099C153.87 166.942 153.91 166.784 153.998 166.652C154.086 166.52 154.216 166.421 154.367 166.373C155.941 165.872 157.303 164.686 157.533 164.294C157.487 164.149 157.386 164.028 157.252 163.957C156.942 163.796 156.418 163.889 155.776 164.21C154.12 165.039 149.85 165.99 148.731 166.232L146.41 171.36Z" fill="#181A1E"/>
<path d="M98.9787 105.469C99.6341 105.598 100.308 105.596 100.963 105.464C101.618 105.332 102.24 105.072 102.794 104.699C103.349 104.326 103.824 103.847 104.193 103.29C104.562 102.734 104.817 102.11 104.945 101.454L106.435 93.8901C106.682 92.6396 106.427 91.3419 105.724 90.2786C105.02 89.2152 103.926 88.472 102.679 88.2101L101.755 88.0174C100.999 87.8608 100.217 87.8866 99.473 88.0927C98.729 88.2988 98.0448 88.6793 97.4772 89.2025L95.3205 91.181C95.1643 91.3249 94.9654 91.4138 94.754 91.4341C94.5427 91.4543 94.3305 91.405 94.1498 91.2934C93.6536 90.9835 92.9229 90.6511 92.2998 90.9176C91.2431 91.356 89.7014 95.2776 93.2874 96.6989L89.6886 106.047C89.6886 106.047 86.9168 111.333 92.7398 113.113C98.5628 114.892 98.9787 105.469 98.9787 105.469Z" fill="white"/>
<path d="M94.1469 113.879C93.6192 113.874 93.0952 113.79 92.5924 113.63C90.6926 113.055 89.4352 112.046 88.8538 110.646C87.9433 108.465 89.0498 106.127 89.2023 105.828L92.6117 96.9686C90.8195 96.0517 90.524 94.5437 90.516 93.6862C90.5031 92.3035 91.2434 90.7795 92.0978 90.4246C92.7562 90.1516 93.5639 90.2945 94.4343 90.8405C94.5162 90.8902 94.6121 90.9118 94.7074 90.9023C94.8027 90.8927 94.8923 90.8525 94.9627 90.7875L97.1194 88.8058C97.7505 88.2279 98.5098 87.8082 99.3348 87.5812C100.16 87.3542 101.027 87.3265 101.865 87.5002L102.788 87.693C104.172 87.9855 105.385 88.8103 106.167 89.9895C106.948 91.1687 107.234 92.6077 106.964 93.9961L105.473 101.56C105.205 102.919 104.444 104.131 103.337 104.964C102.23 105.796 100.854 106.19 99.4737 106.071C99.3291 107.572 98.7381 111.531 96.4337 113.154C95.7674 113.632 94.9666 113.886 94.1469 113.879ZM92.7963 91.3544C92.6973 91.3528 92.5989 91.3714 92.5073 91.409C92.2182 91.5278 91.571 92.509 91.5807 93.6781C91.5887 94.4811 91.9243 95.5811 93.4853 96.1962L93.9751 96.3905L90.1594 106.294C90.1498 106.313 89.0739 108.425 89.8383 110.248C90.2927 111.332 91.3253 112.128 92.9055 112.612C94.0554 112.965 95.0076 112.859 95.8122 112.29C98.2034 110.599 98.4411 105.498 98.4411 105.446L98.4667 104.826L99.0754 104.947C99.6617 105.062 100.265 105.061 100.851 104.943C101.437 104.825 101.993 104.593 102.489 104.26C102.985 103.927 103.411 103.499 103.742 103.001C104.072 102.504 104.302 101.946 104.417 101.359L105.907 93.7954C106.123 92.6827 105.894 91.5295 105.269 90.584C104.644 89.6385 103.672 88.9763 102.563 88.74L101.642 88.5473C100.969 88.4077 100.273 88.4298 99.6108 88.6118C98.9486 88.7938 98.339 89.1306 97.8324 89.5943L95.6757 91.5728C95.4337 91.7954 95.1254 91.9327 94.7981 91.9637C94.4707 91.9948 94.1422 91.9178 93.8626 91.7446C93.6137 91.584 93.1801 91.3544 92.7963 91.3544Z" fill="#181A1E"/>
<path d="M98.9704 105.998C98.9326 105.998 98.8949 105.994 98.858 105.987C98.5015 105.91 95.3555 105.166 94.7629 102.568C94.7377 102.432 94.7659 102.292 94.8416 102.177C94.9173 102.062 95.0346 101.981 95.1689 101.95C95.3033 101.92 95.4443 101.942 95.5623 102.013C95.6803 102.085 95.7662 102.199 95.8019 102.332C96.2548 104.318 98.9656 104.92 99.0812 104.944C99.2088 104.973 99.3216 105.047 99.3979 105.154C99.4743 105.26 99.5089 105.39 99.4952 105.521C99.4815 105.651 99.4205 105.771 99.3237 105.859C99.2269 105.947 99.1012 105.997 98.9704 105.998Z" fill="#181A1E"/>
<path d="M91.5562 90.9603L91.1387 84.845C91.2392 83.5562 91.7736 82.3396 92.6548 81.3937C93.5359 80.4478 94.7116 79.8286 95.9901 79.6371L103.607 78.5001C103.787 78.4734 103.971 78.4886 104.145 78.5446C104.318 78.6006 104.476 78.6958 104.607 78.8229C104.738 78.95 104.837 79.1055 104.898 79.2774C104.959 79.4492 104.979 79.6328 104.957 79.8138C104.936 79.9949 104.956 80.1786 105.017 80.3506C105.078 80.5226 105.177 80.6782 105.308 80.8053C105.439 80.9325 105.598 81.0277 105.771 81.0835C105.945 81.1394 106.129 81.1544 106.31 81.1274L109.78 80.6022C110.008 80.5682 110.242 80.6015 110.451 80.6981C110.661 80.7947 110.838 80.9504 110.961 81.1461C111.083 81.3418 111.146 81.569 111.141 81.7999C111.137 82.0307 111.065 82.2552 110.935 82.4458L110.727 82.7493C110.625 82.8984 110.559 83.0688 110.533 83.2476C110.506 83.4263 110.521 83.6087 110.576 83.7808C110.631 83.9528 110.725 84.1101 110.85 84.2405C110.975 84.371 111.128 84.4712 111.298 84.5335L113.883 85.5227C114.083 85.5965 114.26 85.7228 114.394 85.8885C114.529 86.0541 114.617 86.2529 114.648 86.464C114.679 86.6751 114.653 86.8907 114.572 87.0882C114.491 87.2857 114.358 87.4577 114.188 87.5863L106.766 92.7252C106.766 92.7252 106.141 87.6104 101.126 87.8818C98.5868 88.0183 96.6292 89.7687 95.7444 91.0791C95.4007 91.5834 94.7375 92.4811 93.9056 91.5513C93.9056 91.5481 94.6989 89.5583 91.5562 90.9603Z" fill="#181A1E"/>
<path d="M278.245 223.818L177.597 229.423C174.377 229.601 171.768 226.948 171.768 223.494V149.713C171.768 146.258 174.377 143.315 177.597 143.128L278.245 137.525C281.457 137.346 284.073 140 284.073 143.453V217.236C284.073 220.695 281.463 223.64 278.245 223.818Z" fill="#83B08C"/>
<path d="M177.291 229.966C175.788 229.969 174.342 229.39 173.255 228.351C172.608 227.72 172.095 226.965 171.748 226.131C171.401 225.296 171.227 224.4 171.237 223.496V149.716C171.237 145.991 174.078 142.801 177.569 142.607L278.215 137.004C279.015 136.957 279.816 137.076 280.569 137.352C281.321 137.628 282.008 138.056 282.588 138.61C283.236 139.24 283.749 139.996 284.096 140.83C284.443 141.665 284.616 142.561 284.607 143.465V217.248C284.607 220.972 281.766 224.153 278.275 224.355L177.625 229.966C177.513 229.966 177.402 229.966 177.291 229.966ZM278.551 138.058C278.459 138.058 278.368 138.058 278.275 138.058L177.627 143.661C174.691 143.821 172.301 146.537 172.301 149.707V223.488C172.291 224.247 172.436 225 172.725 225.702C173.015 226.404 173.444 227.039 173.986 227.57C174.46 228.024 175.024 228.376 175.64 228.602C176.257 228.828 176.913 228.925 177.569 228.886L278.215 223.281C281.152 223.12 283.542 220.406 283.542 217.236V143.463C283.552 142.704 283.407 141.951 283.117 141.25C282.828 140.548 282.398 139.913 281.856 139.382C280.966 138.531 279.781 138.057 278.549 138.059L278.551 138.058Z" fill="#181A1E"/>
<path d="M276.238 144.921H181.611C175.732 144.921 170.967 149.686 170.967 155.565V220.565C170.967 226.443 175.732 231.209 181.611 231.209H276.238C282.117 231.209 286.882 226.443 286.882 220.565V155.565C286.882 149.686 282.117 144.921 276.238 144.921Z" fill="#83B08C"/>
<path d="M276.237 231.741H181.611C178.647 231.737 175.807 230.558 173.711 228.463C171.616 226.368 170.437 223.527 170.434 220.564V155.565C170.437 152.602 171.616 149.761 173.711 147.666C175.806 145.57 178.647 144.392 181.611 144.388H276.237C279.2 144.392 282.041 145.57 284.136 147.666C286.232 149.761 287.41 152.602 287.414 155.565V220.564C287.41 223.527 286.232 226.368 284.136 228.464C282.041 230.559 279.2 231.738 276.237 231.741ZM181.611 145.453C178.927 145.453 176.354 146.519 174.457 148.416C172.559 150.314 171.493 152.887 171.493 155.57V220.569C171.493 223.252 172.559 225.825 174.457 227.723C176.354 229.62 178.927 230.686 181.611 230.686H276.237C278.92 230.686 281.493 229.62 283.39 227.723C285.288 225.825 286.354 223.252 286.354 220.569V155.565C286.354 152.882 285.288 150.309 283.39 148.411C281.493 146.514 278.92 145.448 276.237 145.448L181.611 145.453Z" fill="#181A1E"/>
<path d="M276.206 228.823H271.949C271.877 228.827 271.804 228.816 271.736 228.791C271.668 228.766 271.606 228.728 271.553 228.678C271.501 228.628 271.459 228.568 271.43 228.501C271.401 228.435 271.387 228.363 271.387 228.291C271.387 228.218 271.401 228.146 271.43 228.08C271.459 228.013 271.501 227.953 271.553 227.903C271.606 227.854 271.668 227.815 271.736 227.79C271.804 227.765 271.877 227.754 271.949 227.758H276.206C276.342 227.766 276.47 227.825 276.564 227.924C276.658 228.023 276.71 228.154 276.71 228.291C276.71 228.427 276.658 228.558 276.564 228.657C276.47 228.756 276.342 228.816 276.206 228.823ZM267.695 228.823H263.433C263.36 228.827 263.288 228.816 263.22 228.791C263.152 228.766 263.09 228.728 263.037 228.678C262.984 228.628 262.943 228.568 262.914 228.501C262.885 228.435 262.87 228.363 262.87 228.291C262.87 228.218 262.885 228.146 262.914 228.08C262.943 228.013 262.984 227.953 263.037 227.903C263.09 227.854 263.152 227.815 263.22 227.79C263.288 227.765 263.36 227.754 263.433 227.758H267.69C267.762 227.754 267.835 227.765 267.903 227.79C267.971 227.815 268.033 227.854 268.086 227.903C268.138 227.953 268.18 228.013 268.209 228.08C268.238 228.146 268.252 228.218 268.252 228.291C268.252 228.363 268.238 228.435 268.209 228.501C268.18 228.568 268.138 228.628 268.086 228.678C268.033 228.728 267.971 228.766 267.903 228.791C267.835 228.816 267.762 228.827 267.69 228.823H267.695ZM259.184 228.823H254.926C254.79 228.816 254.662 228.756 254.568 228.657C254.475 228.558 254.423 228.427 254.423 228.291C254.423 228.154 254.475 228.023 254.568 227.924C254.662 227.825 254.79 227.766 254.926 227.758H259.184C259.256 227.754 259.328 227.765 259.396 227.79C259.465 227.815 259.527 227.854 259.579 227.903C259.632 227.953 259.674 228.013 259.703 228.08C259.731 228.146 259.746 228.218 259.746 228.291C259.746 228.363 259.731 228.435 259.703 228.501C259.674 228.568 259.632 228.628 259.579 228.678C259.527 228.728 259.465 228.766 259.396 228.791C259.328 228.816 259.256 228.827 259.184 228.823ZM250.672 228.823H246.414C246.277 228.816 246.149 228.756 246.056 228.657C245.962 228.558 245.91 228.427 245.91 228.291C245.91 228.154 245.962 228.023 246.056 227.924C246.149 227.825 246.277 227.766 246.414 227.758H250.672C250.809 227.766 250.937 227.825 251.03 227.924C251.124 228.023 251.176 228.154 251.176 228.291C251.176 228.427 251.124 228.558 251.03 228.657C250.937 228.756 250.809 228.816 250.672 228.823ZM242.161 228.823H237.902C237.766 228.816 237.638 228.756 237.544 228.657C237.451 228.558 237.398 228.427 237.398 228.291C237.398 228.154 237.451 228.023 237.544 227.924C237.638 227.825 237.766 227.766 237.902 227.758H242.161C242.297 227.766 242.425 227.825 242.519 227.924C242.613 228.023 242.665 228.154 242.665 228.291C242.665 228.427 242.613 228.558 242.519 228.657C242.425 228.756 242.297 228.816 242.161 228.823ZM233.65 228.823H229.393C229.32 228.827 229.248 228.816 229.18 228.791C229.112 228.766 229.05 228.728 228.997 228.678C228.944 228.628 228.902 228.568 228.874 228.501C228.845 228.435 228.83 228.363 228.83 228.291C228.83 228.218 228.845 228.146 228.874 228.08C228.902 228.013 228.944 227.953 228.997 227.903C229.05 227.854 229.112 227.815 229.18 227.79C229.248 227.765 229.32 227.754 229.393 227.758H233.65C233.786 227.766 233.914 227.825 234.008 227.924C234.102 228.023 234.154 228.154 234.154 228.291C234.154 228.427 234.102 228.558 234.008 228.657C233.914 228.756 233.786 228.816 233.65 228.823ZM225.139 228.823H220.881C220.809 228.827 220.737 228.816 220.669 228.791C220.6 228.766 220.538 228.728 220.486 228.678C220.433 228.628 220.391 228.568 220.362 228.501C220.334 228.435 220.319 228.363 220.319 228.291C220.319 228.218 220.334 228.146 220.362 228.08C220.391 228.013 220.433 227.953 220.486 227.903C220.538 227.854 220.6 227.815 220.669 227.79C220.737 227.765 220.809 227.754 220.881 227.758H225.139C225.211 227.754 225.283 227.765 225.351 227.79C225.42 227.815 225.482 227.854 225.534 227.903C225.587 227.953 225.629 228.013 225.658 228.08C225.686 228.146 225.701 228.218 225.701 228.291C225.701 228.363 225.686 228.435 225.658 228.501C225.629 228.568 225.587 228.628 225.534 228.678C225.482 228.728 225.42 228.766 225.351 228.791C225.283 228.816 225.211 228.827 225.139 228.823ZM216.627 228.823H212.369C212.232 228.816 212.104 228.756 212.011 228.657C211.917 228.558 211.865 228.427 211.865 228.291C211.865 228.154 211.917 228.023 212.011 227.924C212.104 227.825 212.232 227.766 212.369 227.758H216.627C216.763 227.766 216.892 227.825 216.985 227.924C217.079 228.023 217.131 228.154 217.131 228.291C217.131 228.427 217.079 228.558 216.985 228.657C216.892 228.756 216.763 228.816 216.627 228.823ZM208.116 228.823H203.822C203.686 228.816 203.558 228.756 203.464 228.657C203.37 228.558 203.318 228.427 203.318 228.291C203.318 228.154 203.37 228.023 203.464 227.924C203.558 227.825 203.686 227.766 203.822 227.758H208.081C208.217 227.766 208.345 227.825 208.439 227.924C208.532 228.023 208.585 228.154 208.585 228.291C208.585 228.427 208.532 228.558 208.439 228.657C208.345 228.756 208.217 228.816 208.081 228.823H208.116ZM199.605 228.823H195.348C195.275 228.827 195.203 228.816 195.135 228.791C195.067 228.766 195.004 228.728 194.952 228.678C194.899 228.628 194.857 228.568 194.829 228.501C194.8 228.435 194.785 228.363 194.785 228.291C194.785 228.218 194.8 228.146 194.829 228.08C194.857 228.013 194.899 227.953 194.952 227.903C195.004 227.854 195.067 227.815 195.135 227.79C195.203 227.765 195.275 227.754 195.348 227.758H199.605C199.741 227.766 199.869 227.825 199.963 227.924C200.056 228.023 200.109 228.154 200.109 228.291C200.109 228.427 200.056 228.558 199.963 228.657C199.869 228.756 199.741 228.816 199.605 228.823ZM191.094 228.823H186.836C186.764 228.827 186.692 228.816 186.623 228.791C186.555 228.766 186.493 228.728 186.441 228.678C186.388 228.628 186.346 228.568 186.317 228.501C186.289 228.435 186.274 228.363 186.274 228.291C186.274 228.218 186.289 228.146 186.317 228.08C186.346 228.013 186.388 227.953 186.441 227.903C186.493 227.854 186.555 227.815 186.623 227.79C186.692 227.765 186.764 227.754 186.836 227.758H191.094C191.166 227.754 191.238 227.765 191.306 227.79C191.374 227.815 191.437 227.854 191.489 227.903C191.542 227.953 191.584 228.013 191.613 228.08C191.641 228.146 191.656 228.218 191.656 228.291C191.656 228.363 191.641 228.435 191.613 228.501C191.584 228.568 191.542 228.628 191.489 228.678C191.437 228.728 191.374 228.766 191.306 228.791C191.238 228.816 191.166 228.827 191.094 228.823ZM182.582 228.823C181.058 228.802 179.568 228.367 178.272 227.562C178.152 227.488 178.067 227.369 178.035 227.231C178.003 227.094 178.027 226.949 178.101 226.829C178.176 226.709 178.295 226.624 178.432 226.592C178.57 226.56 178.714 226.584 178.834 226.658C179.965 227.361 181.266 227.741 182.597 227.758C182.733 227.766 182.861 227.825 182.955 227.924C183.048 228.023 183.101 228.154 183.101 228.291C183.101 228.427 183.048 228.558 182.955 228.657C182.861 228.756 182.733 228.816 182.597 228.823H182.582ZM279.932 227.914C279.813 227.914 279.697 227.875 279.603 227.802C279.51 227.729 279.443 227.626 279.414 227.511C279.386 227.395 279.397 227.273 279.445 227.165C279.494 227.056 279.578 226.967 279.683 226.912C280.859 226.289 281.845 225.359 282.535 224.22C282.571 224.161 282.619 224.109 282.675 224.067C282.731 224.026 282.795 223.996 282.863 223.979C282.931 223.963 283.001 223.959 283.071 223.97C283.14 223.98 283.206 224.004 283.266 224.041C283.325 224.077 283.378 224.124 283.419 224.181C283.46 224.237 283.49 224.301 283.507 224.369C283.524 224.437 283.527 224.507 283.516 224.576C283.506 224.645 283.482 224.712 283.446 224.771C282.656 226.075 281.527 227.14 280.181 227.853C280.089 227.901 279.985 227.922 279.882 227.912L279.932 227.914ZM175.696 224.551C175.597 224.553 175.499 224.526 175.414 224.475C175.329 224.424 175.26 224.35 175.214 224.262C174.605 223.074 174.288 221.758 174.288 220.423V219.901C174.288 219.76 174.344 219.624 174.444 219.525C174.543 219.425 174.678 219.369 174.819 219.369C174.96 219.369 175.096 219.425 175.195 219.525C175.295 219.624 175.351 219.76 175.351 219.901V220.423C175.345 221.589 175.62 222.739 176.154 223.776C176.218 223.901 176.23 224.047 176.186 224.182C176.143 224.316 176.048 224.427 175.923 224.492C175.838 224.536 175.742 224.556 175.646 224.55L175.696 224.551ZM284.075 220.972C284.006 220.973 283.937 220.961 283.873 220.936C283.809 220.91 283.75 220.872 283.7 220.824C283.651 220.776 283.612 220.718 283.585 220.654C283.558 220.591 283.544 220.522 283.544 220.453V216.194C283.551 216.058 283.61 215.93 283.709 215.836C283.808 215.743 283.94 215.69 284.076 215.69C284.212 215.69 284.343 215.743 284.442 215.836C284.541 215.93 284.601 216.058 284.608 216.194V220.427C284.608 220.57 284.552 220.707 284.453 220.808C284.353 220.91 284.217 220.969 284.075 220.972ZM174.778 216.18C174.637 216.18 174.501 216.124 174.402 216.024C174.302 215.924 174.246 215.789 174.246 215.648V211.389C174.246 211.248 174.302 211.113 174.402 211.013C174.501 210.914 174.637 210.858 174.778 210.858C174.919 210.858 175.054 210.914 175.154 211.013C175.253 211.113 175.309 211.248 175.309 211.389V215.648C175.308 215.788 175.251 215.922 175.151 216.02C175.052 216.118 174.918 216.173 174.778 216.173V216.18ZM284.075 212.469C283.934 212.469 283.799 212.413 283.699 212.313C283.6 212.213 283.544 212.078 283.544 211.937V207.678C283.551 207.542 283.61 207.414 283.709 207.32C283.808 207.226 283.94 207.174 284.076 207.174C284.212 207.174 284.343 207.226 284.442 207.32C284.541 207.414 284.601 207.542 284.608 207.678V211.937C284.606 212.077 284.548 212.21 284.449 212.308C284.349 212.406 284.215 212.461 284.075 212.46V212.469ZM174.778 207.664C174.637 207.664 174.501 207.608 174.402 207.508C174.302 207.408 174.246 207.273 174.246 207.132V202.875C174.246 202.734 174.302 202.599 174.402 202.499C174.501 202.399 174.637 202.343 174.778 202.343C174.919 202.343 175.054 202.399 175.154 202.499C175.253 202.599 175.309 202.734 175.309 202.875V207.132C175.308 207.272 175.251 207.406 175.151 207.504C175.052 207.602 174.918 207.657 174.778 207.657V207.664ZM284.075 203.954C283.934 203.954 283.799 203.897 283.699 203.797C283.599 203.697 283.544 203.562 283.544 203.421V199.164C283.54 199.091 283.55 199.019 283.575 198.951C283.6 198.883 283.639 198.821 283.689 198.768C283.738 198.715 283.799 198.673 283.865 198.645C283.932 198.616 284.003 198.601 284.076 198.601C284.148 198.601 284.22 198.616 284.287 198.645C284.353 198.673 284.413 198.715 284.463 198.768C284.513 198.821 284.551 198.883 284.576 198.951C284.601 199.019 284.612 199.091 284.608 199.164V203.421C284.607 203.561 284.55 203.696 284.45 203.795C284.351 203.894 284.216 203.949 284.075 203.949V203.954ZM174.778 199.149C174.637 199.149 174.501 199.092 174.402 198.992C174.302 198.893 174.246 198.757 174.246 198.616V194.359C174.246 194.218 174.302 194.083 174.402 193.983C174.501 193.883 174.637 193.827 174.778 193.827C174.919 193.827 175.054 193.883 175.154 193.983C175.253 194.083 175.309 194.218 175.309 194.359V198.616C175.308 198.756 175.251 198.89 175.151 198.988C175.052 199.087 174.918 199.142 174.778 199.143V199.149ZM284.075 195.438C283.934 195.438 283.799 195.381 283.699 195.281C283.599 195.181 283.544 195.046 283.544 194.905V190.648C283.551 190.511 283.61 190.383 283.709 190.29C283.808 190.196 283.94 190.144 284.076 190.144C284.212 190.144 284.343 190.196 284.442 190.29C284.541 190.383 284.601 190.511 284.608 190.648V194.905C284.608 194.975 284.594 195.044 284.568 195.109C284.541 195.174 284.502 195.232 284.452 195.282C284.403 195.331 284.344 195.371 284.279 195.397C284.214 195.424 284.145 195.438 284.075 195.438ZM174.778 190.62C174.637 190.62 174.501 190.563 174.402 190.464C174.302 190.364 174.246 190.228 174.246 190.087V185.83C174.246 185.689 174.302 185.554 174.402 185.454C174.501 185.354 174.637 185.298 174.778 185.298C174.919 185.298 175.054 185.354 175.154 185.454C175.253 185.554 175.309 185.689 175.309 185.83V190.087C175.309 190.228 175.253 190.364 175.154 190.464C175.054 190.563 174.919 190.62 174.778 190.62ZM284.075 186.909C283.934 186.909 283.799 186.853 283.699 186.753C283.6 186.654 283.544 186.518 283.544 186.377V182.125C283.551 181.989 283.61 181.861 283.709 181.767C283.808 181.673 283.94 181.621 284.076 181.621C284.212 181.621 284.343 181.673 284.442 181.767C284.541 181.861 284.601 181.989 284.608 182.125V186.384C284.608 186.525 284.551 186.66 284.452 186.76C284.352 186.86 284.216 186.915 284.075 186.915V186.909ZM174.778 182.109C174.637 182.109 174.501 182.053 174.402 181.953C174.302 181.854 174.246 181.718 174.246 181.577V177.319C174.246 177.178 174.302 177.042 174.402 176.943C174.501 176.843 174.637 176.787 174.778 176.787C174.919 176.787 175.054 176.843 175.154 176.943C175.253 177.042 175.309 177.178 175.309 177.319V181.577C175.309 181.718 175.253 181.854 175.154 181.953C175.054 182.053 174.919 182.109 174.778 182.109ZM284.075 178.398C283.934 178.398 283.799 178.342 283.699 178.242C283.6 178.142 283.544 178.007 283.544 177.866V173.607C283.551 173.471 283.61 173.343 283.709 173.249C283.808 173.156 283.94 173.103 284.076 173.103C284.212 173.103 284.343 173.156 284.442 173.249C284.541 173.343 284.601 173.471 284.608 173.607V177.866C284.608 177.936 284.594 178.006 284.568 178.07C284.541 178.135 284.502 178.194 284.452 178.243C284.403 178.293 284.344 178.332 284.279 178.359C284.214 178.386 284.145 178.399 284.075 178.399V178.398ZM174.778 173.598C174.637 173.598 174.501 173.542 174.402 173.442C174.302 173.342 174.246 173.207 174.246 173.066V168.809C174.246 168.668 174.302 168.533 174.402 168.433C174.501 168.333 174.637 168.277 174.778 168.277C174.919 168.277 175.054 168.333 175.154 168.433C175.253 168.533 175.309 168.668 175.309 168.809V173.066C175.309 173.207 175.253 173.342 175.154 173.442C175.054 173.542 174.919 173.598 174.778 173.598ZM284.075 169.887C283.934 169.887 283.799 169.831 283.699 169.731C283.6 169.631 283.544 169.496 283.544 169.355V165.098C283.54 165.025 283.55 164.953 283.575 164.885C283.6 164.817 283.639 164.755 283.689 164.702C283.738 164.649 283.799 164.607 283.865 164.579C283.932 164.55 284.003 164.535 284.076 164.535C284.148 164.535 284.22 164.55 284.287 164.579C284.353 164.607 284.413 164.649 284.463 164.702C284.513 164.755 284.551 164.817 284.576 164.885C284.601 164.953 284.612 165.025 284.608 165.098V169.355C284.607 169.496 284.55 169.63 284.45 169.729C284.351 169.828 284.216 169.883 284.075 169.883V169.887ZM174.778 165.086C174.637 165.086 174.501 165.03 174.402 164.93C174.302 164.83 174.246 164.694 174.246 164.553V160.29C174.246 160.149 174.302 160.014 174.402 159.914C174.501 159.814 174.637 159.758 174.778 159.758C174.919 159.758 175.054 159.814 175.154 159.914C175.253 160.014 175.309 160.149 175.309 160.29V164.547C175.31 164.617 175.297 164.687 175.271 164.753C175.244 164.818 175.205 164.877 175.156 164.927C175.106 164.978 175.048 165.018 174.983 165.045C174.918 165.072 174.848 165.086 174.778 165.086ZM284.075 161.375C283.934 161.375 283.799 161.318 283.699 161.219C283.599 161.119 283.544 160.983 283.544 160.842V156.575C283.54 156.503 283.55 156.43 283.575 156.362C283.6 156.294 283.639 156.232 283.689 156.179C283.738 156.127 283.799 156.085 283.865 156.056C283.932 156.028 284.003 156.013 284.076 156.013C284.148 156.013 284.22 156.028 284.287 156.056C284.353 156.085 284.413 156.127 284.463 156.179C284.513 156.232 284.551 156.294 284.576 156.362C284.601 156.43 284.612 156.503 284.608 156.575V160.832C284.609 160.903 284.595 160.972 284.569 161.037C284.542 161.103 284.503 161.162 284.453 161.212C284.404 161.261 284.345 161.301 284.28 161.328C284.215 161.355 284.145 161.369 284.075 161.369V161.375ZM174.778 156.57C174.637 156.57 174.501 156.514 174.402 156.414C174.302 156.314 174.246 156.178 174.246 156.037V155.848C174.245 154.392 174.622 152.962 175.341 151.697C175.376 151.636 175.422 151.582 175.477 151.54C175.532 151.497 175.596 151.465 175.663 151.447C175.73 151.428 175.801 151.423 175.87 151.432C175.939 151.441 176.006 151.463 176.067 151.497C176.128 151.532 176.181 151.578 176.224 151.633C176.267 151.689 176.299 151.752 176.317 151.819C176.336 151.886 176.341 151.957 176.332 152.026C176.323 152.096 176.301 152.163 176.266 152.223C175.636 153.327 175.304 154.576 175.303 155.848V156.037C175.301 156.176 175.245 156.309 175.147 156.407C175.049 156.506 174.917 156.562 174.778 156.564V156.57ZM283.304 152.976C283.204 152.976 283.105 152.948 283.02 152.895C282.935 152.841 282.866 152.765 282.822 152.675C282.245 151.475 281.354 150.454 280.243 149.72C280.126 149.642 280.044 149.521 280.015 149.382C279.987 149.244 280.015 149.1 280.092 148.983C280.17 148.865 280.292 148.783 280.43 148.754C280.568 148.726 280.712 148.754 280.83 148.832C282.101 149.671 283.122 150.84 283.781 152.214C283.82 152.295 283.838 152.385 283.832 152.475C283.827 152.565 283.799 152.652 283.751 152.728C283.703 152.804 283.636 152.867 283.557 152.91C283.478 152.954 283.39 152.977 283.299 152.976H283.304ZM178.783 149.509C178.665 149.509 178.551 149.47 178.459 149.398C178.366 149.326 178.299 149.226 178.269 149.112C178.239 148.999 178.247 148.879 178.293 148.771C178.338 148.662 178.418 148.572 178.519 148.514C179.779 147.805 181.2 147.433 182.645 147.433H182.863C182.999 147.44 183.128 147.5 183.221 147.599C183.315 147.698 183.367 147.829 183.367 147.965C183.367 148.102 183.315 148.233 183.221 148.332C183.128 148.431 182.999 148.49 182.863 148.498H182.645C181.384 148.497 180.144 148.822 179.045 149.44C178.965 149.485 178.874 149.509 178.783 149.509ZM276.537 148.51H276.514C276.412 148.51 276.309 148.51 276.206 148.51H272.278C272.142 148.503 272.014 148.444 271.92 148.345C271.826 148.246 271.774 148.114 271.774 147.978C271.774 147.842 271.826 147.711 271.92 147.612C272.014 147.513 272.142 147.453 272.278 147.446H276.206C276.323 147.446 276.441 147.446 276.558 147.446C276.694 147.455 276.822 147.517 276.914 147.618C277.006 147.719 277.056 147.851 277.053 147.988C277.05 148.125 276.995 148.255 276.899 148.352C276.803 148.449 276.674 148.506 276.537 148.51ZM268.026 148.51H263.767C263.631 148.503 263.503 148.444 263.409 148.345C263.315 148.246 263.263 148.114 263.263 147.978C263.263 147.842 263.315 147.711 263.409 147.612C263.503 147.513 263.631 147.453 263.767 147.446H268.026C268.162 147.453 268.29 147.513 268.384 147.612C268.477 147.711 268.53 147.842 268.53 147.978C268.53 148.114 268.477 148.246 268.384 148.345C268.29 148.444 268.162 148.503 268.026 148.51ZM259.514 148.51H255.257C255.185 148.514 255.112 148.504 255.044 148.479C254.976 148.454 254.914 148.415 254.861 148.365C254.809 148.315 254.767 148.255 254.738 148.189C254.71 148.122 254.695 148.051 254.695 147.978C254.695 147.906 254.71 147.834 254.738 147.767C254.767 147.701 254.809 147.641 254.861 147.591C254.914 147.541 254.976 147.502 255.044 147.478C255.112 147.453 255.185 147.442 255.257 147.446H259.514C259.651 147.453 259.779 147.513 259.872 147.612C259.966 147.711 260.018 147.842 260.018 147.978C260.018 148.114 259.966 148.246 259.872 148.345C259.779 148.444 259.651 148.503 259.514 148.51ZM251.003 148.51H246.732C246.659 148.514 246.587 148.504 246.519 148.479C246.451 148.454 246.388 148.415 246.336 148.365C246.283 148.315 246.241 148.255 246.213 148.189C246.184 148.122 246.169 148.051 246.169 147.978C246.169 147.906 246.184 147.834 246.213 147.767C246.241 147.701 246.283 147.641 246.336 147.591C246.388 147.541 246.451 147.502 246.519 147.478C246.587 147.453 246.659 147.442 246.732 147.446H250.989C251.061 147.442 251.134 147.453 251.202 147.478C251.27 147.502 251.332 147.541 251.385 147.591C251.437 147.641 251.479 147.701 251.508 147.767C251.536 147.834 251.551 147.906 251.551 147.978C251.551 148.051 251.536 148.122 251.508 148.189C251.479 148.255 251.437 148.315 251.385 148.365C251.332 148.415 251.27 148.454 251.202 148.479C251.134 148.504 251.061 148.514 250.989 148.51H251.003ZM242.492 148.51H238.235C238.099 148.503 237.97 148.444 237.877 148.345C237.783 148.246 237.731 148.114 237.731 147.978C237.731 147.842 237.783 147.711 237.877 147.612C237.97 147.513 238.099 147.453 238.235 147.446H242.492C242.564 147.442 242.637 147.453 242.705 147.478C242.773 147.502 242.835 147.541 242.888 147.591C242.94 147.641 242.982 147.701 243.011 147.767C243.04 147.834 243.054 147.906 243.054 147.978C243.054 148.051 243.04 148.122 243.011 148.189C242.982 148.255 242.94 148.315 242.888 148.365C242.835 148.415 242.773 148.454 242.705 148.479C242.637 148.504 242.564 148.514 242.492 148.51ZM233.981 148.51H229.722C229.586 148.503 229.458 148.444 229.364 148.345C229.27 148.246 229.218 148.114 229.218 147.978C229.218 147.842 229.27 147.711 229.364 147.612C229.458 147.513 229.586 147.453 229.722 147.446H233.981C234.117 147.453 234.245 147.513 234.339 147.612C234.432 147.711 234.485 147.842 234.485 147.978C234.485 148.114 234.432 148.246 234.339 148.345C234.245 148.444 234.117 148.503 233.981 148.51ZM225.469 148.51H221.212C221.14 148.514 221.067 148.504 220.999 148.479C220.931 148.454 220.869 148.415 220.816 148.365C220.764 148.315 220.722 148.255 220.693 148.189C220.665 148.122 220.65 148.051 220.65 147.978C220.65 147.906 220.665 147.834 220.693 147.767C220.722 147.701 220.764 147.641 220.816 147.591C220.869 147.541 220.931 147.502 220.999 147.478C221.067 147.453 221.14 147.442 221.212 147.446H225.469C225.606 147.453 225.734 147.513 225.827 147.612C225.921 147.711 225.973 147.842 225.973 147.978C225.973 148.114 225.921 148.246 225.827 148.345C225.734 148.444 225.606 148.503 225.469 148.51ZM216.958 148.51H212.701C212.629 148.514 212.556 148.504 212.488 148.479C212.42 148.454 212.358 148.415 212.305 148.365C212.253 148.315 212.211 148.255 212.182 148.189C212.153 148.122 212.139 148.051 212.139 147.978C212.139 147.906 212.153 147.834 212.182 147.767C212.211 147.701 212.253 147.641 212.305 147.591C212.358 147.541 212.42 147.502 212.488 147.478C212.556 147.453 212.629 147.442 212.701 147.446H216.958C217.031 147.442 217.103 147.453 217.171 147.478C217.239 147.502 217.301 147.541 217.354 147.591C217.407 147.641 217.448 147.701 217.477 147.767C217.506 147.834 217.521 147.906 217.521 147.978C217.521 148.051 217.506 148.122 217.477 148.189C217.448 148.255 217.407 148.315 217.354 148.365C217.301 148.415 217.239 148.454 217.171 148.479C217.103 148.504 217.031 148.514 216.958 148.51ZM208.447 148.51H204.19C204.054 148.503 203.925 148.444 203.832 148.345C203.738 148.246 203.686 148.114 203.686 147.978C203.686 147.842 203.738 147.711 203.832 147.612C203.925 147.513 204.054 147.453 204.19 147.446H208.447C208.519 147.442 208.592 147.453 208.66 147.478C208.728 147.502 208.79 147.541 208.843 147.591C208.895 147.641 208.937 147.701 208.966 147.767C208.995 147.834 209.009 147.906 209.009 147.978C209.009 148.051 208.995 148.122 208.966 148.189C208.937 148.255 208.895 148.315 208.843 148.365C208.79 148.415 208.728 148.454 208.66 148.479C208.592 148.504 208.519 148.514 208.447 148.51ZM199.936 148.51H195.677C195.541 148.503 195.413 148.444 195.319 148.345C195.225 148.246 195.173 148.114 195.173 147.978C195.173 147.842 195.225 147.711 195.319 147.612C195.413 147.513 195.541 147.453 195.677 147.446H199.936C200.072 147.453 200.2 147.513 200.294 147.612C200.387 147.711 200.44 147.842 200.44 147.978C200.44 148.114 200.387 148.246 200.294 148.345C200.2 148.444 200.072 148.503 199.936 148.51ZM191.424 148.51H187.121C186.984 148.503 186.856 148.444 186.763 148.345C186.669 148.246 186.617 148.114 186.617 147.978C186.617 147.842 186.669 147.711 186.763 147.612C186.856 147.513 186.984 147.453 187.121 147.446H191.379C191.516 147.453 191.644 147.513 191.737 147.612C191.831 147.711 191.883 147.842 191.883 147.978C191.883 148.114 191.831 148.246 191.737 148.345C191.644 148.444 191.516 148.503 191.379 148.51H191.424Z" fill="#B8D9BE"/>
<path d="M284.501 179.724H267.798C264.27 179.724 261.41 182.584 261.41 186.113V190.01C261.41 193.538 264.27 196.398 267.798 196.398H284.501C288.03 196.398 290.89 193.538 290.89 190.01V186.113C290.89 182.584 288.03 179.724 284.501 179.724Z" fill="#E0EDE4"/>
<path d="M284.502 196.93H267.801C265.966 196.928 264.207 196.198 262.91 194.901C261.613 193.604 260.883 191.845 260.881 190.01V186.113C260.883 184.278 261.613 182.519 262.91 181.222C264.207 179.925 265.966 179.195 267.801 179.193H284.502C286.337 179.195 288.095 179.925 289.393 181.222C290.69 182.519 291.42 184.278 291.422 186.113V190.01C291.42 191.845 290.69 193.604 289.393 194.901C288.095 196.198 286.337 196.928 284.502 196.93ZM267.801 180.256C266.248 180.258 264.759 180.876 263.661 181.973C262.563 183.071 261.946 184.56 261.944 186.113V190.01C261.946 191.563 262.563 193.052 263.661 194.15C264.759 195.248 266.248 195.865 267.801 195.867H284.502C286.055 195.865 287.543 195.247 288.64 194.149C289.738 193.051 290.355 191.563 290.357 190.01V186.113C290.355 184.56 289.738 183.072 288.64 181.974C287.543 180.876 286.055 180.258 284.502 180.256H267.801Z" fill="#181A1E"/>
<path d="M267.83 191.399C269.602 191.399 271.038 189.906 271.038 188.064C271.038 186.222 269.602 184.728 267.83 184.728C266.058 184.728 264.621 186.222 264.621 188.064C264.621 189.906 266.058 191.399 267.83 191.399Z" fill="#181A1E"/>
<path d="M229.829 203.405C229.73 203.406 229.632 203.378 229.547 203.325C229.463 203.273 229.394 203.197 229.351 203.108C229.307 203.018 229.289 202.918 229.3 202.819C229.31 202.72 229.349 202.626 229.41 202.548L237.35 192.315C237.436 192.203 237.564 192.131 237.704 192.114C237.844 192.096 237.985 192.135 238.097 192.222C238.208 192.308 238.28 192.436 238.298 192.576C238.315 192.716 238.276 192.857 238.19 192.968L230.252 203.2C230.202 203.264 230.137 203.315 230.064 203.351C229.991 203.387 229.911 203.405 229.829 203.405Z" fill="#B8D9BE"/>
<path d="M239.213 191.314C239.097 191.314 238.984 191.275 238.892 191.204C238.837 191.161 238.79 191.108 238.756 191.047C238.721 190.986 238.699 190.919 238.69 190.85C238.681 190.781 238.686 190.71 238.704 190.643C238.723 190.575 238.754 190.512 238.797 190.457L248.299 178.21C248.342 178.155 248.396 178.109 248.456 178.074C248.517 178.039 248.584 178.017 248.653 178.008C248.723 177.999 248.793 178.004 248.86 178.023C248.928 178.041 248.991 178.073 249.046 178.116C249.101 178.158 249.148 178.212 249.182 178.272C249.217 178.333 249.239 178.4 249.248 178.469C249.257 178.539 249.252 178.609 249.234 178.676C249.215 178.744 249.184 178.807 249.141 178.862L239.639 191.109C239.589 191.174 239.524 191.226 239.45 191.262C239.376 191.297 239.295 191.315 239.213 191.314Z" fill="#B8D9BE"/>
<path d="M250.145 177.228C250.046 177.228 249.948 177.2 249.864 177.147C249.779 177.094 249.711 177.019 249.668 176.93C249.624 176.84 249.606 176.74 249.616 176.641C249.626 176.542 249.664 176.448 249.725 176.369L252.647 172.603C252.69 172.548 252.743 172.502 252.804 172.467C252.865 172.432 252.932 172.41 253.001 172.401C253.07 172.393 253.141 172.397 253.208 172.416C253.276 172.434 253.339 172.466 253.394 172.509C253.449 172.551 253.496 172.605 253.53 172.665C253.565 172.726 253.587 172.793 253.596 172.862C253.605 172.932 253.6 173.002 253.582 173.07C253.563 173.137 253.532 173.2 253.489 173.255L250.566 177.023C250.516 177.087 250.453 177.139 250.38 177.175C250.307 177.21 250.227 177.229 250.145 177.228Z" fill="#B8D9BE"/>
<path d="M198.346 202.362C198.23 202.362 198.117 202.323 198.025 202.252C197.97 202.209 197.923 202.156 197.889 202.095C197.854 202.034 197.831 201.967 197.823 201.898C197.814 201.828 197.819 201.758 197.837 201.691C197.856 201.623 197.887 201.56 197.93 201.505L203.485 194.347C203.572 194.236 203.699 194.164 203.839 194.146C203.979 194.129 204.12 194.167 204.232 194.254C204.343 194.341 204.415 194.468 204.433 194.608C204.45 194.748 204.412 194.89 204.325 195.001L198.772 202.157C198.721 202.222 198.657 202.274 198.583 202.31C198.509 202.345 198.428 202.363 198.346 202.362Z" fill="#B8D9BE"/>
<path d="M204.987 193.805C204.888 193.805 204.79 193.777 204.706 193.724C204.621 193.671 204.553 193.596 204.509 193.506C204.466 193.417 204.448 193.317 204.458 193.218C204.468 193.119 204.505 193.025 204.566 192.946L211.08 184.552C211.123 184.497 211.176 184.45 211.237 184.416C211.297 184.381 211.364 184.359 211.434 184.35C211.503 184.341 211.573 184.346 211.641 184.364C211.708 184.383 211.771 184.414 211.827 184.457C211.882 184.5 211.928 184.553 211.963 184.614C211.997 184.675 212.02 184.741 212.029 184.811C212.037 184.88 212.033 184.951 212.014 185.018C211.996 185.085 211.964 185.149 211.921 185.204L205.408 193.599C205.358 193.663 205.294 193.715 205.221 193.751C205.148 193.786 205.068 193.805 204.987 193.805Z" fill="#B8D9BE"/>
<path d="M213.583 182.724C213.483 182.724 213.386 182.696 213.301 182.643C213.217 182.59 213.149 182.515 213.105 182.425C213.061 182.336 213.043 182.236 213.054 182.137C213.064 182.038 213.101 181.944 213.162 181.865L220.03 173.015C220.073 172.96 220.127 172.913 220.187 172.879C220.248 172.844 220.315 172.822 220.384 172.813C220.454 172.804 220.524 172.809 220.591 172.827C220.659 172.846 220.722 172.877 220.777 172.92C220.832 172.963 220.879 173.016 220.913 173.077C220.948 173.138 220.97 173.205 220.979 173.274C220.988 173.343 220.983 173.414 220.965 173.481C220.946 173.548 220.915 173.612 220.872 173.667L214.004 182.519C213.954 182.583 213.89 182.635 213.817 182.67C213.744 182.706 213.664 182.724 213.583 182.724Z" fill="#B8D9BE"/>
<path d="M224.635 223.086C224.535 223.086 224.438 223.058 224.353 223.006C224.268 222.953 224.2 222.878 224.156 222.788C224.112 222.698 224.094 222.598 224.104 222.499C224.115 222.4 224.153 222.305 224.215 222.227L234.202 209.357C234.288 209.245 234.415 209.173 234.555 209.155C234.695 209.137 234.837 209.176 234.948 209.262C235.06 209.349 235.133 209.476 235.15 209.616C235.168 209.756 235.13 209.897 235.043 210.009L225.056 222.88C225.006 222.944 224.943 222.996 224.87 223.032C224.797 223.068 224.716 223.086 224.635 223.086Z" fill="#B8D9BE"/>
<path d="M235.684 208.846C235.585 208.845 235.487 208.817 235.403 208.764C235.318 208.712 235.25 208.636 235.207 208.547C235.163 208.457 235.145 208.358 235.155 208.259C235.165 208.159 235.203 208.065 235.264 207.986L243.797 196.991C243.884 196.879 244.011 196.807 244.151 196.789C244.291 196.771 244.433 196.81 244.544 196.896C244.656 196.983 244.728 197.11 244.746 197.25C244.764 197.39 244.725 197.531 244.639 197.643L236.105 208.64C236.055 208.704 235.992 208.756 235.919 208.792C235.846 208.827 235.766 208.846 235.684 208.846Z" fill="#B8D9BE"/>
<path d="M210.683 163.367C224.928 163.367 236.477 151.796 236.477 137.523C236.477 123.25 224.928 111.679 210.683 111.679C196.437 111.679 184.889 123.25 184.889 137.523C184.889 151.796 196.437 163.367 210.683 163.367Z" fill="white"/>
<path d="M210.709 163.913C205.829 163.907 201.047 162.548 196.893 159.988C192.74 157.427 189.377 153.764 187.18 149.407C180.64 136.424 185.862 120.53 198.82 113.976C201.907 112.416 205.272 111.481 208.721 111.223C212.171 110.965 215.637 111.39 218.922 112.473C222.207 113.556 225.246 115.277 227.865 117.536C230.484 119.796 232.632 122.55 234.185 125.64C240.724 138.624 235.502 154.519 222.544 161.071C218.877 162.936 214.822 163.909 210.709 163.913ZM210.657 112.203C206.71 112.208 202.819 113.144 199.3 114.933C186.866 121.222 181.854 136.475 188.131 148.935C189.622 151.901 191.682 154.543 194.195 156.711C196.708 158.879 199.624 160.53 202.776 161.57C205.928 162.609 209.254 163.017 212.564 162.769C215.873 162.522 219.102 161.624 222.064 160.127C234.498 153.84 239.51 138.587 233.234 126.127C231.127 121.945 227.9 118.431 223.915 115.973C219.929 113.516 215.34 112.212 210.657 112.207V112.203Z" fill="#181A1E"/>
<path d="M210.683 160.878C223.556 160.878 233.991 150.423 233.991 137.525C233.991 124.628 223.556 114.172 210.683 114.172C197.81 114.172 187.375 124.628 187.375 137.525C187.375 150.423 197.81 160.878 210.683 160.878Z" fill="#B8D9BE"/>
<path d="M210.68 158.834C222.427 158.834 231.95 149.293 231.95 137.524C231.95 125.754 222.427 116.213 210.68 116.213C198.933 116.213 189.41 125.754 189.41 137.524C189.41 149.293 198.933 158.834 210.68 158.834Z" fill="white"/>
<path d="M210.704 159.378C206.662 159.374 202.701 158.249 199.261 156.128C195.821 154.007 193.037 150.973 191.219 147.364C185.803 136.613 190.127 123.449 200.855 118.023C203.411 116.731 206.198 115.956 209.054 115.743C211.911 115.529 214.781 115.881 217.501 116.778C220.222 117.676 222.738 119.101 224.907 120.972C227.076 122.843 228.855 125.123 230.141 127.682C235.556 138.442 231.232 151.597 220.506 157.024C217.469 158.569 214.111 159.375 210.704 159.378ZM210.662 116.735C207.424 116.739 204.233 117.506 201.348 118.974C191.139 124.135 187.025 136.656 192.178 146.886C193.401 149.32 195.092 151.49 197.155 153.269C199.218 155.049 201.612 156.405 204.199 157.258C206.786 158.112 209.517 158.447 212.233 158.244C214.95 158.041 217.601 157.303 220.032 156.075C230.241 150.912 234.355 138.391 229.204 128.161C227.473 124.729 224.824 121.844 221.552 119.827C218.28 117.81 214.513 116.74 210.67 116.735H210.662Z" fill="#181A1E"/>
<path d="M277.482 130.034C287.734 126.511 293.193 115.36 289.676 105.129C286.159 94.8981 274.998 89.4608 264.747 92.9846C254.496 96.5083 249.036 107.659 252.553 117.89C256.07 128.121 267.231 133.558 277.482 130.034Z" fill="white"/>
<path d="M271.092 131.621C267.135 131.625 263.265 130.461 259.966 128.275C256.668 126.089 254.088 122.978 252.55 119.332C251.013 115.686 250.585 111.667 251.322 107.779C252.059 103.891 253.927 100.307 256.692 97.4762C264.452 89.5254 277.238 89.3535 285.192 97.0924C288.059 99.89 290.026 103.479 290.841 107.401C291.657 111.323 291.284 115.399 289.77 119.107C288.256 122.816 285.669 125.988 282.342 128.219C279.015 130.45 275.098 131.637 271.092 131.629V131.621ZM271.144 92.4545C267.349 92.4431 263.636 93.5652 260.482 95.6769C257.329 97.7887 254.878 100.794 253.443 104.308C252.008 107.821 251.654 111.683 252.428 115.399C253.202 119.115 255.068 122.515 257.786 125.163C265.319 132.494 277.429 132.332 284.781 124.801C287.403 122.12 289.175 118.725 289.875 115.042C290.575 111.358 290.171 107.549 288.715 104.094C287.258 100.639 284.813 97.6914 281.687 95.6206C278.561 93.5498 274.893 92.4484 271.144 92.4545Z" fill="#181A1E"/>
<path d="M276.87 128.242C286.134 125.06 291.068 114.984 287.892 105.738C284.715 96.4923 274.631 91.5768 265.367 94.7593C256.103 97.9418 251.169 108.017 254.345 117.263C257.522 126.509 267.606 131.425 276.87 128.242Z" fill="#B8D9BE"/>
<path d="M276.897 128.588C285.388 125.727 289.958 116.538 287.103 108.063C284.248 99.5873 275.05 95.0354 266.559 97.8956C258.067 100.756 253.498 109.945 256.353 118.421C259.208 126.896 268.406 131.448 276.897 128.588Z" fill="white"/>
<path d="M271.096 128.187C267.814 128.193 264.602 127.228 261.866 125.415C259.129 123.602 256.989 121.021 255.713 117.996C254.438 114.971 254.084 111.637 254.697 108.412C255.31 105.187 256.861 102.214 259.156 99.8675C265.591 93.2736 276.193 93.1227 282.79 99.5463C284.363 101.075 285.618 102.9 286.483 104.915C287.349 106.93 287.809 109.096 287.836 111.289C287.863 113.482 287.457 115.659 286.641 117.695C285.825 119.731 284.615 121.586 283.081 123.153C281.521 124.751 279.657 126.019 277.599 126.884C275.54 127.749 273.329 128.192 271.096 128.187ZM271.14 95.8912C267.522 95.8971 264.019 97.16 261.229 99.4638C258.44 101.768 256.537 104.969 255.848 108.521C255.159 112.072 255.725 115.753 257.45 118.933C259.175 122.113 261.951 124.595 265.304 125.954C268.657 127.313 272.378 127.465 275.83 126.383C279.282 125.302 282.252 123.054 284.229 120.025C286.207 116.995 287.071 113.373 286.673 109.777C286.275 106.181 284.64 102.835 282.047 100.312C279.126 97.4739 275.213 95.8877 271.14 95.8912Z" fill="#181A1E"/>
<path d="M105.827 42.7812C105.721 42.7811 105.617 42.7492 105.529 42.6897C105.441 42.6302 105.373 42.5458 105.334 42.4473C105.294 42.3488 105.284 42.2406 105.307 42.1367C105.329 42.0329 105.382 41.938 105.458 41.8643C105.55 41.7775 114.791 33.0672 132.668 27.0354C132.735 27.013 132.805 27.004 132.874 27.0086C132.944 27.0133 133.012 27.0317 133.075 27.0627C133.137 27.0937 133.193 27.1368 133.239 27.1894C133.285 27.242 133.32 27.3032 133.343 27.3694C133.365 27.4356 133.374 27.5056 133.37 27.5754C133.365 27.6451 133.347 27.7132 133.316 27.7758C133.284 27.8385 133.241 27.8944 133.189 27.9404C133.136 27.9864 133.075 28.0216 133.009 28.0439C115.354 34.0002 106.283 42.5484 106.19 42.6335C106.092 42.7267 105.963 42.7795 105.827 42.7812Z" fill="#181A1E"/>
<path d="M84.2281 42.1266C84.116 42.1257 84.007 42.0893 83.9168 42.0226C83.8266 41.956 83.7598 41.8625 83.726 41.7556C83.6921 41.6487 83.6929 41.5338 83.7283 41.4274C83.7637 41.3209 83.8319 41.2285 83.923 41.1631C84.0065 41.1053 92.4744 35.2341 106.534 29.0322C119.507 23.3103 140.043 16.1191 164.21 14.3591C164.282 14.3493 164.355 14.3544 164.425 14.3742C164.495 14.3939 164.561 14.4278 164.617 14.4738C164.674 14.5198 164.72 14.5769 164.753 14.6415C164.787 14.7062 164.807 14.777 164.812 14.8496C164.817 14.9222 164.807 14.9951 164.782 15.0636C164.758 15.1322 164.72 15.1951 164.67 15.2483C164.62 15.3015 164.56 15.344 164.494 15.3731C164.427 15.4022 164.355 15.4172 164.282 15.4174C118.328 18.764 84.8657 41.799 84.5317 42.0303C84.4432 42.0936 84.3369 42.1274 84.2281 42.1266Z" fill="#181A1E"/>
<path d="M22.8283 195.499C22.7266 195.499 22.627 195.47 22.5416 195.414C22.4562 195.359 22.3885 195.28 22.3465 195.188C11.0795 170.458 10.5464 147.387 12.0816 132.386C13.7437 116.126 18.1375 105.558 18.184 105.453C18.2111 105.389 18.2507 105.33 18.3004 105.281C18.35 105.232 18.4089 105.193 18.4736 105.167C18.5384 105.14 18.6077 105.127 18.6775 105.127C18.7474 105.128 18.8166 105.142 18.881 105.169C18.9454 105.196 19.0039 105.236 19.053 105.285C19.1022 105.335 19.1411 105.394 19.1675 105.459C19.1939 105.523 19.2072 105.593 19.2069 105.663C19.2065 105.732 19.1923 105.802 19.1652 105.866C19.1187 105.97 14.7731 116.426 13.1351 132.535C11.6207 147.396 12.1571 170.251 23.3133 194.746C23.3716 194.874 23.3766 195.021 23.3272 195.153C23.2778 195.285 23.1781 195.392 23.0499 195.451C22.9805 195.483 22.9048 195.5 22.8283 195.499Z" fill="#181A1E"/>
<path d="M43.1502 200.59C43.0619 200.589 42.975 200.567 42.8973 200.525C42.8197 200.483 42.7537 200.423 42.7054 200.349C41.4656 198.465 40.2628 196.539 39.1323 194.624C39.0921 194.563 39.0647 194.495 39.0517 194.424C39.0386 194.353 39.0403 194.28 39.0564 194.209C39.0726 194.139 39.103 194.072 39.1458 194.013C39.1885 193.955 39.2428 193.906 39.3051 193.869C39.3675 193.832 39.4368 193.809 39.5086 193.799C39.5805 193.79 39.6534 193.796 39.7231 193.816C39.7927 193.836 39.8575 193.87 39.9136 193.915C39.9697 193.961 40.0158 194.018 40.0492 194.082C41.1734 195.984 42.365 197.895 43.5951 199.764C43.6477 199.844 43.6777 199.937 43.6818 200.033C43.686 200.129 43.6641 200.225 43.6185 200.309C43.5729 200.394 43.5054 200.465 43.4229 200.514C43.3405 200.563 43.2463 200.589 43.1502 200.59Z" fill="#181A1E"/>
<path d="M33.9141 184.179C33.8131 184.179 33.7141 184.15 33.6288 184.096C33.5435 184.042 33.4753 183.965 33.4323 183.874C28.2164 172.809 24.7958 161.391 23.2654 149.949C23.2545 149.813 23.2961 149.678 23.3817 149.572C23.4672 149.466 23.5902 149.396 23.7253 149.378C23.8604 149.36 23.9974 149.394 24.1081 149.474C24.2188 149.553 24.2948 149.672 24.3204 149.806C25.8364 161.145 29.2249 172.449 34.3942 183.419C34.4241 183.482 34.4413 183.551 34.4447 183.62C34.4481 183.69 34.4378 183.76 34.4142 183.826C34.3906 183.892 34.3543 183.952 34.3074 184.004C34.2604 184.055 34.2037 184.097 34.1405 184.127C34.0698 184.161 33.9925 184.179 33.9141 184.179Z" fill="#181A1E"/>
<path d="M23.0171 142.032C22.8808 142.032 22.7497 141.979 22.6511 141.885C22.5525 141.791 22.4938 141.663 22.4872 141.526C21.8898 129.697 23.6804 122.264 23.698 122.191C23.7116 122.12 23.7395 122.053 23.78 121.993C23.8205 121.933 23.8728 121.882 23.9337 121.843C23.9945 121.804 24.0627 121.777 24.1341 121.765C24.2055 121.754 24.2785 121.756 24.3488 121.774C24.4191 121.791 24.4851 121.822 24.5428 121.866C24.6006 121.909 24.6489 121.964 24.6848 122.027C24.7206 122.09 24.7433 122.159 24.7515 122.231C24.7597 122.303 24.7531 122.376 24.7322 122.445C24.7146 122.517 22.9657 129.815 23.5503 141.473C23.5569 141.615 23.5073 141.752 23.4126 141.857C23.3178 141.962 23.1855 142.025 23.0444 142.032H23.0171Z" fill="#181A1E"/>
<path d="M117.505 55.756C116.942 55.757 116.391 55.5909 115.922 55.2788C115.454 54.9667 115.088 54.5226 114.872 54.0027C114.656 53.4828 114.599 52.9105 114.708 52.3581C114.818 51.8058 115.088 51.2983 115.486 50.8999C115.884 50.5014 116.391 50.2299 116.943 50.1197C117.495 50.0095 118.068 50.0656 118.588 50.2808C119.108 50.4961 119.553 50.8608 119.866 51.3289C120.179 51.797 120.346 52.3473 120.346 52.9103C120.346 53.6642 120.046 54.3873 119.514 54.9208C118.981 55.4544 118.259 55.7547 117.505 55.756ZM117.505 51.1294C117.152 51.1285 116.808 51.2321 116.514 51.4272C116.221 51.6223 115.991 51.9001 115.856 52.2255C115.72 52.5508 115.684 52.909 115.753 53.2548C115.821 53.6006 115.99 53.9184 116.239 54.1679C116.488 54.4175 116.805 54.5876 117.151 54.6567C117.496 54.7258 117.855 54.6908 118.18 54.5562C118.506 54.4215 118.785 54.1933 118.98 53.9003C119.176 53.6073 119.281 53.2628 119.281 52.9103C119.281 52.4388 119.094 51.9866 118.761 51.6527C118.428 51.3189 117.976 51.1307 117.505 51.1294Z" fill="#181A1E"/>
<path d="M65.1777 12.4653C65.1073 12.4648 65.0377 12.4504 64.9729 12.4228C64.9081 12.3953 64.8495 12.3551 64.8003 12.3047L63.3133 10.8144C63.214 10.7135 63.159 10.5772 63.1602 10.4357C63.1614 10.2941 63.2188 10.1589 63.3197 10.0596C63.4206 9.96038 63.5569 9.90531 63.6984 9.90651C63.84 9.90772 63.9752 9.9651 64.0745 10.066L65.5535 11.5627C65.6278 11.6371 65.6784 11.7318 65.6989 11.8349C65.7194 11.938 65.7089 12.0448 65.6687 12.1419C65.6284 12.239 65.5603 12.322 65.473 12.3804C65.3856 12.4388 65.2828 12.47 65.1777 12.4701V12.4653Z" fill="#181A1E"/>
<path d="M70.3851 17.6833C70.3149 17.6829 70.2455 17.6685 70.181 17.6409C70.1165 17.6133 70.0581 17.5731 70.0093 17.5227L68.5206 16.0324C68.4713 15.983 68.4322 15.9243 68.4055 15.8597C68.3788 15.7951 68.3652 15.7259 68.3652 15.6561C68.3653 15.5862 68.3791 15.517 68.4059 15.4525C68.4328 15.388 68.472 15.3294 68.5215 15.2801C68.5709 15.2307 68.6296 15.1916 68.6942 15.1649C68.7587 15.1382 68.8279 15.1246 68.8978 15.1246C68.9677 15.1247 69.0368 15.1385 69.1013 15.1653C69.1659 15.1922 69.2245 15.2314 69.2738 15.2809L70.7625 16.7711C70.8367 16.8458 70.8871 16.9407 70.9074 17.044C70.9277 17.1472 70.917 17.2542 70.8767 17.3514C70.8363 17.4485 70.7681 17.5316 70.6806 17.5901C70.5932 17.6486 70.4903 17.6799 70.3851 17.6801V17.6833Z" fill="#181A1E"/>
<path d="M63.6909 17.6837C63.5858 17.6833 63.4832 17.6517 63.396 17.5931C63.3087 17.5345 63.2408 17.4514 63.2006 17.3543C63.1605 17.2572 63.1499 17.1503 63.1703 17.0472C63.1906 16.9441 63.241 16.8493 63.3151 16.7748L64.8022 15.2845C64.8515 15.2351 64.9101 15.1958 64.9746 15.169C65.0392 15.1422 65.1083 15.1284 65.1782 15.1283C65.248 15.1282 65.3172 15.1419 65.3818 15.1686C65.4464 15.1952 65.5051 15.2344 65.5545 15.2837C65.604 15.3331 65.6432 15.3917 65.67 15.4562C65.6968 15.5207 65.7107 15.5899 65.7108 15.6597C65.7108 15.7296 65.6971 15.7988 65.6705 15.8634C65.6438 15.9279 65.6047 15.9866 65.5553 16.0361L64.0763 17.5264C64.0259 17.5771 63.9658 17.6172 63.8996 17.6442C63.8334 17.6712 63.7624 17.6847 63.6909 17.6837Z" fill="#181A1E"/>
<path d="M68.8934 12.4648C68.8232 12.4645 68.7538 12.4502 68.6892 12.4226C68.6247 12.395 68.5663 12.3548 68.5176 12.3042C68.4681 12.255 68.4288 12.1964 68.402 12.1319C68.3751 12.0675 68.3613 11.9983 68.3613 11.9285C68.3613 11.8586 68.3751 11.7895 68.402 11.725C68.4288 11.6605 68.4681 11.6019 68.5176 11.5527L70.0175 10.0656C70.1189 9.97336 70.2519 9.92368 70.3889 9.92691C70.5259 9.93013 70.6565 9.986 70.7534 10.0829C70.8503 10.1798 70.9062 10.3104 70.9094 10.4474C70.9126 10.5844 70.8629 10.7174 70.7707 10.8188L69.282 12.3091C69.2313 12.3602 69.1707 12.4004 69.1038 12.4272C69.037 12.454 68.9654 12.4668 68.8934 12.4648Z" fill="#181A1E"/>
<path d="M189.247 15.0723C189.177 15.072 189.107 15.0576 189.043 15.0301C188.978 15.0025 188.92 14.9622 188.871 14.9117L187.61 13.6495C187.511 13.5496 187.455 13.4142 187.455 13.2731C187.455 13.132 187.511 12.9968 187.611 12.8971C187.711 12.7975 187.847 12.7415 187.988 12.7417C188.129 12.7419 188.264 12.798 188.364 12.8979L189.624 14.1618C189.674 14.211 189.713 14.2696 189.74 14.3341C189.767 14.3985 189.781 14.4677 189.781 14.5375C189.781 14.6074 189.767 14.6765 189.74 14.741C189.713 14.8055 189.674 14.8641 189.624 14.9133C189.575 14.9637 189.517 15.0038 189.452 15.0311C189.387 15.0584 189.317 15.0724 189.247 15.0723Z" fill="#181A1E"/>
<path d="M193.663 19.493C193.593 19.4925 193.523 19.4781 193.458 19.4505C193.393 19.423 193.335 19.3828 193.286 19.3324L192.027 18.0685C191.927 17.9687 191.871 17.8333 191.871 17.6922C191.871 17.5511 191.927 17.4158 192.027 17.3162C192.127 17.2165 192.263 17.1606 192.404 17.1608C192.545 17.1609 192.68 17.2171 192.78 17.317L194.039 18.5792C194.113 18.6538 194.163 18.7486 194.184 18.8517C194.204 18.9548 194.193 19.0616 194.153 19.1587C194.113 19.2558 194.045 19.3389 193.958 19.3975C193.871 19.4562 193.768 19.4877 193.663 19.4882V19.493Z" fill="#181A1E"/>
<path d="M187.986 19.4929C187.881 19.4924 187.778 19.4609 187.691 19.4023C187.604 19.3437 187.536 19.2606 187.496 19.1635C187.455 19.0663 187.445 18.9595 187.465 18.8564C187.486 18.7533 187.536 18.6585 187.61 18.584L188.871 17.3217C188.97 17.2219 189.106 17.1657 189.247 17.1655C189.388 17.1654 189.523 17.2213 189.623 17.3209C189.723 17.4206 189.779 17.5559 189.779 17.697C189.779 17.8381 189.724 17.9734 189.624 18.0733L188.363 19.3372C188.314 19.3867 188.255 19.426 188.19 19.4527C188.125 19.4794 188.056 19.4931 187.986 19.4929Z" fill="#181A1E"/>
<path d="M192.402 15.0726C192.297 15.0726 192.195 15.0414 192.107 14.983C192.02 14.9246 191.952 14.8416 191.912 14.7445C191.871 14.6474 191.861 14.5405 191.881 14.4374C191.902 14.3343 191.952 14.2396 192.027 14.1653L193.286 12.9015C193.385 12.8016 193.521 12.7454 193.662 12.7452C193.803 12.7451 193.938 12.801 194.038 12.9007C194.138 13.0003 194.194 13.1356 194.194 13.2767C194.194 13.4178 194.139 13.5531 194.039 13.653L192.78 14.9169C192.73 14.9664 192.671 15.0057 192.607 15.0324C192.542 15.0592 192.473 15.0728 192.402 15.0726Z" fill="#181A1E"/>
<path d="M217.227 286.127C216.762 286.128 216.308 285.991 215.921 285.733C215.534 285.476 215.232 285.109 215.053 284.68C214.875 284.251 214.828 283.778 214.918 283.322C215.008 282.866 215.231 282.447 215.559 282.118C215.888 281.789 216.306 281.565 216.762 281.473C217.218 281.382 217.691 281.429 218.12 281.606C218.55 281.784 218.917 282.085 219.176 282.472C219.434 282.858 219.572 283.313 219.572 283.777C219.571 284.4 219.324 284.996 218.885 285.437C218.446 285.877 217.849 286.125 217.227 286.127ZM217.227 282.493C216.973 282.493 216.725 282.568 216.514 282.709C216.302 282.85 216.138 283.051 216.04 283.286C215.943 283.521 215.918 283.779 215.967 284.028C216.017 284.277 216.139 284.506 216.319 284.686C216.499 284.866 216.727 284.988 216.977 285.037C217.226 285.087 217.484 285.062 217.719 284.964C217.954 284.867 218.154 284.702 218.296 284.491C218.437 284.28 218.512 284.031 218.512 283.777C218.512 283.437 218.377 283.11 218.136 282.869C217.895 282.628 217.568 282.493 217.227 282.493Z" fill="#181A1E"/>
<path d="M233.092 270.432C233.022 270.431 232.952 270.417 232.887 270.389C232.822 270.362 232.764 270.322 232.715 270.271L231.236 268.789C231.136 268.689 231.08 268.554 231.08 268.413C231.08 268.271 231.136 268.136 231.236 268.037C231.336 267.937 231.472 267.881 231.613 267.881C231.754 267.881 231.889 267.937 231.989 268.037L233.468 269.52C233.542 269.594 233.593 269.689 233.613 269.792C233.634 269.895 233.623 270.002 233.583 270.099C233.543 270.196 233.475 270.279 233.387 270.337C233.3 270.396 233.197 270.427 233.092 270.427V270.432Z" fill="#181A1E"/>
<path d="M238.27 275.613C238.2 275.612 238.13 275.598 238.066 275.571C238.001 275.543 237.943 275.503 237.894 275.452L236.415 273.97C236.366 273.921 236.327 273.862 236.3 273.797C236.273 273.733 236.26 273.664 236.26 273.594C236.26 273.524 236.274 273.455 236.3 273.39C236.327 273.326 236.367 273.267 236.416 273.218C236.465 273.168 236.524 273.129 236.589 273.103C236.653 273.076 236.722 273.062 236.792 273.062C236.862 273.062 236.931 273.076 236.996 273.103C237.06 273.13 237.119 273.169 237.168 273.218L238.647 274.701C238.697 274.75 238.736 274.809 238.763 274.873C238.79 274.937 238.804 275.007 238.804 275.077C238.804 275.146 238.79 275.216 238.763 275.28C238.736 275.344 238.697 275.403 238.647 275.452C238.598 275.503 238.54 275.543 238.475 275.571C238.41 275.599 238.34 275.613 238.27 275.613Z" fill="#181A1E"/>
<path d="M231.615 275.613C231.51 275.612 231.407 275.581 231.32 275.523C231.233 275.464 231.165 275.381 231.125 275.284C231.085 275.188 231.074 275.081 231.094 274.978C231.114 274.875 231.164 274.78 231.237 274.705L232.716 273.223C232.816 273.123 232.951 273.067 233.092 273.067C233.233 273.067 233.369 273.123 233.469 273.222C233.569 273.322 233.625 273.457 233.625 273.598C233.625 273.74 233.569 273.875 233.47 273.975L231.991 275.457C231.941 275.507 231.883 275.546 231.818 275.573C231.754 275.6 231.685 275.613 231.615 275.613Z" fill="#181A1E"/>
<path d="M236.792 270.432C236.722 270.431 236.652 270.417 236.588 270.389C236.523 270.362 236.465 270.322 236.416 270.271C236.367 270.222 236.327 270.163 236.3 270.099C236.274 270.034 236.26 269.965 236.26 269.895C236.26 269.826 236.274 269.756 236.3 269.692C236.327 269.627 236.367 269.569 236.416 269.52L237.895 268.037C237.995 267.937 238.13 267.881 238.271 267.881C238.412 267.881 238.548 267.937 238.647 268.037C238.747 268.136 238.804 268.271 238.804 268.413C238.804 268.554 238.748 268.689 238.648 268.789L237.169 270.271C237.12 270.322 237.062 270.362 236.997 270.39C236.932 270.417 236.862 270.432 236.792 270.432Z" fill="#181A1E"/>
<path d="M111.5 244.416C110.473 244.414 109.49 244.005 108.765 243.278C108.04 242.552 107.633 241.567 107.633 240.541C107.64 240.405 107.7 240.277 107.799 240.183C107.898 240.089 108.029 240.037 108.165 240.037C108.302 240.037 108.433 240.089 108.532 240.183C108.631 240.277 108.69 240.405 108.698 240.541C108.699 241.095 108.864 241.637 109.173 242.097C109.482 242.557 109.921 242.916 110.433 243.127C110.946 243.338 111.509 243.393 112.053 243.284C112.596 243.175 113.095 242.907 113.487 242.514C113.878 242.122 114.145 241.622 114.252 241.078C114.36 240.534 114.303 239.971 114.091 239.459C113.878 238.947 113.519 238.51 113.057 238.202C112.596 237.894 112.054 237.73 111.5 237.731C111.359 237.731 111.224 237.675 111.124 237.575C111.024 237.475 110.968 237.34 110.968 237.199C110.968 237.058 111.024 236.923 111.124 236.823C111.224 236.724 111.359 236.668 111.5 236.668C112.514 236.688 113.479 237.105 114.189 237.83C114.898 238.554 115.296 239.528 115.296 240.542C115.296 241.556 114.898 242.53 114.189 243.254C113.479 243.978 112.514 244.395 111.5 244.416Z" fill="#181A1E"/>
<path d="M89.1049 65.7105C90.7626 65.7105 92.1064 64.3639 92.1064 62.7027C92.1064 61.0415 90.7626 59.6948 89.1049 59.6948C87.4473 59.6948 86.1035 61.0415 86.1035 62.7027C86.1035 64.3639 87.4473 65.7105 89.1049 65.7105Z" fill="#B8D9BE"/>
<path d="M278.456 269.237C280.114 269.237 281.458 267.891 281.458 266.23C281.458 264.568 280.114 263.222 278.456 263.222C276.799 263.222 275.455 264.568 275.455 266.23C275.455 267.891 276.799 269.237 278.456 269.237Z" fill="#B8D9BE"/>
<path d="M172.349 138.973C172.249 138.973 172.15 138.944 172.065 138.89C171.98 138.837 171.911 138.76 171.868 138.669L166.086 126.484C166.026 126.356 166.019 126.209 166.066 126.076C166.114 125.943 166.212 125.834 166.34 125.774C166.468 125.713 166.614 125.706 166.748 125.754C166.881 125.801 166.989 125.9 167.05 126.028L172.831 138.213C172.861 138.276 172.878 138.345 172.882 138.415C172.885 138.484 172.875 138.554 172.851 138.62C172.828 138.686 172.791 138.746 172.744 138.798C172.697 138.85 172.641 138.892 172.577 138.921C172.506 138.956 172.428 138.973 172.349 138.973Z" fill="#181A1E"/>
<path d="M168.731 141.056C168.634 141.057 168.539 141.03 168.457 140.979L143.363 125.865C143.3 125.83 143.245 125.783 143.201 125.726C143.157 125.67 143.124 125.605 143.106 125.536C143.087 125.466 143.083 125.394 143.093 125.323C143.103 125.252 143.128 125.184 143.165 125.123C143.202 125.061 143.251 125.008 143.309 124.966C143.367 124.924 143.433 124.894 143.503 124.878C143.573 124.862 143.645 124.861 143.716 124.873C143.786 124.886 143.854 124.913 143.914 124.952L169.006 140.069C169.106 140.129 169.183 140.219 169.226 140.328C169.27 140.436 169.276 140.555 169.245 140.667C169.214 140.779 169.147 140.878 169.054 140.949C168.961 141.019 168.848 141.057 168.731 141.056Z" fill="#181A1E"/>
<path d="M167.191 145.376C167.168 145.378 167.144 145.378 167.12 145.376L156.114 143.921C155.977 143.898 155.855 143.824 155.773 143.713C155.691 143.602 155.655 143.463 155.672 143.326C155.69 143.189 155.761 143.064 155.869 142.978C155.977 142.892 156.114 142.851 156.252 142.864L167.26 144.321C167.396 144.336 167.522 144.402 167.61 144.507C167.698 144.612 167.742 144.747 167.733 144.884C167.725 145.021 167.663 145.149 167.562 145.241C167.461 145.334 167.328 145.384 167.191 145.381V145.376Z" fill="#181A1E"/>
<path d="M249.122 24.7299C248.896 24.7294 248.672 24.6992 248.454 24.64C247.968 24.5089 247.532 24.2366 247.202 23.8576C246.871 23.4785 246.661 23.0098 246.597 22.5109C246.533 22.012 246.619 21.5053 246.843 21.0552C247.068 20.6052 247.421 20.2319 247.858 19.9829C248.146 19.8153 248.466 19.7071 248.797 19.6647C249.127 19.6222 249.464 19.6463 249.785 19.7356C250.383 19.8928 250.903 20.263 251.248 20.7767C251.593 21.2904 251.738 21.9121 251.656 22.5253C251.575 23.1384 251.272 23.7007 250.806 24.1066C250.339 24.5126 249.74 24.7342 249.122 24.7299ZM249.122 20.7152C248.799 20.7166 248.486 20.8239 248.23 21.0206C247.974 21.2172 247.79 21.4925 247.705 21.804C247.604 22.1809 247.655 22.5828 247.849 22.9217C248.043 23.2606 248.363 23.5089 248.74 23.6122C248.926 23.6628 249.121 23.6761 249.312 23.6514C249.504 23.6267 249.689 23.5644 249.856 23.4682C250.024 23.372 250.17 23.2437 250.288 23.0907C250.406 22.9377 250.493 22.7629 250.543 22.5764C250.645 22.1993 250.594 21.7969 250.4 21.4577C250.206 21.1184 249.886 20.8698 249.509 20.7665C249.38 20.7322 249.248 20.7149 249.115 20.7152H249.122Z" fill="#181A1E"/>
<path d="M280.515 50.5643C280.415 50.5648 280.316 50.5367 280.231 50.4832C280.145 50.4298 280.077 50.3532 280.033 50.2624C273.215 36.1305 258.982 28.5587 258.836 28.4848C258.717 28.4159 258.629 28.3039 258.591 28.172C258.553 28.0402 258.567 27.8988 258.631 27.7771C258.694 27.6555 258.802 27.563 258.932 27.519C259.062 27.4749 259.204 27.4826 259.329 27.5406C259.475 27.6177 274.019 35.3565 280.989 49.7999C281.02 49.8629 281.037 49.9312 281.042 50.0011C281.046 50.0709 281.036 50.1409 281.013 50.207C280.99 50.2731 280.954 50.334 280.908 50.3862C280.861 50.4385 280.805 50.481 280.742 50.5113C280.671 50.5451 280.594 50.5631 280.515 50.5643Z" fill="#181A1E"/>
<path d="M234.265 19.8508C233.978 19.85 233.692 19.8117 233.414 19.7368C232.798 19.5675 232.247 19.2199 231.828 18.7377C231.409 18.2555 231.143 17.6602 231.061 17.0268C230.98 16.3934 231.088 15.7502 231.372 15.178C231.655 14.6058 232.102 14.1302 232.655 13.811C233.022 13.5983 233.427 13.4604 233.848 13.4053C234.268 13.3502 234.696 13.3789 235.105 13.4899C235.861 13.6959 236.517 14.1692 236.95 14.8218C237.384 15.4743 237.566 16.262 237.463 17.0387C237.36 17.8154 236.979 18.5284 236.39 19.0455C235.802 19.5627 235.046 19.8488 234.262 19.8508H234.265ZM234.265 14.4405C233.789 14.4424 233.327 14.6006 232.95 14.8908C232.573 15.1809 232.302 15.587 232.178 16.0464C232.027 16.6016 232.103 17.1938 232.388 17.6932C232.674 18.1926 233.145 18.5585 233.7 18.7106C233.975 18.785 234.262 18.8045 234.544 18.768C234.826 18.7315 235.099 18.6397 235.345 18.4979C235.592 18.356 235.809 18.1669 235.982 17.9414C236.156 17.7159 236.284 17.4583 236.358 17.1834C236.445 16.862 236.458 16.5247 236.394 16.1978C236.33 15.8708 236.192 15.5629 235.99 15.2979C235.788 15.0328 235.528 14.8178 235.23 14.6694C234.932 14.521 234.603 14.4433 234.27 14.4422L234.265 14.4405Z" fill="#181A1E"/>
<path d="M251.889 37.7896H186.099C183.24 37.7896 180.823 40.0539 180.7 42.8465L178.962 81.8313C178.837 84.624 181.05 86.8883 183.91 86.8883H249.702C252.559 86.8883 254.976 84.624 255.101 81.8313L256.837 42.8465C256.962 40.0539 254.746 37.7896 251.889 37.7896Z" fill="#B8D9BE"/>
<path d="M249.702 87.4193H183.91C183.161 87.4272 182.419 87.2818 181.728 86.9921C181.038 86.7024 180.414 86.2745 179.895 85.7348C179.396 85.2144 179.009 84.5976 178.757 83.9221C178.505 83.2466 178.394 82.5267 178.431 81.8067L180.167 42.8236C180.305 39.7547 182.964 37.2575 186.099 37.2575H251.889C252.638 37.2496 253.38 37.395 254.071 37.6847C254.761 37.9744 255.385 38.4023 255.904 38.9421C256.403 39.4625 256.79 40.0794 257.042 40.7548C257.294 41.4303 257.405 42.1501 257.369 42.8701L255.633 81.8549C255.501 84.9238 252.835 87.4193 249.702 87.4193ZM186.099 38.3222C183.529 38.3222 181.342 40.3617 181.23 42.8701L179.494 81.8549C179.464 82.4313 179.553 83.0076 179.755 83.5483C179.956 84.0891 180.266 84.5828 180.666 84.9992C181.086 85.4347 181.59 85.7798 182.149 86.0131C182.707 86.2465 183.307 86.3632 183.912 86.3562H249.704C252.273 86.3562 254.459 84.3151 254.571 81.8067L256.304 42.8236C256.333 42.2471 256.245 41.6706 256.044 41.1296C255.842 40.5886 255.532 40.0945 255.133 39.6776C254.713 39.2426 254.208 38.8979 253.65 38.6649C253.092 38.4318 252.492 38.3152 251.888 38.3222H186.099Z" fill="#83B08C"/>
<path d="M256.053 60.342H179.914L180.33 50.9989H256.469L256.053 60.342Z" fill="#181A1E"/>
<path d="M247.667 70.5961H233.13C232.858 70.602 232.587 70.552 232.334 70.4491C232.082 70.3463 231.853 70.1927 231.663 69.9979C231.472 69.8031 231.323 69.5713 231.226 69.3168C231.128 69.0622 231.084 68.7904 231.096 68.5181L231.176 66.7211C231.212 66.1574 231.462 65.6288 231.874 65.2428C232.287 64.8567 232.83 64.6423 233.395 64.643H247.932C248.204 64.6373 248.475 64.6875 248.727 64.7904C248.979 64.8934 249.208 65.047 249.398 65.2418C249.589 65.4365 249.737 65.6683 249.835 65.9227C249.932 66.1771 249.977 66.4489 249.965 66.7211L249.886 68.5181C249.85 69.0817 249.6 69.6103 249.188 69.9963C248.776 70.3824 248.232 70.5968 247.667 70.5961Z" fill="white"/>
</svg>
