<svg width="297" height="294" viewBox="0 0 297 294" fill="none" xmlns="http://www.w3.org/2000/svg">
<path d="M175.857 0.000107938C166.278 -0.0143467 78.8841 1.31067 31.1358 72.9272C5.7069 111.049 -11.3492 173.386 13.5687 207.345C20.9261 217.375 24.7842 215.169 64.1177 238.91C118.109 271.499 117.857 279.889 140.207 287.346C169.303 297.054 212.295 297.033 244.504 273.197C281.048 246.149 286.448 201.203 291.859 156.188C297.171 112.009 302.552 67.2481 274.3 34.2866C245.006 0.10932 197.932 0.0354416 175.857 0.000107938Z" fill="#E0EDE4"/>
<path d="M288.87 196L119.855 172.654C117.803 172.394 115.918 171.4 114.551 169.859C113.185 168.317 112.431 166.334 112.431 164.28L110.117 47.187C110.117 47.187 113.964 44.4278 116.149 43.3646C117.302 42.8059 118.595 42.5954 119.868 42.7591L288.378 64.1038C290.43 64.3637 292.315 65.3575 293.682 66.899C295.048 68.4405 295.802 70.424 295.802 72.4779V187.486C295.804 188.455 295.588 189.413 295.171 190.289C294.754 191.166 294.146 191.939 293.391 192.553C292.046 193.661 288.87 196 288.87 196Z" fill="#181A1E"/>
<path d="M283.711 197.547L115.199 176.209C113.148 175.95 111.262 174.956 109.895 173.414C108.529 171.873 107.775 169.889 107.775 167.835V52.8287C107.775 51.8974 107.975 50.9767 108.361 50.1279C108.747 49.2792 109.311 48.5218 110.015 47.9062C110.718 47.2906 111.546 46.8308 112.442 46.5575C113.339 46.2841 114.283 46.2035 115.214 46.3209L283.727 67.6673C285.778 67.9271 287.664 68.9206 289.03 70.4618C290.397 72.003 291.151 73.9861 291.151 76.0397V191.048C291.15 191.979 290.95 192.899 290.564 193.747C290.177 194.595 289.613 195.352 288.909 195.967C288.206 196.582 287.378 197.041 286.482 197.313C285.585 197.586 284.641 197.666 283.711 197.547Z" fill="white"/>
<path d="M280.13 192.814L119.225 172.433C117.735 172.242 116.366 171.518 115.375 170.397C114.383 169.277 113.836 167.835 113.836 166.343V55.4098C113.836 54.7875 113.969 54.1724 114.227 53.6053C114.485 53.0383 114.861 52.5323 115.331 52.1211C115.801 51.7099 116.354 51.4029 116.953 51.2206C117.552 51.0382 118.184 50.9848 118.805 51.0637L279.708 71.4448C281.199 71.6339 282.571 72.3567 283.564 73.4778C284.558 74.5989 285.107 76.0413 285.107 77.5351V188.47C285.107 189.093 284.973 189.708 284.714 190.276C284.456 190.843 284.078 191.349 283.607 191.76C283.137 192.171 282.583 192.478 281.983 192.66C281.383 192.842 280.751 192.894 280.13 192.814Z" fill="#E0EDE4"/>
<path d="M284.544 198.138C284.242 198.138 283.941 198.119 283.642 198.081L115.128 176.737C112.95 176.455 110.949 175.397 109.498 173.76C108.047 172.123 107.245 170.017 107.24 167.836V52.8294C107.24 51.8218 107.456 50.8257 107.874 49.9075C108.292 48.9893 108.902 48.1702 109.663 47.5047C110.425 46.8391 111.321 46.3425 112.291 46.048C113.261 45.7534 114.283 45.6676 115.29 45.7964L283.792 67.1347C285.97 67.4152 287.972 68.4725 289.423 70.1097C290.875 71.7469 291.678 73.8524 291.683 76.034V191.042C291.683 191.973 291.498 192.895 291.14 193.755C290.781 194.615 290.255 195.397 289.592 196.055C288.929 196.714 288.142 197.236 287.276 197.592C286.41 197.948 285.481 198.131 284.544 198.131V198.138ZM283.778 197.029C284.633 197.137 285.501 197.063 286.325 196.812C287.149 196.561 287.909 196.139 288.556 195.573C289.203 195.007 289.721 194.311 290.076 193.531C290.431 192.751 290.614 191.904 290.614 191.048V76.0404C290.611 74.1173 289.904 72.2609 288.624 70.8172C287.345 69.3735 285.581 68.4409 283.661 68.1931L115.146 46.8484C114.291 46.7403 113.422 46.8143 112.598 47.0654C111.774 47.3165 111.013 47.7391 110.367 48.3048C109.72 48.8706 109.201 49.5667 108.846 50.3469C108.491 51.127 108.308 51.9733 108.307 52.8294V167.836C108.311 169.759 109.019 171.615 110.298 173.059C111.577 174.502 113.341 175.435 115.261 175.683L283.778 197.029Z" fill="#181A1E"/>
<path d="M185.402 265.286L12.0935 243.087C11.5009 243.016 10.9563 242.728 10.5672 242.278C10.1781 241.829 9.97264 241.251 9.99142 240.658C10.0044 239.881 10.0674 234.395 10.0674 234.395L101.704 182.358C106.295 179.754 112.236 178.747 117.48 179.415L288.6 201.34C289.106 201.405 289.587 201.6 289.994 201.906C290.401 202.212 290.72 202.618 290.921 203.084L291.195 203.727C291.195 203.727 291.048 208.296 291.108 209.364C291.137 209.806 291.038 210.248 290.824 210.636C290.609 211.025 290.288 211.345 289.897 211.559L200.559 262.294C195.969 264.901 190.647 265.951 185.402 265.286Z" fill="#83B08C"/>
<path d="M33.4085 239.687L12.7109 237.032C10.4196 236.739 9.8165 233.72 11.8232 232.581L100.68 182.175C105.272 179.57 110.592 178.522 115.837 179.189L288.532 201.353C290.823 201.643 291.426 204.664 289.42 205.802L200.562 256.21C195.971 258.815 190.651 259.863 185.406 259.196L33.4085 239.693V239.687Z" fill="white"/>
<path d="M219.212 231.208L69.4782 211.855C67.4068 211.591 66.8635 208.864 68.6697 207.839L103.877 188.072C108.023 185.719 112.829 184.772 117.566 185.375L267.308 204.728C269.38 204.992 269.924 207.721 268.117 208.744L232.907 228.514C228.758 230.867 223.95 231.813 219.212 231.208Z" fill="#E0EDE4"/>
<path d="M188.452 259.912C187.409 259.912 186.368 259.846 185.333 259.714L100.764 248.942C100.629 248.919 100.508 248.844 100.426 248.734C100.344 248.624 100.309 248.488 100.326 248.352C100.343 248.217 100.412 248.093 100.519 248.007C100.625 247.92 100.761 247.878 100.898 247.889L185.467 258.662C190.597 259.305 195.797 258.28 200.292 255.743L289.148 205.336C289.489 205.143 289.761 204.847 289.925 204.492C290.088 204.137 290.135 203.74 290.059 203.357C289.983 202.973 289.787 202.624 289.499 202.357C289.212 202.091 288.847 201.921 288.457 201.872L115.776 179.72C110.647 179.079 105.447 180.104 100.953 182.642L88.5024 189.709C88.4414 189.746 88.3737 189.77 88.3031 189.78C88.2326 189.791 88.1606 189.787 88.0916 189.769C88.0225 189.751 87.9577 189.72 87.901 189.677C87.8443 189.634 87.7969 189.58 87.7616 189.519C87.7262 189.457 87.7036 189.389 87.6952 189.319C87.6867 189.248 87.6925 189.177 87.7123 189.109C87.7321 189.041 87.7654 188.977 87.8103 188.922C87.8552 188.867 87.9107 188.822 87.9736 188.788L100.425 181.722C105.121 179.071 110.554 178 115.914 178.67L288.609 200.834C289.221 200.912 289.792 201.179 290.243 201.598C290.693 202.016 291 202.564 291.12 203.165C291.24 203.766 291.167 204.389 290.911 204.946C290.655 205.503 290.229 205.967 289.694 206.271L200.83 256.663C197.058 258.793 192.792 259.913 188.452 259.912Z" fill="#181A1E"/>
<path d="M266.734 187.365L133.655 170.648C131.364 170.36 129.506 168.179 129.506 165.776V4.48449C129.506 2.07537 131.364 0.368112 133.655 0.6556L266.734 17.3732C269.025 17.6623 270.882 19.8418 270.882 22.2445V183.538C270.882 185.939 269.025 187.654 266.734 187.365Z" fill="#B8D9BE"/>
<path d="M267.238 187.927C267.047 187.928 266.857 187.916 266.668 187.892L133.59 171.174C131.044 170.853 128.975 168.433 128.975 165.776V4.48463C128.975 3.1291 129.495 1.92936 130.44 1.10224C130.885 0.714738 131.408 0.427184 131.975 0.259212C132.543 0.0912408 133.139 0.0468096 133.725 0.128953L266.804 16.8482C269.349 17.1694 271.419 19.5882 271.419 22.2446V183.538C271.419 184.892 270.9 186.093 269.954 186.92C269.204 187.577 268.237 187.935 267.238 187.927ZM266.803 186.84C267.238 186.902 267.682 186.871 268.104 186.747C268.526 186.623 268.916 186.411 269.248 186.124C269.959 185.502 270.35 184.584 270.35 183.538V22.2446C270.35 20.1037 268.699 18.1556 266.668 17.9082L133.588 1.18254C133.152 1.11853 132.707 1.14929 132.284 1.27268C131.861 1.39608 131.47 1.60917 131.138 1.89724C130.778 2.22444 130.493 2.62494 130.303 3.07145C130.112 3.51796 130.021 3.99997 130.035 4.48463V165.776C130.035 167.917 131.686 169.867 133.716 170.113L266.803 186.84Z" fill="#181A1E"/>
<path d="M245.995 98.1319L154.746 86.6694C153.792 86.5505 153.02 85.6415 153.02 84.6409V75.9408C153.02 74.9402 153.792 74.2271 154.746 74.3459L246.002 85.8101C246.956 85.9306 247.73 86.838 247.73 87.8386V96.5387C247.724 97.5393 246.949 98.254 245.995 98.1319Z" fill="white"/>
<path d="M246.683 122.865L154.744 111.315C153.979 111.22 153.359 110.492 153.359 109.691V100.268C153.359 99.4649 153.979 98.8947 154.744 98.9911L246.688 110.542C247.451 110.638 248.07 111.366 248.07 112.166V121.589C248.065 122.384 247.446 122.962 246.683 122.865Z" fill="white"/>
<path d="M232.343 146.796L168.394 138.766C167.345 138.634 166.494 137.641 166.494 136.535V128.196C166.494 127.096 167.345 126.31 168.394 126.442L232.343 134.473C233.393 134.604 234.243 135.597 234.243 136.703V145.045C234.243 146.154 233.393 146.931 232.343 146.796Z" fill="#E0EDE4"/>
<path d="M214.752 64.2313C222.788 57.4474 223.054 44.6442 215.345 35.6346C207.636 26.6249 194.871 24.8205 186.835 31.6044C178.798 38.3883 178.533 51.1915 186.242 60.2011C193.951 69.2108 206.715 71.0152 214.752 64.2313Z" fill="#83B08C"/>
<path d="M205.324 50.793C208.129 48.4253 208.221 43.9564 205.53 40.8114C202.839 37.6665 198.384 37.0365 195.579 39.4042C192.774 41.772 192.681 46.2409 195.372 49.3858C198.063 52.5308 202.519 53.1608 205.324 50.793Z" fill="white"/>
<path d="M186.031 59.9515C188.439 57.5761 191.367 55.2489 194.477 53.8581C194.868 53.6914 195.29 53.6085 195.715 53.6146C196.141 53.6207 196.56 53.7157 196.946 53.8934C200.115 55.2762 202.581 55.1188 205.319 54.4282C205.665 54.3467 206.023 54.3353 206.374 54.3946C206.724 54.4539 207.059 54.5828 207.358 54.7735C210.783 56.8968 213.743 59.6174 215.997 63.0673C207.099 71.9521 192.845 68.7994 186.031 59.9515Z" fill="white"/>
<path d="M200.794 69.0607C189.204 67.6634 179.773 57.0456 179.773 45.3903C179.773 33.735 189.204 25.3883 200.794 26.7855C212.385 28.1828 221.815 38.8006 221.815 50.4543C221.815 62.108 212.385 70.4516 200.794 69.0607ZM200.794 28.5073C190.148 27.2224 181.486 34.8914 181.486 45.5975C181.486 56.3036 190.148 66.0557 200.794 67.3374C211.441 68.619 220.103 60.9532 220.103 50.2487C220.103 39.5442 211.441 29.7857 200.794 28.5024V28.5073Z" fill="#E0EDE4"/>
<path d="M31.5966 147.025C26.6648 148.843 22.4784 152.671 19.6308 157.707C12.3544 170.556 -6.61141 208.233 2.36293 237.322C13.3585 272.955 106.286 272.002 130.505 256.838C136.65 252.983 161.835 226.994 129.52 205.389C99.9019 185.586 87.6612 200.122 74.0024 192.322C60.3436 184.521 50.4799 153.209 45.4365 148.758C42.1864 145.885 37.1235 144.989 31.5966 147.025Z" fill="#83B08C"/>
<path d="M60.1841 232.767C60.1135 232.766 60.0437 232.752 59.9788 232.724C59.9139 232.697 59.855 232.657 59.8057 232.606C47.5262 220.418 18.97 218.974 18.6822 218.955C18.6122 218.952 18.5435 218.935 18.48 218.905C18.4165 218.876 18.3596 218.834 18.3124 218.783C18.2652 218.731 18.2287 218.671 18.2051 218.605C18.1814 218.54 18.171 218.47 18.1745 218.401C18.1828 218.261 18.2458 218.13 18.35 218.035C18.4542 217.941 18.5913 217.89 18.7323 217.895C19.9208 217.949 48 219.372 60.5608 231.848C60.6358 231.922 60.6869 232.017 60.7078 232.12C60.7286 232.223 60.7181 232.33 60.6778 232.427C60.6374 232.524 60.5689 232.607 60.481 232.665C60.3931 232.723 60.2898 232.754 60.1841 232.754V232.767Z" fill="#B8D9BE"/>
<path d="M88.9514 233.437C88.8766 233.437 88.8027 233.421 88.7347 233.39C79.1588 229.16 72.403 232.955 72.3335 232.994C72.2112 233.065 72.0656 233.085 71.9285 233.049C71.7914 233.014 71.6742 232.925 71.6026 232.804C71.531 232.683 71.5108 232.538 71.5466 232.402C71.5824 232.266 71.6712 232.149 71.7934 232.078C72.0861 231.908 79.0699 227.957 89.1697 232.422C89.282 232.471 89.3738 232.557 89.4297 232.666C89.4855 232.774 89.502 232.898 89.4764 233.018C89.4508 233.137 89.3846 233.244 89.2889 233.32C89.1933 233.396 89.0741 233.438 88.9514 233.437Z" fill="#B8D9BE"/>
<path d="M132.56 255.984C132.646 256.264 142.909 267.781 142.909 267.781L136.066 270.463L127.805 260.475L132.56 255.984Z" fill="white"/>
<path d="M136.068 270.986C135.989 270.986 135.912 270.969 135.84 270.936C135.769 270.902 135.706 270.854 135.656 270.793L127.395 260.804C127.309 260.7 127.266 260.568 127.274 260.434C127.283 260.3 127.342 260.175 127.44 260.082L132.196 255.601C132.255 255.545 132.327 255.503 132.405 255.479C132.483 255.455 132.566 255.449 132.647 255.462C132.728 255.474 132.805 255.505 132.872 255.553C132.939 255.6 132.994 255.661 133.033 255.733C133.447 256.318 139.386 263.026 143.308 267.43C143.365 267.494 143.405 267.57 143.426 267.653C143.447 267.736 143.447 267.822 143.427 267.905C143.407 267.988 143.367 268.065 143.311 268.129C143.255 268.194 143.184 268.244 143.104 268.275L136.264 270.946C136.202 270.972 136.136 270.985 136.068 270.986ZM128.535 260.506L136.233 269.822L142.003 267.573C135.57 260.346 133.315 257.749 132.511 256.774L128.535 260.506Z" fill="#181A1E"/>
<path d="M135.951 265.765C136.254 265.063 136.783 264.482 137.455 264.111C138.637 263.48 140.1 263.695 141.132 264.548C143.719 266.68 150.708 272.713 154.668 278.488C156.067 280.53 155.252 283.128 151.919 282.95C146.467 282.658 137.851 280.104 130.837 273.599C130.438 273.233 130.14 272.773 129.968 272.262C129.797 271.751 129.758 271.205 129.855 270.675C130.041 269.644 130.333 268.635 130.725 267.663C130.929 267.186 131.297 266.796 131.763 266.563C132.229 266.33 132.763 266.268 133.27 266.39L134.213 266.613C134.557 266.695 134.919 266.655 135.236 266.5C135.553 266.345 135.806 266.085 135.951 265.765Z" fill="white"/>
<path d="M152.255 283.491C152.139 283.491 152.02 283.491 151.896 283.481C146.164 283.173 137.526 280.516 130.479 273.988C130.013 273.562 129.664 273.026 129.464 272.429C129.264 271.833 129.221 271.196 129.337 270.578C129.528 269.511 129.83 268.466 130.238 267.46C130.488 266.865 130.944 266.378 131.523 266.087C132.103 265.797 132.768 265.721 133.399 265.875L134.343 266.099C134.566 266.15 134.799 266.123 135.004 266.022C135.208 265.922 135.371 265.754 135.466 265.548C135.817 264.74 136.429 264.07 137.204 263.644C138.538 262.931 140.255 263.132 141.474 264.142C144.254 266.441 151.149 272.412 155.111 278.191C155.948 279.415 156.09 280.841 155.482 281.912C155.138 282.509 154.271 283.491 152.255 283.491ZM132.756 266.86C132.428 266.858 132.108 266.953 131.835 267.133C131.563 267.312 131.35 267.568 131.224 267.868C130.845 268.805 130.564 269.778 130.387 270.772C130.304 271.215 130.336 271.67 130.479 272.097C130.623 272.524 130.873 272.907 131.206 273.212C138.045 279.548 146.406 282.124 151.954 282.421C153.215 282.493 154.136 282.124 154.551 281.392C154.967 280.659 154.836 279.675 154.228 278.788C150.347 273.12 143.536 267.224 140.79 264.957C139.903 264.221 138.664 264.07 137.708 264.579C137.138 264.893 136.691 265.388 136.437 265.984C136.241 266.415 135.901 266.765 135.473 266.974C135.046 267.183 134.559 267.238 134.096 267.13L133.153 266.906C133.023 266.876 132.89 266.86 132.756 266.86Z" fill="#181A1E"/>
<path d="M150.793 280.812C147.63 280.812 141.661 279.472 132.234 272.375C132.178 272.333 132.132 272.28 132.096 272.22C132.061 272.16 132.038 272.093 132.028 272.024C132.019 271.955 132.023 271.885 132.041 271.817C132.059 271.75 132.09 271.687 132.132 271.631C132.175 271.576 132.228 271.529 132.289 271.494C132.349 271.459 132.416 271.436 132.486 271.427C132.555 271.417 132.626 271.422 132.694 271.439C132.762 271.457 132.825 271.488 132.881 271.53C147.166 282.291 153.034 279.418 153.094 279.385C153.219 279.32 153.365 279.306 153.501 279.347C153.636 279.389 153.749 279.482 153.816 279.606C153.882 279.731 153.896 279.876 153.854 280.011C153.812 280.145 153.718 280.258 153.593 280.323C153.493 280.373 152.602 280.812 150.793 280.812Z" fill="#181A1E"/>
<path d="M144.867 274.721C144.763 274.722 144.661 274.692 144.574 274.636C144.487 274.58 144.418 274.499 144.377 274.404C144.335 274.31 144.322 274.205 144.34 274.103C144.357 274.001 144.405 273.907 144.476 273.832L147.244 270.864C147.34 270.76 147.474 270.699 147.616 270.694C147.757 270.688 147.895 270.739 147.999 270.835C148.103 270.93 148.165 271.063 148.17 271.204C148.176 271.344 148.125 271.481 148.028 271.585L145.259 274.553C145.209 274.606 145.148 274.649 145.081 274.678C145.013 274.707 144.941 274.722 144.867 274.721Z" fill="#181A1E"/>
<path d="M142.419 272.721C142.313 272.72 142.211 272.689 142.123 272.631C142.036 272.573 141.968 272.49 141.928 272.394C141.887 272.297 141.876 272.191 141.896 272.088C141.916 271.986 141.966 271.891 142.04 271.817L145.088 268.765C145.138 268.716 145.196 268.677 145.261 268.65C145.326 268.623 145.395 268.609 145.465 268.608C145.535 268.608 145.605 268.622 145.67 268.648C145.735 268.674 145.794 268.713 145.843 268.762C145.893 268.811 145.933 268.869 145.96 268.934C145.987 268.998 146.001 269.067 146.001 269.136C146.002 269.206 145.988 269.275 145.962 269.34C145.935 269.404 145.896 269.463 145.847 269.512L142.799 272.564C142.749 272.613 142.69 272.653 142.624 272.68C142.559 272.707 142.489 272.721 142.419 272.721Z" fill="#181A1E"/>
<path d="M111.165 262.142L108.013 275.884L102.834 271.967L105.229 258.76L111.165 262.142Z" fill="white"/>
<path d="M108.015 276.413C107.898 276.414 107.784 276.375 107.691 276.304L102.517 272.39C102.439 272.331 102.379 272.251 102.343 272.16C102.307 272.069 102.298 271.97 102.315 271.874L104.71 258.666C104.725 258.583 104.76 258.504 104.813 258.437C104.865 258.37 104.933 258.316 105.01 258.28C105.087 258.244 105.172 258.227 105.258 258.231C105.343 258.234 105.426 258.258 105.5 258.3L111.436 261.684C111.536 261.74 111.614 261.827 111.66 261.931C111.706 262.035 111.717 262.151 111.692 262.262L108.54 276.002C108.521 276.089 108.48 276.169 108.421 276.236C108.362 276.302 108.287 276.353 108.202 276.383C108.142 276.404 108.079 276.414 108.015 276.413ZM103.419 271.747L107.678 274.96L110.557 262.407L105.622 259.591L103.419 271.747Z" fill="#181A1E"/>
<path d="M109.793 273.394C109.47 277.669 108.716 286.266 105.461 292.363C104.588 293.998 101.178 293.876 99.9408 291.647C97.3536 286.989 94.0598 279.097 96.0018 269.558C96.0761 269.19 96.2368 268.845 96.4709 268.551C96.705 268.256 97.0058 268.021 97.3488 267.864C98.6052 267.307 99.9277 266.912 101.285 266.687C101.501 266.648 101.723 266.653 101.938 266.703C102.152 266.752 102.354 266.845 102.531 266.975C102.708 267.104 102.857 267.269 102.968 267.458C103.079 267.646 103.15 267.856 103.176 268.073L103.586 271.434L104.017 270.877C104.332 270.469 104.776 270.178 105.277 270.05C105.779 269.923 106.308 269.965 106.782 270.172L108.412 270.883C109.4 271.312 109.879 272.332 109.793 273.394Z" fill="white"/>
<path d="M103.205 294C101.648 294 100.188 293.179 99.4862 291.901C95.3273 284.413 93.9884 276.86 95.4906 269.453C95.5828 269.003 95.7797 268.582 96.0656 268.222C96.3515 267.862 96.7184 267.574 97.1367 267.381C98.4348 266.807 99.8007 266.398 101.202 266.163C101.49 266.111 101.786 266.118 102.071 266.184C102.357 266.25 102.626 266.373 102.861 266.545C103.097 266.718 103.295 266.937 103.443 267.188C103.59 267.44 103.684 267.718 103.72 268.007L103.98 270.154C104.387 269.796 104.889 269.562 105.426 269.479C105.963 269.395 106.513 269.467 107.01 269.685L108.64 270.397C109.772 270.892 110.438 272.082 110.338 273.431C109.935 278.891 109.044 286.814 105.946 292.611C105.485 293.47 104.478 293.99 103.247 294H103.205ZM101.588 267.188C101.523 267.188 101.457 267.194 101.393 267.206C100.081 267.425 98.8013 267.807 97.5846 268.343C97.3182 268.466 97.0844 268.649 96.9019 268.877C96.7194 269.106 96.5933 269.374 96.5336 269.66C95.0783 276.813 96.3848 284.124 100.414 291.385C101.061 292.542 102.324 292.946 103.233 292.937C104.051 292.937 104.727 292.615 104.995 292.109C108.343 285.846 109.014 276.767 109.267 273.35C109.334 272.441 108.928 271.68 108.203 271.365L106.574 270.654C106.209 270.494 105.801 270.461 105.415 270.559C105.03 270.657 104.688 270.881 104.446 271.195L104.015 271.754C103.951 271.837 103.862 271.899 103.762 271.933C103.661 271.966 103.553 271.969 103.451 271.941C103.349 271.913 103.257 271.856 103.188 271.776C103.118 271.697 103.074 271.598 103.061 271.494L102.652 268.132C102.62 267.872 102.494 267.632 102.297 267.458C102.1 267.283 101.846 267.186 101.582 267.185L101.588 267.188Z" fill="#181A1E"/>
<path d="M102.629 291.325C102.539 291.325 102.45 291.303 102.371 291.26C102.292 291.217 102.226 291.155 102.177 291.079C96.138 281.658 97.506 270.807 97.5674 270.351C97.5757 270.282 97.598 270.215 97.6327 270.154C97.6675 270.094 97.7141 270.04 97.7699 269.998C97.8256 269.955 97.8893 269.924 97.9573 269.907C98.0253 269.889 98.0961 269.885 98.1657 269.895C98.2353 269.904 98.3024 269.927 98.3631 269.962C98.4239 269.996 98.4771 270.043 98.5198 270.098C98.5624 270.154 98.5937 270.217 98.6117 270.284C98.6298 270.352 98.6342 270.422 98.6249 270.491C98.6104 270.598 97.2521 281.423 103.078 290.509C103.129 290.589 103.158 290.681 103.161 290.776C103.164 290.871 103.141 290.965 103.095 291.048C103.05 291.132 102.982 291.201 102.9 291.25C102.818 291.298 102.724 291.324 102.629 291.325Z" fill="#181A1E"/>
<path d="M108.737 279.779C108.687 279.779 108.637 279.772 108.59 279.758L104.56 278.605C104.424 278.566 104.309 278.475 104.24 278.352C104.172 278.229 104.155 278.083 104.195 277.948C104.234 277.813 104.326 277.699 104.45 277.631C104.574 277.563 104.72 277.546 104.856 277.585L108.884 278.738C109.009 278.773 109.117 278.851 109.188 278.958C109.259 279.066 109.288 279.195 109.27 279.323C109.252 279.45 109.188 279.567 109.09 279.651C108.992 279.735 108.866 279.78 108.737 279.779Z" fill="#181A1E"/>
<path d="M107.963 283.263C107.899 283.263 107.835 283.251 107.775 283.229L103.971 281.808C103.838 281.758 103.731 281.658 103.672 281.53C103.614 281.402 103.609 281.256 103.659 281.125C103.709 280.993 103.81 280.886 103.939 280.828C104.068 280.77 104.215 280.766 104.347 280.815L108.152 282.237C108.269 282.28 108.367 282.364 108.429 282.472C108.491 282.58 108.512 282.706 108.49 282.828C108.467 282.951 108.402 283.061 108.306 283.141C108.209 283.22 108.088 283.263 107.963 283.263Z" fill="#181A1E"/>
<path d="M76.0438 199.369C76.0438 199.369 95.3265 197.091 112.704 206.863C114.854 208.073 116.639 209.831 117.876 211.956C119.114 214.08 119.757 216.494 119.742 218.949C119.687 228.869 118.629 247.002 112.51 262.745C112.427 262.957 112.302 263.15 112.142 263.312C111.982 263.475 111.79 263.603 111.579 263.69C111.367 263.777 111.14 263.82 110.911 263.818C110.682 263.815 110.456 263.766 110.247 263.675L102.427 260.236C102.168 260.123 101.942 259.948 101.77 259.725C101.597 259.503 101.484 259.241 101.44 258.964C100.865 255.326 98.9227 241.496 100.87 231.465C103.133 219.821 65.3555 207.48 65.3555 207.48L76.0438 199.369Z" fill="#181A1E"/>
<path d="M134.669 258.406L127.7 262.955C127.475 263.101 127.205 263.163 126.939 263.13C126.672 263.097 126.426 262.97 126.245 262.773C121.957 258.103 97.7485 231.88 91.6782 228.447C85.0114 224.675 72.5556 218.998 61.2415 219.065C49.9274 219.133 47.5391 211.327 47.5391 211.327L63.6718 200.975C63.6718 200.975 91.5877 204.114 103.384 213.645C114.033 222.249 131.694 251.327 135.019 256.892C135.168 257.14 135.215 257.436 135.15 257.719C135.085 258.001 134.913 258.247 134.669 258.406Z" fill="#181A1E"/>
<path d="M119.61 232.804C119.525 232.805 119.441 232.785 119.366 232.747C119.291 232.708 119.226 232.653 119.176 232.584C114.472 226.083 107.152 217.375 103.045 214.057C98.6016 210.467 91.3397 207.372 81.4647 204.859C81.3274 204.824 81.2097 204.737 81.1374 204.616C81.0651 204.495 81.0441 204.35 81.079 204.214C81.114 204.078 81.202 203.961 81.3238 203.889C81.4455 203.817 81.591 203.796 81.7282 203.831C91.7536 206.383 99.1546 209.545 103.719 213.233C107.898 216.606 115.3 225.407 120.051 231.965C120.092 232.021 120.121 232.085 120.137 232.153C120.153 232.221 120.156 232.291 120.144 232.36C120.133 232.429 120.108 232.495 120.071 232.554C120.034 232.613 119.985 232.664 119.928 232.705C119.836 232.772 119.724 232.807 119.61 232.804Z" fill="#83B08C"/>
<path d="M63.4141 175.745L65.4871 179.967C67.9447 184.996 71.727 189.269 76.4326 192.334L78.339 193.576C79.561 194.372 81.0149 194.743 82.4721 194.629L82.6952 194.613C84.9183 194.441 87.1278 195.085 88.9045 196.423L83.9048 198.02C80.8572 199.004 77.5417 198.755 74.6782 197.326C71.2135 195.597 68.1833 193.119 65.8105 190.073C59.9651 182.508 58.6133 177.851 58.6133 177.851L63.4141 175.745Z" fill="white"/>
<path d="M80.1081 199.143C78.1369 199.143 76.1934 198.682 74.4357 197.796C70.8944 196.038 67.7989 193.508 65.3805 190.395C59.5399 182.846 58.1493 178.189 58.0927 177.996C58.0574 177.873 58.0681 177.741 58.1228 177.625C58.1774 177.509 58.2724 177.417 58.3902 177.365L63.1991 175.259C63.3254 175.204 63.4683 175.199 63.598 175.246C63.7276 175.293 63.8339 175.388 63.8945 175.511L65.961 179.735C68.378 184.674 72.0953 188.872 76.7189 191.884L78.6253 193.125C79.7505 193.852 81.0853 194.191 82.4236 194.089L82.6468 194.073C85.0046 193.889 87.3478 194.575 89.228 196C89.3057 196.059 89.3656 196.138 89.4013 196.228C89.437 196.318 89.4471 196.417 89.4304 196.512C89.4137 196.608 89.3709 196.697 89.3067 196.77C89.2425 196.843 89.1593 196.897 89.0663 196.927L84.0649 198.523C82.7864 198.933 81.4514 199.142 80.1081 199.143ZM59.2698 178.139C59.7549 179.454 61.5336 183.667 66.2229 189.749C68.5444 192.736 71.5155 195.164 74.9143 196.85C77.6506 198.223 80.8238 198.461 83.7366 197.511L87.6837 196.252C86.1833 195.388 84.454 194.995 82.7244 195.128L82.5029 195.146C80.9278 195.264 79.3573 194.864 78.0351 194.005L76.1287 192.764C71.3472 189.649 67.5026 185.309 65.0021 180.201L63.1603 176.436L59.2698 178.139Z" fill="#181A1E"/>
<path d="M57.0481 216.248C57.0481 216.248 50.7062 221.056 47.22 219.673C43.7337 218.291 49.7344 212.367 51.5018 212.138C53.2692 211.908 57.0481 216.248 57.0481 216.248Z" fill="#181A1E"/>
<path d="M58.1536 145.324C61.0059 144.931 64.2577 147.412 63.9359 151.641C63.6707 155.096 60.0422 156.138 58.3638 157.984C52.9323 163.95 58.1455 170.427 53.8992 176.378C49.8567 182.047 43.7121 178.145 35.4978 184.656C29.0298 189.781 52.5426 181.993 44.3104 187.4C37.7438 191.714 25.4239 191.353 18.4611 183.425C11.8411 175.886 10.3179 164.568 17.1012 159.108C23.1989 154.198 27.5034 159.925 34.0053 155.319C40.4167 150.779 38.6542 146.376 42.6579 144.48C48.1314 141.886 50.0686 146.437 58.1536 145.324Z" fill="#181A1E"/>
<path d="M24.4141 187.558C24.7779 185.434 25.3066 182.936 25.8467 181.295C27.5058 176.226 28.6393 172.929 34.3311 169.916C35.1851 169.468 36.0754 169.092 36.9927 168.791L40.432 167.651C40.432 167.651 54.6293 163.62 60.3211 169.069C60.782 169.511 61.3641 170.009 61.7376 170.592L65.4422 176.141L65.4082 176.154C64.6314 176.468 63.9309 176.943 63.3534 177.547C62.776 178.152 62.3349 178.871 62.0595 179.658C61.784 180.445 61.6807 181.281 61.7562 182.111C61.8318 182.941 62.0845 183.745 62.4976 184.47C64.5221 188.003 67.313 192.12 70.0975 193.833C70.9755 194.375 78.0418 197.259 78.0418 197.259C78.0418 197.259 79.7768 202.511 68.9009 207.014C58.025 211.518 50.1017 213.15 47.8201 218.71C46.4683 222.002 40.9689 206.219 37.4277 191.432C37.1007 190.055 36.2838 188.842 35.1274 188.015C33.971 187.189 32.5529 186.805 31.1343 186.935L24.4141 187.558Z" fill="white"/>
<path d="M47.3405 219.68H47.2693C46.7551 219.639 45.5504 219.548 42.3504 210.43C40.4731 205.072 38.4842 198.19 36.893 191.552C36.5888 190.303 35.8437 189.204 34.7931 188.455C33.7424 187.705 32.456 187.354 31.1672 187.466L24.4599 188.085C24.3791 188.094 24.2973 188.084 24.221 188.056C24.1447 188.028 24.0759 187.983 24.0201 187.924C23.9644 187.865 23.9231 187.794 23.8995 187.716C23.876 187.638 23.8708 187.556 23.8843 187.476C24.3144 184.964 24.8545 182.592 25.3396 181.131C26.9566 176.176 28.1354 172.596 34.0795 169.45C34.9613 168.988 35.8809 168.601 36.8284 168.293L40.2677 167.153C40.8806 166.978 54.8498 163.094 60.6888 168.691L60.9297 168.92C61.4043 169.331 61.8263 169.798 62.1861 170.312L65.8842 175.851C65.9282 175.917 65.957 175.991 65.9685 176.068C65.98 176.146 65.9739 176.225 65.9506 176.301C65.9274 176.376 65.8876 176.445 65.8342 176.502C65.7807 176.56 65.7149 176.606 65.6417 176.635L65.6077 176.65C64.9014 176.935 64.2645 177.367 63.7394 177.917C63.2144 178.466 62.8132 179.12 62.5628 179.836C62.3123 180.551 62.2182 181.312 62.2869 182.066C62.3555 182.82 62.5852 183.552 62.9607 184.211C65.6352 188.869 68.1981 192.045 70.3714 193.388C70.9874 193.767 75.4116 195.621 78.2364 196.774C78.3074 196.802 78.3712 196.846 78.4237 196.901C78.4761 196.957 78.5159 197.023 78.5404 197.095C78.6164 197.329 80.3014 202.867 69.0972 207.505C66.6474 208.521 64.3012 209.405 62.2314 210.188C55.1166 212.873 49.9859 214.813 48.3042 218.912C48.0245 219.562 47.6073 219.68 47.3405 219.68ZM31.6556 186.384C33.1048 186.389 34.5104 186.877 35.6474 187.77C36.7845 188.662 37.5875 189.907 37.9279 191.307C41.3446 205.57 45.7558 217.646 47.2742 218.578C47.2839 218.558 47.2952 218.536 47.3065 218.509C49.1628 213.983 54.4811 211.974 61.8417 209.193C63.9034 208.415 66.2416 207.531 68.6768 206.523C77.6414 202.811 77.6883 198.637 77.5573 197.639C76.1392 197.06 70.6188 194.789 69.7957 194.283C67.4381 192.828 64.8234 189.614 62.0212 184.73C61.5956 183.984 61.3256 183.16 61.2271 182.309C61.1287 181.457 61.2038 180.594 61.4481 179.772C61.6924 178.95 62.1008 178.185 62.649 177.522C63.1972 176.86 63.874 176.314 64.6391 175.917L61.2838 170.887C60.9689 170.445 60.6019 170.042 60.1907 169.687L59.9401 169.451C54.5393 164.275 40.7156 168.123 40.5766 168.166L37.1598 169.291C36.2678 169.579 35.4023 169.943 34.5726 170.378C29.0086 173.323 27.943 176.556 26.3454 181.46C25.9233 182.745 25.4495 184.768 25.0518 186.972L31.0638 186.418C31.2675 186.392 31.4632 186.384 31.6588 186.384H31.6556Z" fill="#181A1E"/>
<path d="M66.795 200.836L61.5284 199.346C61.1433 199.237 60.7366 199.229 60.3473 199.322C59.958 199.414 59.5991 199.604 59.305 199.874L57.0186 201.976C56.5814 202.376 56.0071 202.595 55.4129 202.588C52.816 202.561 40.8518 199.805 39.5421 197.834C38.8953 196.859 37.9138 193.448 37.1716 190.623C36.871 189.476 36.1689 188.472 35.1911 187.792C34.2133 187.113 33.0237 186.801 31.8355 186.913L26.5527 187.404C26.5527 187.404 28.8165 199.982 33.3732 203.795C36.9112 206.755 44.9105 207.89 56.3346 206.568C56.3346 206.568 58.7164 206.167 60.5938 203.677C61.792 202.084 64.9597 202.696 66.795 202.142C66.9385 202.102 67.065 202.017 67.1552 201.899C67.2453 201.781 67.2941 201.637 67.2941 201.489C67.2941 201.341 67.2453 201.197 67.1552 201.079C67.065 200.961 66.9385 200.876 66.795 200.836Z" fill="white"/>
<path d="M47.5822 207.643C40.7908 207.643 35.7523 206.472 33.0292 204.2C28.3771 200.308 26.1198 188.017 26.026 187.497C26.0129 187.424 26.0151 187.35 26.0323 187.279C26.0496 187.208 26.0816 187.141 26.1263 187.082C26.171 187.024 26.2274 186.975 26.292 186.939C26.3565 186.904 26.4279 186.882 26.5014 186.875L31.7858 186.384C33.0997 186.256 34.4163 186.599 35.4984 187.35C36.5805 188.101 37.3569 189.211 37.6878 190.481C39.0428 195.646 39.7107 197.117 39.9872 197.535C41.0932 199.202 52.5674 202.02 55.4166 202.051C55.8743 202.055 56.3165 201.886 56.6536 201.579L58.9416 199.476C59.3041 199.147 59.7453 198.915 60.2232 198.803C60.7012 198.69 61.2001 198.701 61.6727 198.834L66.9425 200.326C67.1946 200.398 67.4166 200.548 67.5754 200.756C67.7342 200.963 67.8213 201.216 67.8236 201.476C67.826 201.737 67.7435 201.991 67.5885 202.201C67.4335 202.411 67.2143 202.566 66.9636 202.642C66.265 202.852 65.4436 202.905 64.5736 202.963C63.1442 203.055 61.663 203.149 61.034 203.989C59.0532 206.623 56.5436 207.073 56.4369 207.091C53.4985 207.444 50.542 207.628 47.5822 207.643ZM27.1951 187.876C27.698 190.349 29.9052 200.194 33.7229 203.387C37.235 206.325 45.4591 207.291 56.2849 206.04C56.2849 206.04 58.4646 205.631 60.177 203.353C61.1052 202.12 62.9114 202.004 64.5041 201.908C65.3126 201.856 66.071 201.807 66.6499 201.632C66.6806 201.623 66.7076 201.604 66.7269 201.579C66.7462 201.554 66.7566 201.523 66.7566 201.491C66.7566 201.459 66.7462 201.428 66.7269 201.403C66.7076 201.378 66.6806 201.359 66.6499 201.351L61.3833 199.86C61.0864 199.777 60.773 199.77 60.473 199.842C60.173 199.913 59.8963 200.059 59.6693 200.266L57.3796 202.366C56.8516 202.851 56.1585 203.12 55.4392 203.119H55.4085C52.8536 203.093 40.5628 200.331 39.0994 198.127C38.5416 197.287 37.7201 194.809 36.6578 190.757C36.3909 189.731 35.7647 188.834 34.8915 188.226C34.0184 187.618 32.9556 187.34 31.8941 187.44L27.1951 187.876Z" fill="#181A1E"/>
<path d="M41.0196 167.74C41.0196 167.74 43.9836 158.244 44.0919 157.091C44.0919 157.091 43.1476 156.596 43.2009 155.15C43.3012 152.401 46.0485 153.763 46.0485 153.763L46.3185 153.827C47.8935 154.204 49.5445 154.123 51.0741 153.593L54.2871 152.479C54.2871 152.479 54.9614 153.652 54.1771 155.915C53.8036 156.993 53.8764 158.247 54.0736 159.557C54.0965 159.723 54.0534 159.891 53.9535 160.026C53.8535 160.161 53.7046 160.251 53.5384 160.279L52.6798 160.409C52.2319 161.441 51.8309 162.057 51.0887 162.72C50.8861 162.902 50.6195 162.998 50.3465 162.986C49.8022 162.956 49.2673 162.832 48.765 162.622L48.2799 166.652L50.4111 166.599C50.4111 166.599 51.1792 169.125 47.1448 170.953C44.9166 171.961 41.7618 171.756 39.3832 171.37C39.1152 171.327 38.8671 171.204 38.6728 171.015C38.4784 170.827 38.3474 170.584 38.2977 170.319C38.2479 170.054 38.2819 169.78 38.3949 169.535C38.5079 169.29 38.6944 169.086 38.9288 168.95L41.0196 167.74Z" fill="white"/>
<path d="M42.9783 172.215C41.7417 172.205 40.5078 172.098 39.2883 171.894C38.9118 171.834 38.5632 171.659 38.2902 171.395C38.0173 171.13 37.8334 170.788 37.7636 170.416C37.6939 170.043 37.7417 169.659 37.9006 169.314C38.0595 168.97 38.3217 168.683 38.6512 168.492L40.5674 167.385C41.6588 163.884 43.2128 158.729 43.5054 157.32C43.1416 156.999 42.6145 156.316 42.6581 155.131C42.6937 154.177 43.0155 153.512 43.6186 153.157C44.6002 152.579 45.9002 153.112 46.2188 153.26L46.4338 153.311C47.9096 153.666 49.4568 153.59 50.8903 153.093L54.1016 151.978C54.2204 151.936 54.3503 151.937 54.4685 151.98C54.5868 152.024 54.6859 152.107 54.7484 152.216C54.7808 152.274 55.5311 153.626 54.6789 156.087C54.3167 157.135 54.4347 158.39 54.5997 159.479C54.6447 159.784 54.5666 160.094 54.3825 160.342C54.1983 160.589 53.923 160.755 53.6165 160.802L53.0474 160.889C52.6887 161.741 52.1403 162.502 51.4433 163.113C51.134 163.39 50.7272 163.534 50.3114 163.515C49.9388 163.496 49.5696 163.436 49.2102 163.337L48.8787 166.105L50.3939 166.068C50.51 166.069 50.6232 166.105 50.7172 166.173C50.8112 166.241 50.8814 166.336 50.9178 166.446C50.955 166.568 51.7715 169.438 47.3604 171.434C46.0813 172.011 44.5161 172.215 42.9783 172.215ZM44.66 153.955C44.4865 153.949 44.3146 153.989 44.1619 154.071C43.8935 154.232 43.7464 154.599 43.7254 155.17C43.6865 156.239 44.3139 156.615 44.3398 156.626C44.4294 156.677 44.5027 156.752 44.5513 156.842C44.5999 156.933 44.6219 157.035 44.6147 157.137C44.5112 158.313 41.8319 166.92 41.5262 167.898C41.4861 168.024 41.4003 168.132 41.2853 168.2L39.1832 169.411C39.0432 169.488 38.9314 169.607 38.8637 169.752C38.7961 169.896 38.776 170.058 38.8065 170.214C38.8344 170.373 38.9119 170.519 39.028 170.631C39.144 170.744 39.2928 170.818 39.4532 170.842C41.6766 171.201 44.7764 171.431 46.9092 170.464C49.5466 169.269 49.9152 167.822 49.9249 167.136L48.2788 167.177C48.2027 167.176 48.1275 167.16 48.0576 167.13C47.9877 167.101 47.9244 167.057 47.8713 167.003C47.8196 166.947 47.7806 166.88 47.7572 166.808C47.7337 166.735 47.7263 166.658 47.7355 166.582L48.2206 162.554C48.2299 162.473 48.2583 162.394 48.3034 162.325C48.3486 162.257 48.4093 162.199 48.4807 162.158C48.5522 162.116 48.6323 162.092 48.7149 162.087C48.7975 162.081 48.8801 162.095 48.9563 162.127C49.4022 162.313 49.877 162.422 50.3599 162.448C50.4253 162.452 50.4907 162.441 50.5522 162.419C50.6136 162.396 50.6697 162.361 50.7173 162.317C51.3721 161.732 51.7408 161.192 52.1726 160.192C52.2071 160.108 52.2629 160.034 52.3346 159.978C52.4063 159.922 52.4914 159.885 52.5817 159.871L53.4403 159.741C53.4679 159.736 53.4926 159.721 53.5092 159.698C53.5258 159.676 53.533 159.648 53.5292 159.62C53.3449 158.406 53.2171 156.993 53.6553 155.727C54.0935 154.461 54.0337 153.617 53.9351 153.143L51.2331 154.079C49.6104 154.648 47.8572 154.74 46.1832 154.344L45.9148 154.28C45.8753 154.271 45.8373 154.257 45.8016 154.238C45.4435 154.07 45.0555 153.974 44.66 153.955Z" fill="#181A1E"/>
<path d="M48.7567 163.151C48.6785 163.151 48.6013 163.134 48.5303 163.102L47.9418 162.827C47.878 162.797 47.8208 162.756 47.7733 162.704C47.7259 162.653 47.6891 162.593 47.665 162.527C47.641 162.461 47.6302 162.392 47.6333 162.322C47.6364 162.252 47.6533 162.184 47.683 162.12C47.7128 162.057 47.7547 162 47.8066 161.953C47.8584 161.906 47.9191 161.869 47.9852 161.845C48.0513 161.822 48.1214 161.811 48.1916 161.814C48.2619 161.817 48.3308 161.834 48.3945 161.863L48.9847 162.138C49.0949 162.189 49.1842 162.276 49.2379 162.384C49.2915 162.493 49.3062 162.616 49.2796 162.734C49.253 162.852 49.1867 162.957 49.0916 163.033C48.9965 163.108 48.8783 163.149 48.7567 163.148V163.151Z" fill="#181A1E"/>
<path d="M92.1998 195.878L67.877 203.224L75.9975 175.808C76.15 175.295 76.4289 174.829 76.8089 174.45C77.189 174.071 77.6582 173.793 78.174 173.64L97.9159 167.673C99.1691 167.294 100.341 168.398 99.9825 169.623L92.1998 195.878Z" fill="#181A1E"/>
<path d="M86.4007 185.07C86.1128 186.058 85.1572 187.076 84.2662 187.346C83.3753 187.616 82.8853 187.025 83.1715 186.045C83.4577 185.065 84.415 184.039 85.306 183.769C86.1969 183.499 86.6885 184.082 86.4007 185.07Z" fill="white"/>
<path d="M91.35 197.727L53.1889 209.251C53.0014 209.308 52.8044 209.327 52.6094 209.308C52.4143 209.289 52.2249 209.232 52.0521 209.14C51.8792 209.049 51.7263 208.924 51.602 208.773C51.4777 208.623 51.3845 208.45 51.3277 208.263L51.2129 208.061L92.2216 195.675L92.3364 195.877C92.452 196.252 92.4132 196.658 92.2282 197.005C92.0433 197.352 91.7275 197.611 91.35 197.727Z" fill="#181A1E"/>
<path d="M116.762 61.4182L145.884 69.8245L166.547 46.9893L116.762 61.4182Z" fill="white"/>
<path d="M131.274 74.9876L127.207 64.4325L154.279 53.4453L132.326 65.9101L138.414 67.6671L131.274 74.9876Z" fill="#E0EDE4"/>
<path d="M131.968 71.9518C131.947 71.9534 131.927 71.9534 131.906 71.9518C131.842 71.9442 131.779 71.924 131.722 71.8924C131.666 71.8607 131.616 71.8182 131.576 71.7673C131.535 71.7164 131.506 71.6581 131.489 71.5957C131.471 71.5334 131.466 71.4683 131.475 71.4041L132.052 66.6774C132.057 66.6112 132.076 66.5467 132.107 66.4878C132.138 66.429 132.181 66.3769 132.233 66.3349C132.284 66.2928 132.344 66.2616 132.408 66.2431C132.473 66.2246 132.54 66.2192 132.607 66.2272C132.673 66.2352 132.737 66.2565 132.795 66.2898C132.853 66.323 132.904 66.3676 132.944 66.4207C132.984 66.4739 133.013 66.5345 133.029 66.5991C133.045 66.6636 133.047 66.7307 133.037 66.7963L132.459 71.523C132.444 71.6415 132.385 71.7503 132.295 71.8292C132.204 71.9081 132.088 71.9516 131.968 71.9518Z" fill="white"/>
<path d="M9.48267 144.034C9.37717 144.034 9.27412 144.002 9.18648 143.944C9.09884 143.886 9.03051 143.803 8.99008 143.706C8.94965 143.609 8.93892 143.503 8.95924 143.4C8.97956 143.297 9.03003 143.202 9.10429 143.128L10.3478 141.895C10.4479 141.795 10.5837 141.739 10.7253 141.739C10.8669 141.739 11.0028 141.795 11.1029 141.895C11.203 141.994 11.2593 142.129 11.2593 142.27C11.2593 142.41 11.203 142.545 11.1029 142.645L9.86266 143.878C9.81284 143.928 9.7536 143.967 9.68838 143.994C9.62315 144.021 9.55323 144.034 9.48267 144.034Z" fill="#181A1E"/>
<path d="M14.1721 139.372C14.0666 139.372 13.9636 139.34 13.8759 139.282C13.7883 139.224 13.72 139.141 13.6795 139.044C13.6391 138.947 13.6284 138.841 13.6487 138.738C13.669 138.635 13.7195 138.541 13.7937 138.466L15.0356 137.234C15.1357 137.135 15.2716 137.079 15.4132 137.079C15.5548 137.079 15.6906 137.135 15.7907 137.234C15.8909 137.334 15.9471 137.469 15.9471 137.609C15.9471 137.75 15.8909 137.885 15.7907 137.984L14.5505 139.216C14.5011 139.266 14.4422 139.305 14.3772 139.332C14.3122 139.359 14.2425 139.373 14.1721 139.372Z" fill="#181A1E"/>
<path d="M15.4133 144.033C15.2707 144.031 15.1347 143.974 15.0349 143.873L13.7931 142.639C13.7024 142.538 13.6542 142.406 13.6585 142.27C13.6628 142.135 13.7192 142.006 13.8161 141.91C13.9131 141.815 14.0432 141.76 14.1796 141.757C14.3161 141.754 14.4486 141.803 14.5498 141.894L15.7917 143.127C15.8659 143.202 15.9163 143.296 15.9367 143.399C15.957 143.501 15.9464 143.608 15.9062 143.705C15.866 143.801 15.7979 143.884 15.7105 143.942C15.6231 144.001 15.5203 144.032 15.4149 144.033H15.4133Z" fill="#181A1E"/>
<path d="M10.7215 139.371C10.6511 139.371 10.5815 139.356 10.5169 139.329C10.4522 139.301 10.3937 139.261 10.3447 139.211L9.10288 137.979C9.00798 137.878 8.95639 137.745 8.95908 137.607C8.96178 137.469 9.01854 137.337 9.1173 137.24C9.21607 137.143 9.34904 137.088 9.48797 137.087C9.62689 137.086 9.76081 137.138 9.86125 137.234L11.1031 138.466C11.1774 138.54 11.2278 138.635 11.2482 138.737C11.2685 138.84 11.2577 138.947 11.2173 139.044C11.1769 139.14 11.1086 139.223 11.0209 139.281C10.9333 139.34 10.8302 139.371 10.7247 139.371H10.7215Z" fill="#181A1E"/>
<path d="M69.692 14.1628C69.5833 14.1633 69.4771 14.1307 69.3875 14.0696C69.298 14.0084 69.2294 13.9216 69.1909 13.8206C69.1524 13.7197 69.1458 13.6095 69.1721 13.5048C69.1983 13.4 69.2562 13.3057 69.3378 13.2345L70.6525 12.0798C70.7584 11.9865 70.8973 11.9388 71.0386 11.9472C71.1799 11.9557 71.3121 12.0195 71.406 12.1247C71.4999 12.2299 71.5479 12.3679 71.5394 12.5083C71.5309 12.6486 71.4666 12.7799 71.3607 12.8732L70.0445 14.0295C69.9472 14.1151 69.8219 14.1625 69.692 14.1628Z" fill="#181A1E"/>
<path d="M74.6522 9.79679C74.5439 9.79635 74.4383 9.76331 74.3494 9.70203C74.2604 9.64075 74.1922 9.5541 74.1539 9.45354C74.1155 9.35298 74.1087 9.24322 74.1345 9.13877C74.1602 9.03431 74.2173 8.94007 74.2981 8.86848L75.6143 7.70889C75.7215 7.61582 75.8616 7.56886 76.0036 7.57835C76.1457 7.58784 76.2782 7.65299 76.3719 7.75948C76.4656 7.86597 76.5129 8.00507 76.5033 8.14618C76.4938 8.2873 76.4282 8.41886 76.3209 8.51193L75.0047 9.6683C74.9065 9.75176 74.7814 9.79736 74.6522 9.79679Z" fill="#181A1E"/>
<path d="M75.6062 14.5202C75.5307 14.5206 75.456 14.5048 75.3871 14.4741C75.3182 14.4433 75.2567 14.3983 75.2068 14.3419L74.0426 13.0362C73.9487 12.931 73.9007 12.793 73.9092 12.6527C73.9177 12.5123 73.9819 12.3811 74.0879 12.2878C74.1938 12.1945 74.3327 12.1468 74.474 12.1553C74.6153 12.1637 74.7475 12.2275 74.8414 12.3327L76.0056 13.6385C76.0739 13.7149 76.1184 13.8093 76.134 13.9103C76.1495 14.0112 76.1353 14.1145 76.0931 14.2077C76.0509 14.3008 75.9825 14.3799 75.8961 14.4353C75.8097 14.4908 75.7091 14.5203 75.6062 14.5202Z" fill="#181A1E"/>
<path d="M71.2078 9.58725C71.1321 9.58729 71.0574 9.57126 70.9885 9.54023C70.9196 9.50921 70.8582 9.46391 70.8084 9.40737L69.6441 8.10163C69.5502 7.99642 69.5022 7.85846 69.5107 7.7181C69.5192 7.57775 69.5835 7.44649 69.6894 7.3532C69.7953 7.25992 69.9342 7.21225 70.0756 7.22068C70.2169 7.22912 70.349 7.29296 70.4429 7.39817L71.6072 8.70552C71.6754 8.78193 71.72 8.87631 71.7355 8.97729C71.751 9.07827 71.7368 9.18155 71.6946 9.27471C71.6524 9.36786 71.584 9.44692 71.4977 9.50237C71.4113 9.55782 71.3106 9.5873 71.2078 9.58725Z" fill="#181A1E"/>
<path d="M57.0497 30.2172C56.9931 30.2172 56.9365 30.2172 56.888 30.2172C56.1753 30.1961 55.4995 29.8974 55.0067 29.3855C54.5139 28.8737 54.2436 28.1898 54.2542 27.4816C54.2648 26.7735 54.5555 26.0979 55.0634 25.6009C55.5714 25.1038 56.2558 24.8252 56.9688 24.8252C57.6819 24.8252 58.3663 25.1038 58.8743 25.6009C59.3822 26.0979 59.6729 26.7735 59.6835 27.4816C59.6941 28.1898 59.4238 28.8737 58.931 29.3855C58.4382 29.8974 57.7624 30.1961 57.0497 30.2172ZM57.0497 25.8358C56.6249 25.837 56.2164 25.9987 55.9071 26.288C55.5978 26.5773 55.4109 26.9726 55.3842 27.3937C55.3644 27.7211 55.4427 28.047 55.6093 28.3303C55.7759 28.6135 56.0232 28.8413 56.3201 28.9849C56.617 29.1285 56.9501 29.1815 57.2773 29.1372C57.6046 29.0928 57.9112 28.9532 58.1585 28.7358C58.4058 28.5184 58.5827 28.2331 58.6668 27.9159C58.7509 27.5987 58.7385 27.2639 58.6311 26.9537C58.5237 26.6435 58.3261 26.372 58.0633 26.1733C57.8006 25.9746 57.4844 25.8577 57.1548 25.8374L57.0497 25.8358Z" fill="#181A1E"/>
<path d="M183.146 279.408C183.038 279.407 182.932 279.374 182.844 279.313C182.755 279.252 182.686 279.165 182.648 279.065C182.61 278.964 182.603 278.854 182.629 278.75C182.654 278.645 182.711 278.551 182.792 278.48L184.108 277.323C184.162 277.277 184.223 277.242 184.29 277.219C184.357 277.197 184.427 277.188 184.498 277.193C184.568 277.197 184.637 277.216 184.7 277.247C184.763 277.278 184.82 277.321 184.866 277.374C184.912 277.426 184.948 277.488 184.97 277.554C184.993 277.62 185.002 277.691 184.997 277.76C184.993 277.83 184.974 277.899 184.943 277.961C184.912 278.024 184.868 278.08 184.815 278.126L183.5 279.283C183.401 279.365 183.276 279.41 183.146 279.408Z" fill="#181A1E"/>
<path d="M188.118 275.04C188.01 275.04 187.904 275.007 187.815 274.946C187.725 274.885 187.657 274.798 187.619 274.698C187.58 274.597 187.574 274.487 187.599 274.383C187.625 274.278 187.683 274.184 187.764 274.113L189.078 272.957C189.131 272.91 189.193 272.875 189.26 272.852C189.327 272.83 189.397 272.821 189.468 272.825C189.538 272.83 189.607 272.848 189.67 272.879C189.734 272.91 189.79 272.954 189.837 273.006C189.883 273.059 189.919 273.12 189.941 273.187C189.964 273.253 189.973 273.323 189.969 273.393C189.964 273.463 189.946 273.532 189.914 273.594C189.883 273.657 189.84 273.713 189.787 273.76L188.472 274.914C188.373 274.998 188.247 275.042 188.118 275.04Z" fill="#181A1E"/>
<path d="M189.071 279.766C188.995 279.767 188.92 279.751 188.851 279.72C188.782 279.69 188.72 279.645 188.67 279.588L187.507 278.282C187.461 278.23 187.425 278.17 187.402 278.104C187.379 278.038 187.37 277.968 187.374 277.899C187.378 277.829 187.396 277.761 187.427 277.699C187.457 277.636 187.5 277.58 187.553 277.534C187.605 277.488 187.666 277.452 187.733 277.429C187.799 277.407 187.869 277.397 187.939 277.401C188.009 277.406 188.077 277.423 188.14 277.454C188.203 277.484 188.26 277.527 188.306 277.579L189.47 278.885C189.517 278.937 189.553 278.998 189.575 279.063C189.598 279.129 189.608 279.199 189.603 279.268C189.599 279.338 189.581 279.406 189.55 279.468C189.519 279.531 189.476 279.587 189.424 279.633C189.327 279.719 189.201 279.767 189.071 279.766Z" fill="#181A1E"/>
<path d="M184.675 274.831C184.599 274.831 184.524 274.815 184.455 274.785C184.386 274.754 184.324 274.709 184.274 274.652L183.111 273.347C183.064 273.295 183.029 273.234 183.006 273.168C182.983 273.102 182.973 273.033 182.978 272.963C182.982 272.894 183 272.826 183.03 272.763C183.061 272.701 183.104 272.645 183.156 272.598C183.209 272.552 183.27 272.517 183.336 272.494C183.402 272.471 183.472 272.462 183.542 272.466C183.612 272.47 183.681 272.488 183.744 272.518C183.807 272.549 183.863 272.591 183.91 272.643L185.074 273.949C185.12 274.001 185.156 274.062 185.179 274.128C185.202 274.194 185.211 274.263 185.207 274.333C185.202 274.402 185.184 274.47 185.153 274.533C185.123 274.595 185.08 274.651 185.027 274.697C184.93 274.784 184.805 274.831 184.675 274.831Z" fill="#181A1E"/>
<path d="M53.3738 114.22C52.1287 114.22 50.8723 114.18 49.6401 114.103C49.4989 114.093 49.3673 114.029 49.2739 113.923C49.1806 113.817 49.1332 113.679 49.1421 113.539C49.1449 113.469 49.162 113.4 49.1924 113.337C49.2227 113.273 49.2658 113.217 49.3188 113.17C49.3719 113.124 49.4339 113.089 49.5011 113.067C49.5683 113.045 49.6392 113.037 49.7096 113.043C51.1035 113.131 52.5281 113.17 53.9381 113.155C54.0747 113.163 54.2033 113.222 54.2974 113.321C54.3915 113.419 54.4439 113.55 54.4439 113.686C54.4439 113.822 54.3915 113.953 54.2974 114.051C54.2033 114.15 54.0747 114.209 53.9381 114.217L53.3738 114.22ZM58.2102 114.032C58.0745 114.028 57.9453 113.974 57.8488 113.879C57.7522 113.784 57.6955 113.656 57.6902 113.522C57.6849 113.387 57.7313 113.255 57.82 113.153C57.9087 113.051 58.0332 112.986 58.1682 112.972C59.5555 112.863 60.9704 112.704 62.3724 112.49C62.4418 112.48 62.5125 112.484 62.5805 112.501C62.6486 112.518 62.7125 112.549 62.7687 112.59C62.825 112.632 62.8724 112.684 62.9083 112.744C62.9442 112.804 62.9678 112.87 62.9779 112.939C62.988 113.008 62.9843 113.078 62.9671 113.146C62.9498 113.214 62.9193 113.277 62.8774 113.333C62.8354 113.389 62.7828 113.436 62.7225 113.472C62.6622 113.507 62.5954 113.531 62.526 113.541C61.0998 113.748 59.6606 113.91 58.249 114.023L58.2102 114.032ZM45.4359 113.679H45.3615C43.9402 113.481 42.514 113.228 41.1185 112.922C41.0501 112.907 40.9852 112.879 40.9277 112.839C40.8702 112.799 40.8212 112.749 40.7834 112.69C40.7456 112.631 40.7199 112.566 40.7076 112.497C40.6953 112.429 40.6968 112.358 40.7119 112.29C40.7269 112.222 40.7554 112.158 40.7955 112.101C40.8356 112.044 40.8867 111.995 40.9458 111.958C41.0049 111.92 41.0708 111.894 41.1398 111.882C41.2089 111.87 41.2797 111.871 41.3481 111.886C42.7161 112.185 44.1164 112.434 45.5103 112.628C45.6446 112.647 45.7669 112.715 45.8525 112.819C45.938 112.924 45.9803 113.056 45.9709 113.191C45.9614 113.325 45.9008 113.451 45.8015 113.542C45.7021 113.634 45.5714 113.684 45.4359 113.684V113.679ZM66.6622 112.808C66.5311 112.807 66.4051 112.757 66.3082 112.669C66.2113 112.581 66.1503 112.461 66.1367 112.332C66.1231 112.202 66.158 112.072 66.2346 111.966C66.3112 111.861 66.4243 111.786 66.5523 111.758C67.9138 111.474 69.3012 111.141 70.674 110.77C70.8106 110.733 70.9564 110.752 71.0794 110.821C71.2024 110.891 71.2924 111.006 71.3297 111.142C71.367 111.278 71.3485 111.423 71.2783 111.545C71.2081 111.667 71.092 111.756 70.9554 111.793C69.5599 112.171 68.1531 112.508 66.7722 112.795C66.7328 112.803 66.6926 112.805 66.6525 112.803L66.6622 112.808ZM37.1003 111.861C37.0456 111.861 36.9911 111.853 36.9386 111.838C35.5755 111.429 34.2026 110.96 32.8621 110.444C32.7301 110.393 32.6236 110.293 32.5663 110.164C32.509 110.036 32.5055 109.89 32.5565 109.758C32.6076 109.627 32.709 109.521 32.8385 109.465C32.9679 109.408 33.1149 109.404 33.247 109.455C34.5632 109.961 35.9102 110.418 37.2474 110.823C37.3708 110.86 37.4765 110.94 37.5452 111.048C37.6139 111.156 37.6409 111.285 37.6212 111.412C37.6015 111.538 37.5364 111.653 37.438 111.736C37.3396 111.818 37.2145 111.863 37.0857 111.861H37.1003ZM74.9057 110.589C74.7788 110.588 74.6562 110.543 74.56 110.46C74.4638 110.378 74.4003 110.265 74.3808 110.14C74.3614 110.015 74.3872 109.888 74.4538 109.781C74.5203 109.673 74.6232 109.593 74.744 109.554C76.0635 109.122 77.4088 108.644 78.7412 108.133C78.8733 108.082 79.0203 108.086 79.1497 108.143C79.2792 108.2 79.3806 108.305 79.4317 108.437C79.4827 108.568 79.4792 108.714 79.4219 108.842C79.3646 108.971 79.2582 109.072 79.1261 109.122C77.7759 109.64 76.4144 110.125 75.0836 110.568C75.0226 110.585 74.959 110.59 74.896 110.584L74.9057 110.589ZM29.1447 108.779C29.0567 108.779 28.9701 108.757 28.8924 108.716C27.602 108.024 26.3977 107.184 25.3043 106.214C25.2518 106.167 25.2091 106.111 25.1785 106.049C25.1478 105.986 25.13 105.918 25.1258 105.848C25.1217 105.779 25.1314 105.709 25.1544 105.643C25.1774 105.577 25.2132 105.517 25.2598 105.465C25.3064 105.412 25.3629 105.37 25.4261 105.34C25.4892 105.309 25.5577 105.291 25.6278 105.287C25.6978 105.283 25.768 105.293 25.8343 105.316C25.9006 105.338 25.9617 105.374 26.0142 105.42C27.045 106.336 28.1803 107.128 29.3969 107.781C29.5019 107.837 29.585 107.926 29.6332 108.034C29.6814 108.142 29.6918 108.263 29.6628 108.378C29.6338 108.492 29.5671 108.594 29.4732 108.667C29.3793 108.739 29.2637 108.779 29.1447 108.779ZM82.871 107.536C82.7489 107.535 82.6307 107.492 82.5362 107.415C82.4416 107.339 82.3764 107.232 82.3512 107.113C82.3261 106.995 82.3426 106.871 82.3981 106.763C82.4535 106.655 82.5445 106.569 82.656 106.519C83.9318 105.962 85.227 105.361 86.5077 104.735C86.5709 104.695 86.6418 104.669 86.7158 104.659C86.7897 104.648 86.865 104.653 86.9369 104.674C87.0087 104.694 87.0755 104.729 87.1329 104.776C87.1903 104.824 87.237 104.883 87.2699 104.949C87.3029 105.016 87.3215 105.089 87.3244 105.163C87.3273 105.237 87.3146 105.311 87.2869 105.38C87.2593 105.449 87.2174 105.511 87.1639 105.563C87.1104 105.615 87.0466 105.655 86.9766 105.681C85.683 106.323 84.3732 106.922 83.0829 107.486C83.0151 107.515 82.9418 107.531 82.8678 107.531L82.871 107.536ZM90.5405 103.789C90.4219 103.788 90.3069 103.748 90.2135 103.676C90.1201 103.603 90.0535 103.502 90.0243 103.388C89.995 103.274 90.0048 103.153 90.052 103.045C90.0991 102.937 90.1811 102.848 90.285 102.791C91.5139 102.13 92.759 101.428 93.9863 100.703C94.0467 100.668 94.1135 100.645 94.183 100.635C94.2525 100.625 94.3232 100.629 94.3911 100.646C94.4591 100.664 94.5229 100.694 94.579 100.736C94.6351 100.778 94.6823 100.83 94.718 100.89C94.7536 100.95 94.7771 101.017 94.7869 101.086C94.7968 101.155 94.7928 101.225 94.7753 101.293C94.7578 101.36 94.7271 101.423 94.685 101.479C94.6428 101.535 94.59 101.582 94.5296 101.617C93.291 102.345 92.0346 103.053 90.7943 103.723C90.7151 103.764 90.6267 103.785 90.5372 103.784L90.5405 103.789ZM22.7785 103.225C22.6957 103.225 22.6139 103.206 22.5397 103.169C22.4656 103.132 22.4012 103.079 22.3517 103.013C21.4788 101.858 20.7037 100.633 20.0345 99.351C19.9817 99.2277 19.9779 99.089 20.0239 98.963C20.0699 98.837 20.1623 98.733 20.2824 98.6719C20.4025 98.6108 20.5415 98.5972 20.6713 98.6338C20.8011 98.6704 20.9122 98.7545 20.9821 98.8692C21.6239 100.099 22.367 101.275 23.2038 102.383C23.2637 102.462 23.3002 102.556 23.3094 102.654C23.3187 102.752 23.3001 102.851 23.256 102.939C23.2118 103.027 23.1437 103.101 23.0594 103.153C22.975 103.205 22.8778 103.233 22.7785 103.233V103.225ZM97.8978 99.4634C97.7824 99.4635 97.6701 99.4264 97.5777 99.3577C97.4853 99.289 97.4178 99.1924 97.3854 99.0823C97.3529 98.9723 97.3573 98.8548 97.3978 98.7475C97.4383 98.6401 97.5127 98.5487 97.61 98.4869C98.7904 97.7353 99.9837 96.9467 101.158 96.1453C101.215 96.1058 101.28 96.0781 101.349 96.0636C101.418 96.0491 101.488 96.0482 101.557 96.0609C101.626 96.0735 101.692 96.0996 101.751 96.1375C101.809 96.1754 101.86 96.2244 101.9 96.2818C101.94 96.3392 101.968 96.4037 101.982 96.4718C101.997 96.5399 101.998 96.6102 101.985 96.6787C101.972 96.7471 101.946 96.8124 101.908 96.8708C101.87 96.9292 101.82 96.9795 101.762 97.019C100.58 97.822 99.3773 98.6251 98.1856 99.3799C98.0982 99.4333 97.9972 99.4606 97.8946 99.4586L97.8978 99.4634ZM18.8104 95.7405C18.7001 95.7407 18.5924 95.7068 18.5023 95.6435C18.4122 95.5802 18.3441 95.4906 18.3075 95.3872C17.831 94.0311 17.4406 92.6466 17.1385 91.2419C17.1084 91.1043 17.1347 90.9605 17.2114 90.8422C17.2881 90.7238 17.409 90.6405 17.5476 90.6107C17.6861 90.5809 17.8308 90.607 17.95 90.6832C18.0692 90.7594 18.153 90.8795 18.183 91.0171C18.4748 92.3778 18.8529 93.7189 19.3149 95.0323C19.3617 95.1648 19.354 95.3103 19.2935 95.4372C19.2329 95.5641 19.1244 95.6621 18.9915 95.71C18.9333 95.73 18.8721 95.7403 18.8104 95.7405ZM104.941 94.6436C104.827 94.6472 104.714 94.6139 104.619 94.5487C104.525 94.4835 104.455 94.3897 104.418 94.2815C104.382 94.1732 104.382 94.0562 104.418 93.9478C104.454 93.8394 104.524 93.7455 104.618 93.68C105.75 92.8512 106.895 91.9888 108.014 91.1102C108.125 91.0235 108.267 90.9844 108.407 91.0014C108.548 91.0184 108.676 91.0902 108.763 91.201C108.85 91.3117 108.89 91.4524 108.873 91.592C108.856 91.7316 108.783 91.8587 108.672 91.9454C107.54 92.8223 106.397 93.6912 105.254 94.5263C105.165 94.5974 105.055 94.6384 104.941 94.6436ZM111.671 89.3998C111.562 89.3995 111.455 89.3658 111.366 89.3032C111.276 89.2407 111.208 89.1523 111.171 89.0501C111.134 88.9479 111.129 88.8368 111.158 88.7319C111.186 88.6269 111.246 88.5332 111.33 88.4634C112.42 87.5592 113.508 86.6293 114.564 85.701C114.67 85.6077 114.809 85.56 114.95 85.5684C115.092 85.5769 115.224 85.6407 115.318 85.7459C115.412 85.8511 115.46 85.9891 115.451 86.1295C115.443 86.2698 115.378 86.4011 115.272 86.4944C114.212 87.4307 113.115 88.367 112.017 89.2761C111.921 89.357 111.798 89.4008 111.671 89.3998ZM17.0026 87.4725C16.8698 87.4718 16.7419 87.4222 16.6439 87.3331C16.5459 87.2441 16.4847 87.122 16.4722 86.9906C16.3639 85.8407 16.3105 84.6731 16.3105 83.5183C16.3105 83.2437 16.3105 82.9674 16.3105 82.6912C16.3135 82.5526 16.371 82.4206 16.4708 82.3236C16.5705 82.2267 16.7046 82.1724 16.8442 82.1724H16.8571C16.9988 82.1758 17.1333 82.2348 17.2312 82.3366C17.3291 82.4384 17.3824 82.5745 17.3794 82.7153C17.3794 82.9819 17.3697 83.2501 17.3697 83.5183C17.3697 84.6426 17.423 85.7764 17.5314 86.8911C17.5378 86.9607 17.5304 87.0309 17.5095 87.0976C17.4886 87.1644 17.4546 87.2264 17.4096 87.2801C17.3645 87.3338 17.3092 87.3782 17.2469 87.4106C17.1846 87.4431 17.1164 87.463 17.0463 87.4692L17.0026 87.4725ZM118.065 83.7592C117.958 83.7594 117.854 83.7276 117.765 83.6681C117.676 83.6086 117.608 83.524 117.568 83.4253C117.529 83.3266 117.52 83.2184 117.543 83.1147C117.566 83.0111 117.62 82.9166 117.698 82.8437C119.103 81.5203 120.123 80.4957 120.731 79.8693C120.78 79.8174 120.838 79.7756 120.902 79.7464C120.967 79.7171 121.037 79.701 121.108 79.6989C121.179 79.6968 121.25 79.7089 121.316 79.7344C121.382 79.7598 121.443 79.7982 121.494 79.8472C121.545 79.8961 121.586 79.9548 121.614 80.0197C121.642 80.0845 121.657 80.1543 121.657 80.2249C121.658 80.2954 121.644 80.3654 121.617 80.4307C121.59 80.4959 121.55 80.5552 121.5 80.6049C120.885 81.2393 119.852 82.2752 118.427 83.6131C118.331 83.7039 118.203 83.755 118.07 83.756L118.065 83.7592ZM17.1934 79.0052C17.1681 79.0068 17.1427 79.0068 17.1174 79.0052C17.048 78.9956 16.9811 78.9724 16.9207 78.9371C16.8602 78.9017 16.8074 78.8549 16.7652 78.7993C16.723 78.7436 16.6923 78.6803 16.6747 78.6128C16.6572 78.5454 16.6532 78.4751 16.6631 78.4062C16.865 76.9839 17.155 75.5754 17.5314 74.1886C17.5483 74.12 17.5788 74.0554 17.6212 73.9986C17.6636 73.9419 17.717 73.8942 17.7783 73.8582C17.8396 73.8223 17.9074 73.7989 17.9779 73.7894C18.0484 73.7799 18.1201 73.7844 18.1888 73.8029C18.2575 73.8213 18.3218 73.8532 18.3779 73.8966C18.434 73.9401 18.4808 73.9942 18.5155 74.0559C18.5502 74.1176 18.5721 74.1855 18.58 74.2558C18.5879 74.326 18.5816 74.3971 18.5614 74.4649C18.1967 75.8099 17.9159 77.1761 17.7206 78.5555C17.701 78.6794 17.6377 78.7923 17.542 78.8741C17.4464 78.9559 17.3245 79.0012 17.1983 79.002L17.1934 79.0052ZM19.4265 70.8415C19.3559 70.8416 19.286 70.8274 19.2211 70.7998C19.0908 70.7452 18.9875 70.6415 18.9339 70.5115C18.8803 70.3815 18.8806 70.2357 18.9349 70.106C19.4926 68.7762 20.146 67.488 20.8899 66.2514C20.9645 66.1349 21.082 66.052 21.2173 66.0202C21.3525 65.9884 21.495 66.0104 21.6142 66.0813C21.7335 66.1522 21.8201 66.2666 21.8558 66.4001C21.8914 66.5335 21.8733 66.6755 21.8051 66.7958C21.0908 67.9874 20.4624 69.2277 19.9245 70.5075C19.8847 70.605 19.8165 70.6886 19.7287 70.7475C19.6409 70.8065 19.5373 70.8381 19.4314 70.8383L19.4265 70.8415ZM23.807 63.5933C23.683 63.5941 23.5628 63.5514 23.4674 63.4729C23.4133 63.4285 23.3685 63.374 23.3357 63.3124C23.3028 63.2509 23.2825 63.1835 23.2759 63.1141C23.2693 63.0447 23.2765 62.9748 23.2972 62.9082C23.3178 62.8416 23.3515 62.7797 23.3962 62.726C24.3213 61.6141 25.3341 60.577 26.4249 59.6247C26.477 59.576 26.5384 59.5382 26.6055 59.5135C26.6727 59.4888 26.7441 59.4778 26.8156 59.4812C26.8871 59.4845 26.9571 59.5021 27.0216 59.5328C27.0862 59.5636 27.1438 59.6069 27.1911 59.6603C27.2384 59.7136 27.2744 59.7759 27.297 59.8433C27.3196 59.9108 27.3283 59.982 27.3226 60.0529C27.3169 60.1237 27.2969 60.1927 27.2638 60.2557C27.2306 60.3188 27.1851 60.3745 27.1299 60.4197C26.0824 61.3365 25.1092 62.3337 24.2193 63.4022C24.1693 63.4611 24.1069 63.5085 24.0365 63.541C23.9661 63.5734 23.8894 63.5902 23.8118 63.5901L23.807 63.5933ZM30.1925 58.0154C30.0769 58.0153 29.9644 57.978 29.872 57.9089C29.7796 57.8399 29.7123 57.7429 29.6802 57.6326C29.6481 57.5222 29.653 57.4045 29.694 57.2972C29.7351 57.1898 29.8101 57.0986 29.9079 57.0373C31.1348 56.269 32.418 55.5931 33.7466 55.0153C33.8764 54.9588 34.0234 54.9559 34.1553 55.0071C34.2872 55.0583 34.3932 55.1594 34.45 55.2883C34.5069 55.4171 34.5098 55.5631 34.4583 55.6942C34.4067 55.8252 34.3049 55.9305 34.1751 55.9869C32.8957 56.5431 31.6601 57.1938 30.4787 57.9335C30.3942 57.9855 30.2967 58.0128 30.1973 58.0122L30.1925 58.0154Z" fill="#181A1E"/>
<path d="M89.5627 163.797C89.5078 163.797 89.4534 163.788 89.401 163.772C89.3344 163.75 89.2728 163.715 89.2197 163.67C89.1666 163.624 89.123 163.569 89.0915 163.507C89.06 163.444 89.0411 163.377 89.0359 163.307C89.0308 163.238 89.0394 163.168 89.0614 163.102C89.0614 163.087 89.5562 161.608 90.292 159.046C90.3113 158.98 90.3437 158.917 90.3874 158.862C90.431 158.808 90.4851 158.762 90.5464 158.729C90.6077 158.695 90.6752 158.673 90.7449 158.666C90.8145 158.658 90.8851 158.664 90.9525 158.683C91.0199 158.702 91.0829 158.734 91.1378 158.777C91.1927 158.821 91.2384 158.874 91.2725 158.935C91.3065 158.996 91.3281 159.063 91.336 159.133C91.344 159.202 91.3381 159.272 91.3188 159.339C90.5766 161.923 90.0818 163.418 90.0753 163.434C90.0401 163.541 89.9713 163.634 89.8791 163.699C89.7869 163.765 89.676 163.799 89.5627 163.797ZM91.9268 155.629C91.8809 155.629 91.8351 155.623 91.7909 155.611C91.6549 155.576 91.5386 155.488 91.4671 155.368C91.3956 155.248 91.3749 155.104 91.4093 154.969C91.7667 153.616 92.116 152.238 92.4491 150.86C92.4823 150.724 92.5689 150.606 92.6897 150.532C92.8105 150.459 92.9558 150.436 93.0934 150.469C93.2311 150.502 93.3499 150.588 93.4238 150.708C93.4976 150.828 93.5204 150.973 93.4872 151.109C93.1524 152.489 92.8016 153.878 92.4426 155.238C92.4117 155.351 92.3444 155.45 92.2512 155.52C92.158 155.591 92.044 155.629 91.9268 155.629ZM93.9286 147.372C93.8901 147.372 93.8516 147.368 93.8138 147.361C93.7453 147.346 93.6804 147.317 93.6229 147.277C93.5654 147.237 93.5164 147.187 93.4787 147.128C93.441 147.069 93.4154 147.004 93.4032 146.935C93.3911 146.866 93.3927 146.796 93.4079 146.728C93.7119 145.358 94.0078 143.964 94.286 142.583C94.3156 142.447 94.3979 142.327 94.5152 142.251C94.6324 142.175 94.7752 142.147 94.9127 142.175C95.0501 142.202 95.1712 142.282 95.2497 142.398C95.3281 142.513 95.3578 142.654 95.3322 142.791C95.0524 144.179 94.7565 145.58 94.4493 146.956C94.4227 147.073 94.3566 147.178 94.2619 147.253C94.1672 147.327 94.0496 147.368 93.9286 147.367V147.372ZM95.6087 139.046C95.5767 139.046 95.5447 139.044 95.5133 139.038C95.4443 139.026 95.3784 139 95.3194 138.963C95.2604 138.925 95.2095 138.876 95.1695 138.819C95.1296 138.762 95.1014 138.698 95.0865 138.63C95.0717 138.562 95.0706 138.491 95.0831 138.423C95.3354 137.026 95.5682 135.622 95.7946 134.247C95.8202 134.112 95.8977 133.992 96.0106 133.913C96.1235 133.833 96.2631 133.8 96.3999 133.821C96.5367 133.842 96.66 133.915 96.7438 134.024C96.8276 134.134 96.8653 134.271 96.8489 134.408C96.629 135.787 96.3881 137.201 96.1342 138.604C96.1119 138.727 96.0471 138.837 95.9511 138.917C95.855 138.997 95.7339 139.041 95.6087 139.041V139.046ZM96.9459 130.661H96.8732C96.8037 130.651 96.7368 130.628 96.6763 130.593C96.6158 130.558 96.5629 130.511 96.5205 130.456C96.4782 130.4 96.4473 130.337 96.4295 130.27C96.4118 130.202 96.4076 130.132 96.4172 130.063C96.6096 128.66 96.7858 127.246 96.9443 125.863C96.9602 125.724 97.0313 125.596 97.142 125.508C97.2526 125.421 97.3939 125.38 97.5345 125.396C97.6752 125.412 97.8038 125.482 97.892 125.592C97.9803 125.702 98.0209 125.842 98.0051 125.982C97.8434 127.373 97.6687 128.794 97.4747 130.206C97.4553 130.332 97.3913 130.446 97.2943 130.528C97.1973 130.611 97.0737 130.656 96.9459 130.656V130.661ZM97.9032 122.222H97.8547C97.7137 122.21 97.5835 122.142 97.4926 122.034C97.4017 121.927 97.3575 121.787 97.3696 121.647C97.4957 120.224 97.6024 118.805 97.693 117.428C97.6972 117.359 97.7152 117.291 97.7459 117.228C97.7766 117.166 97.8194 117.11 97.8719 117.063C97.9244 117.017 97.9855 116.982 98.0518 116.959C98.118 116.936 98.1882 116.927 98.2581 116.931C98.3281 116.935 98.3965 116.953 98.4596 116.984C98.5226 117.014 98.5789 117.057 98.6254 117.109C98.6719 117.161 98.7075 117.222 98.7304 117.288C98.7533 117.353 98.7628 117.423 98.7586 117.492C98.6729 118.879 98.5662 120.306 98.4352 121.741C98.4234 121.872 98.3622 121.995 98.2637 122.084C98.1652 122.174 98.0365 122.223 97.9032 122.222ZM98.4174 113.752H98.3996C98.2583 113.747 98.1247 113.687 98.028 113.585C97.9313 113.482 97.8794 113.346 97.8838 113.206C97.9274 111.801 97.9501 110.398 97.9501 109.03V108.971C97.9501 108.83 98.0063 108.695 98.1064 108.596C98.2065 108.496 98.3422 108.441 98.4837 108.441C98.6252 108.441 98.7609 108.496 98.861 108.596C98.9611 108.695 99.0173 108.83 99.0173 108.971V109.03C99.0173 110.402 98.9947 111.815 98.9494 113.23C98.9468 113.368 98.8897 113.5 98.7902 113.597C98.6907 113.694 98.5568 113.749 98.4174 113.749V113.752ZM98.4077 105.265C98.2696 105.265 98.137 105.212 98.0375 105.117C97.9381 105.021 97.8795 104.892 97.8741 104.755C97.8223 103.332 97.7447 101.912 97.6412 100.537C97.6343 100.467 97.6416 100.396 97.6627 100.328C97.6838 100.261 97.7182 100.198 97.764 100.144C97.8098 100.09 97.866 100.046 97.9293 100.014C97.9926 99.9815 98.0618 99.9622 98.1327 99.957C98.2036 99.9517 98.2749 99.9606 98.3423 99.9831C98.4097 100.006 98.4719 100.041 98.5252 100.088C98.5786 100.135 98.622 100.192 98.6529 100.255C98.6838 100.319 98.7016 100.388 98.7052 100.458C98.8103 101.848 98.8896 103.279 98.9413 104.716C98.9461 104.857 98.8947 104.993 98.7984 105.096C98.702 105.199 98.5685 105.26 98.4271 105.265H98.4077ZM97.7609 96.803C97.6304 96.8031 97.5044 96.7555 97.4069 96.6693C97.3094 96.5832 97.2472 96.4644 97.2321 96.3356C97.0624 94.9207 96.8586 93.517 96.6274 92.1598C96.6038 92.0212 96.6366 91.8789 96.7187 91.7643C96.8007 91.6497 96.9252 91.5721 97.0648 91.5487C97.2044 91.5253 97.3476 91.5579 97.463 91.6394C97.5784 91.7209 97.6565 91.8445 97.68 91.9832C97.9145 93.3547 98.1199 94.7761 98.2913 96.2088C98.3082 96.3482 98.2686 96.4887 98.1813 96.5992C98.0939 96.7097 97.966 96.7813 97.8256 96.7982C97.8041 96.8003 97.7825 96.8008 97.7609 96.7998V96.803ZM96.325 88.4418C96.204 88.4415 96.0867 88.4006 95.9921 88.3256C95.8976 88.2507 95.8314 88.1461 95.8043 88.029C95.4809 86.6381 95.1284 85.2665 94.7403 83.956C94.7205 83.8892 94.7141 83.8193 94.7214 83.75C94.7288 83.6808 94.7498 83.6137 94.7833 83.5526C94.8168 83.4914 94.8621 83.4374 94.9166 83.3937C94.9711 83.3499 95.0337 83.3172 95.1009 83.2975C95.1681 83.2778 95.2386 83.2714 95.3083 83.2787C95.378 83.2861 95.4455 83.3069 95.5071 83.3402C95.5687 83.3735 95.623 83.4184 95.6671 83.4726C95.7111 83.5267 95.744 83.5889 95.7639 83.6557C96.1585 84.9887 96.5239 86.386 96.8457 87.7945C96.8624 87.8629 96.8653 87.9339 96.8542 88.0034C96.843 88.0728 96.8181 88.1394 96.7807 88.1992C96.7434 88.259 96.6945 88.3108 96.6368 88.3516C96.5791 88.3925 96.5138 88.4215 96.4447 88.4369C96.4049 88.4413 96.3648 88.4419 96.325 88.4386V88.4418ZM93.8995 80.3102C93.7907 80.3101 93.6846 80.277 93.5952 80.2153C93.5059 80.1535 93.4378 80.0662 93.3999 79.9649C92.8986 78.6335 92.3488 77.3309 91.7667 76.0943C91.7066 75.9665 91.7002 75.8202 91.7487 75.6877C91.7972 75.5552 91.8967 75.4472 92.0254 75.3876C92.1541 75.3279 92.3013 75.3215 92.4347 75.3697C92.5682 75.4179 92.6768 75.5168 92.7369 75.6445C93.3319 76.9069 93.893 78.2351 94.404 79.5955C94.4532 79.7271 94.4478 79.8728 94.389 80.0004C94.3302 80.1281 94.2228 80.2274 94.0903 80.2765C94.0306 80.297 93.9675 80.3063 93.9044 80.3038L93.8995 80.3102ZM90.271 72.6428C90.1778 72.6431 90.0862 72.619 90.0053 72.5731C89.9244 72.5271 89.8571 72.4609 89.8101 72.381C89.0938 71.1604 88.3192 69.9799 87.5108 68.8717C87.4697 68.8153 87.4402 68.7514 87.4239 68.6837C87.4077 68.6159 87.4051 68.5457 87.4162 68.4769C87.4273 68.4082 87.4519 68.3422 87.4887 68.283C87.5254 68.2237 87.5736 68.1721 87.6304 68.1313C87.6872 68.0905 87.7515 68.0612 87.8197 68.0451C87.888 68.029 87.9587 68.0264 88.0279 68.0374C88.0971 68.0484 88.1635 68.0729 88.2232 68.1094C88.2829 68.1459 88.3348 68.1938 88.3758 68.2502C89.2054 69.3857 89.9928 70.595 90.7318 71.8462C90.7672 71.9062 90.7904 71.9727 90.7999 72.0416C90.8094 72.1106 90.805 72.1808 90.7872 72.2481C90.7693 72.3154 90.7382 72.3785 90.6957 72.4338C90.6531 72.4892 90.6 72.5356 90.5394 72.5705C90.4593 72.6164 90.3683 72.6402 90.2758 72.6396L90.271 72.6428ZM85.2583 65.7977C85.1837 65.798 85.1099 65.7827 85.0416 65.7528C84.9734 65.7229 84.9122 65.6791 84.8621 65.6242C83.9218 64.5901 82.9236 63.6094 81.8723 62.6867C81.7651 62.5937 81.6995 62.4621 81.6899 62.321C81.6804 62.1799 81.7276 62.0408 81.8213 61.9343C81.915 61.8278 82.0475 61.7626 82.1896 61.7531C82.3316 61.7437 82.4717 61.7906 82.5789 61.8837C83.6593 62.8326 84.685 63.8412 85.6512 64.9047C85.721 64.9806 85.7671 65.075 85.7837 65.1765C85.8003 65.278 85.7867 65.382 85.7447 65.476C85.7026 65.5699 85.6339 65.6496 85.5469 65.7053C85.46 65.761 85.3585 65.7903 85.255 65.7897L85.2583 65.7977ZM78.8727 60.2021C78.7634 60.2018 78.6567 60.1681 78.5671 60.1058C77.4164 59.3097 76.2223 58.5772 74.9903 57.9119C74.9288 57.8786 74.8744 57.8337 74.8303 57.7796C74.7862 57.7255 74.7532 57.6633 74.7333 57.5966C74.7134 57.5298 74.707 57.4599 74.7143 57.3906C74.7216 57.3214 74.7426 57.2543 74.7761 57.1931C74.8095 57.132 74.8548 57.078 74.9092 57.0342C74.9637 56.9904 75.0263 56.9576 75.0935 56.9379C75.1607 56.9181 75.2312 56.9117 75.3008 56.919C75.3705 56.9263 75.4381 56.9471 75.4997 56.9803C76.7671 57.6641 77.9953 58.4174 79.1784 59.2369C79.2711 59.3016 79.3406 59.3939 79.377 59.5005C79.4133 59.6071 79.4146 59.7224 79.3805 59.8298C79.3465 59.9371 79.2789 60.0309 79.1876 60.0975C79.0963 60.1642 78.986 60.2003 78.8727 60.2005V60.2021ZM71.4006 56.1484C71.3307 56.1484 71.2615 56.1348 71.1969 56.1082C69.9243 55.583 68.5903 55.1077 67.232 54.6933C67.1636 54.6741 67.0999 54.6415 67.0444 54.5975C66.9889 54.5535 66.9428 54.4989 66.9088 54.437C66.8748 54.375 66.8536 54.307 66.8465 54.2368C66.8393 54.1666 66.8463 54.0958 66.8671 54.0283C66.8879 53.9609 66.922 53.8982 66.9674 53.844C67.0129 53.7898 67.0688 53.7452 67.1318 53.7128C67.1949 53.6803 67.2638 53.6607 67.3346 53.655C67.4054 53.6494 67.4766 53.6578 67.5441 53.6798C68.9363 54.1039 70.3027 54.5905 71.606 55.1253C71.7202 55.1722 71.8146 55.257 71.8728 55.3653C71.9311 55.4737 71.9497 55.5987 71.9255 55.7191C71.9012 55.8395 71.8356 55.9478 71.7399 56.0256C71.6442 56.1033 71.5242 56.1455 71.4006 56.1452V56.1484Z" fill="#181A1E"/>
<path d="M242.62 273.773C242.62 273.773 225.479 240.484 233.808 208.115C234.087 207.033 238.325 208.237 238.659 207.151C239.091 205.773 235.641 202.112 236.173 200.743C238.233 195.436 241.019 190.436 244.453 185.884C244.453 185.884 251.245 195.705 254.766 211.037C255.032 212.193 250.701 215.412 250.924 216.629C251.136 217.779 255.906 216.924 256.075 218.124C258.235 233.661 256.377 253.334 242.62 273.773Z" fill="#B8D9BE"/>
<path d="M227.7 234.474C226.985 233.51 222.925 237.002 222.202 236.08C221.479 235.158 223.416 228.613 222.687 227.754C208.527 210.89 193.45 203.17 193.45 203.17C192.18 211.484 192.197 219.942 193.5 228.25C193.698 229.519 199.47 231.634 199.721 232.879C199.996 234.244 195.284 235.95 195.62 237.288C200.581 257.043 211.412 272.488 222.139 284.564C230.139 281.794 237.797 278.13 244.964 273.643C241.679 257.166 235.421 244.96 227.7 234.474Z" fill="#83B08C"/>
<path d="M231.932 273.479C231.845 273.479 231.758 273.458 231.681 273.417C231.604 273.376 231.538 273.317 231.489 273.244C227.696 267.646 223.998 261.868 220.494 256.075C220.455 256.016 220.429 255.949 220.418 255.879C220.406 255.809 220.408 255.738 220.424 255.669C220.441 255.6 220.471 255.535 220.513 255.478C220.555 255.421 220.608 255.372 220.67 255.336C220.731 255.3 220.799 255.276 220.869 255.266C220.94 255.256 221.012 255.26 221.081 255.278C221.15 255.297 221.214 255.328 221.27 255.372C221.327 255.415 221.374 255.469 221.409 255.531C224.9 261.313 228.588 267.069 232.372 272.652C232.451 272.768 232.48 272.911 232.453 273.049C232.426 273.187 232.345 273.309 232.228 273.387C232.141 273.447 232.038 273.479 231.932 273.479Z" fill="#E0EDE4"/>
<path d="M216.07 248.013C215.975 248.013 215.882 247.988 215.801 247.94C215.719 247.893 215.651 247.825 215.604 247.743C209.945 237.837 204.667 227.558 199.905 217.194L197.728 212.456C197.675 212.329 197.674 212.187 197.724 212.059C197.775 211.931 197.874 211.828 197.999 211.771C198.125 211.713 198.268 211.707 198.399 211.753C198.529 211.799 198.637 211.893 198.699 212.016L200.877 216.754C205.626 227.089 210.892 237.339 216.534 247.221C216.58 247.302 216.603 247.393 216.602 247.485C216.602 247.578 216.577 247.669 216.53 247.749C216.483 247.829 216.416 247.895 216.335 247.942C216.255 247.988 216.163 248.012 216.07 248.013Z" fill="#E0EDE4"/>
<path d="M241.648 275.634C241.648 275.634 234.857 240.056 269.933 227.707C269.933 227.707 272.869 258.764 241.648 275.634Z" fill="#83B08C"/>
<path d="M247.944 266.372C247.884 266.372 247.824 266.361 247.768 266.341C247.635 266.293 247.526 266.196 247.466 266.069C247.405 265.942 247.398 265.797 247.444 265.665C251.467 254.262 263.981 236.582 264.099 236.405C264.181 236.29 264.305 236.212 264.445 236.188C264.585 236.164 264.728 236.197 264.844 236.278C264.96 236.359 265.038 236.482 265.062 236.621C265.087 236.76 265.054 236.902 264.973 237.017C264.848 237.194 252.42 254.744 248.447 266.017C248.41 266.12 248.342 266.21 248.252 266.273C248.162 266.337 248.054 266.371 247.944 266.372Z" fill="#E0EDE4"/>
</svg>
